<svg xmlns="http://www.w3.org/2000/svg" xmlns:xlink="http://www.w3.org/1999/xlink" version="1.1" width="96" height="96" viewBox="0 0 96 96">
<path d="M63.952 16h-32c-1.104 0-2-0.896-2-2s0.896-2 2-2h32c1.1 0 2 0.896 2 2s-0.896 2-2 2z" fill="#000000"/>
	<path d="M71.256 79.204c-0.3 0-0.608-0.068-0.9-0.216-0.984-0.496-1.384-1.696-0.888-2.684l17.692-35.204c0.496-0.988 1.688-1.404 2.688-0.896 0.984 0.496 1.384 1.696 0.884 2.684l-17.688 35.212c-0.348 0.7-1.056 1.104-1.788 1.104z" fill="#000000"/>
	<path d="M23.768 77.676c-0.736 0-1.44-0.412-1.792-1.104l-16.816-33.676c-0.496-0.988-0.092-2.192 0.896-2.684 0.992-0.496 2.192-0.084 2.68 0.904l16.816 33.676c0.496 0.984 0.092 2.192-0.896 2.684-0.284 0.132-0.588 0.2-0.888 0.2z" fill="#000000"/>
	<path d="M45.952 76h-0.6c-7.672 0-14.464-6.7-15.312-14.716-3.544-1.184-6.088-5.496-6.088-9.284v-4c0-2.608 1.672-4.832 4-5.656v-5.144c0-6.916 3.864-11.604 9.652-11.792 1.088-0.38 2.224-0.8 3.38-1.244 4.224-1.592 8.596-3.244 12.532-3.244 6.924 0 10.436 5.076 10.436 15.080v6.784c1.58 0.912 4 2.716 4 5.216v4c0 3.628-2.976 8.084-6.688 9.292-0.848 8.008-7.644 14.708-15.312 14.708zM53.516 24.92c-3.208 0-7.232 1.52-11.124 2.976-1.304 0.492-2.58 0.972-3.796 1.396-0.208 0.072-0.424 0.1-0.644 0.1-4.424 0-6 4.040-6 7.8v6.8c0 1.1-0.896 2-2 2s-2 0.9-2 2v4c0 2.396 1.98 5.592 4 5.592 1.104 0 2 0.904 2 2 0 6.604 5.328 12.408 11.4 12.408h0.6c6.072 0 11.4-5.792 11.4-12.408 0-1.096 0.9-2 2-2 1.976 0 4.6-3.196 4.6-5.592v-4c-0.084-0.472-1.536-1.6-2.816-2.176-0.72-0.32-1.184-1.036-1.184-1.824v-8c0-11.072-4.508-11.072-6.436-11.072z" fill="#000000"/>
	<path d="M80.14 96h-68.188c-1.104 0-2-0.896-2-2 0-12.544 9.54-22 22.188-22 1.104 0 2 0.896 2 2s-0.892 2-2 2c-9.852 0-17.18 6.616-18.092 16h64c-0.916-9.384-8.244-16-18.092-16-1.1 0-2-0.896-2-2s0.9-2 2-2c12.648 0 22.188 9.456 22.188 22-0.004 1.104-0.896 2-2.004 2z" fill="#000000"/>
	<path d="M19.952 4c4.416 0 8 3.584 8 8s-3.584 16-8 16-8-11.584-8-16 3.584-8 8-8zM19.952 0c-6.616 0-12 5.384-12 12 0 4.656 3.74 20 12 20s12-15.344 12-20c0-6.616-5.384-12-12-12v0z" fill="#000000"/>
	<path d="M1.92 42c-1.104 0-2-0.896-2-2 0-6.616 5.396-12 12.032-12h4c1.104 0 2 0.896 2 2s-0.896 2-2 2h-4c-4.428 0-8.032 3.584-8.032 8 0 1.104-0.892 2-2 2z" fill="#000000"/>
	<path d="M-0.048 40h20v4h-20v-4z" fill="#000000"/>
	<path d="M75.952 4c4.416 0 8 3.584 8 8s-3.584 16-8 16-8-11.584-8-16 3.588-8 8-8zM75.952 0c-6.616 0-12 5.384-12 12 0 4.656 3.744 20 12 20s12-15.344 12-20c0-6.616-5.38-12-12-12v0z" fill="#000000"/>
	<path d="M94.080 42c-1.104 0-2-0.896-2-2 0-4.416-3.644-8-8.124-8h-4c-1.1 0-2-0.896-2-2s0.9-2 2-2h4c6.684 0 12.124 5.384 12.124 12 0 1.104-0.892 2-2 2z" fill="#000000"/>
	<path d="M75.952 40h20v4h-20v-4z" fill="#000000"/>
</svg>
