<?xml version="1.0" standalone="no"?>
<!DOCTYPE svg PUBLIC "-//W3C//DTD SVG 1.1//EN" "http://www.w3.org/Graphics/SVG/1.1/DTD/svg11.dtd" >
<svg xmlns="http://www.w3.org/2000/svg" xmlns:xlink="http://www.w3.org/1999/xlink" version="1.1">
<metadata></metadata>
<defs>
<font id="skolar_latin_weblight_italic" horiz-adv-x="1126" >
<font-face units-per-em="2048" ascent="1536" descent="-512" />
<missing-glyph horiz-adv-x="409" />
<glyph horiz-adv-x="0" />
<glyph horiz-adv-x="0" />
<glyph unicode="&#xd;" horiz-adv-x="0" />
<glyph unicode=" "  horiz-adv-x="409" />
<glyph unicode="&#x09;" horiz-adv-x="409" />
<glyph unicode="&#xa0;" horiz-adv-x="409" />
<glyph unicode="!" horiz-adv-x="616" d="M115 70q0 47 37.5 85t91.5 38q45 0 73.5 -28t28.5 -69q0 -47 -38 -86t-91 -39q-45 0 -73.5 28t-28.5 71zM225 350q4 111 10.5 217.5t14.5 220.5q10 137 24.5 272.5t36.5 262.5q4 27 31 41t61 14q37 0 70 -16q-16 -240 -59.5 -489t-102.5 -523q-45 -18 -86 0z" />
<glyph unicode="&#x22;" horiz-adv-x="620" d="M176 1202v109q0 59 3 122.5t11 122.5q2 18 18.5 27.5t39 15t46 5.5t42.5 -2l14 -15q-18 -125 -43.5 -254t-56.5 -233q-18 -6 -39 -6t-31 6q-4 51 -4 102zM483 1202v109q0 59 3 122.5t11 122.5q2 18 18.5 27.5t39 15t46 5.5t42.5 -2l14 -15q-18 -125 -43.5 -254 t-56.5 -233q-18 -6 -39 -6t-31 6q-4 51 -4 102z" />
<glyph unicode="#" horiz-adv-x="1325" d="M98 221q-2 27 3 59.5t14 55.5h237l90 297h-219q-2 27 3 59.5t14 55.5h237l72 231q25 -2 60.5 -7t60.5 -14l-66 -210h285l72 231q25 -2 60.5 -7t59.5 -14l-65 -210h213q2 -27 -3 -60t-14 -55h-231l-92 -297h215q2 -27 -3 -59.5t-14 -55.5h-233l-72 -235q-23 2 -56.5 7 t-61.5 11l65 217h-287l-71 -235q-23 2 -57.5 7t-61.5 11l65 217h-219zM477 336h287l90 297h-285z" />
<glyph unicode="$" horiz-adv-x="972" d="M27 88q16 82 37.5 161t50.5 165q25 6 45 4t41 -10q-4 -55 -5 -119t3 -129q37 -14 80 -22.5t98 -12.5l67 506l-6 4q-43 18 -90 42.5t-85 59.5t-62.5 81t-24.5 108q0 90 32 156.5t82 111.5t114.5 70.5t130.5 33.5l20 185q29 4 52.5 2t49.5 -6l-22 -174q76 -4 159 -21.5 t150 -46.5q-10 -76 -30.5 -148.5t-49.5 -142.5q-55 -12 -84 6v103q0 51 -4 98q-35 10 -76 16.5t-82 8.5l-55 -433l45 -18q43 -18 85 -44t76 -59.5t54.5 -77.5t20.5 -102q0 -88 -26.5 -164.5t-76 -135t-120 -95.5t-160.5 -47l-23 -178q-55 -10 -102 4l22 172q-96 4 -186 28.5 t-145 59.5zM319 987q0 -78 49.5 -128t104.5 -75l47 394q-35 -4 -68.5 -10.5t-62.5 -18.5q-33 -33 -51.5 -71t-18.5 -91zM477 127q37 4 74 15.5t65 27.5q80 92 80 225q0 68 -43 118t-100 73l-16 6z" />
<glyph unicode="%" horiz-adv-x="1370" d="M68 961q0 80 25.5 155.5t71.5 135t109.5 96t139.5 36.5q61 0 104 -23.5t71.5 -63.5t42 -92t13.5 -109q0 -80 -25.5 -156t-71.5 -135.5t-110.5 -96t-140.5 -36.5q-59 0 -103 23.5t-72 62.5t-41 91t-13 112zM127 25l1047 1405q29 -8 52 -23.5t40 -44.5l-1047 -1405 q-29 8 -52.5 23.5t-39.5 44.5zM199 997q0 -96 33.5 -160.5t103.5 -64.5q20 0 42.5 5t39.5 16q41 49 68.5 116.5t27.5 149.5q0 96 -33.5 160.5t-105.5 64.5q-18 0 -41 -5t-39 -15q-41 -49 -68.5 -117t-27.5 -150zM727 276q0 80 25.5 156t71.5 135.5t109.5 96t139.5 36.5 q61 0 104.5 -23.5t72 -63.5t42 -92t13.5 -109q0 -80 -26 -156t-72 -135.5t-110.5 -96t-140.5 -36.5q-59 0 -103 23.5t-71.5 62.5t-41 91t-13.5 111zM858 313q0 -96 34 -160.5t103 -64.5q20 0 43 5t39 16q41 49 69 116.5t28 149.5q0 96 -34 160.5t-106 64.5q-18 0 -40.5 -5 t-39.5 -15q-41 -49 -68.5 -117t-27.5 -150z" />
<glyph unicode="&#x26;" horiz-adv-x="1368" d="M111 326q0 147 77.5 261.5t210.5 170.5q-59 41 -89.5 106.5t-30.5 132.5q0 86 35.5 160t95 128t136.5 85t161 31q80 0 170 -13.5t161 -35.5q-14 -90 -33.5 -176t-54.5 -164q-45 -14 -82 12q4 59 5 116.5t-5 116.5q-37 10 -89 15.5t-95 5.5q-47 0 -91 -8t-89 -29 q-35 -37 -62.5 -93t-27.5 -122q0 -45 8 -86t29.5 -71.5t58.5 -48t94 -17.5q20 0 37.5 2t36.5 6l14 -14q12 -43 -6 -79t-47 -36q-72 0 -150.5 -15.5t-140.5 -56.5q-41 -47 -66.5 -108.5t-25.5 -132.5q0 -57 19.5 -107.5t60.5 -88.5t102.5 -59.5t145.5 -21.5q121 0 216 33 t191 104q14 29 24.5 63t10.5 62q0 70 -43 117t-127 47q-37 0 -79 -11t-95 -38q-16 6 -27.5 24.5t-15.5 36.5q100 51 188 106.5t158 119t117 138.5t65 165l17 12q45 8 82 -10.5t37 -44.5q0 -45 -23 -94.5t-60.5 -96.5t-88 -90t-105.5 -76l-92 -55l2 -6h74q59 0 105 -42 t46 -116q0 -111 -54 -197.5t-142 -148t-198 -93.5t-222 -32q-121 0 -203 29t-134 77t-74.5 112.5t-22.5 138.5z" />
<glyph unicode="'" horiz-adv-x="315" d="M176 1202v109q0 59 3 122.5t11 122.5q2 18 18.5 27.5t39 15t46 5.5t42.5 -2l14 -15q-18 -125 -43.5 -254t-56.5 -233q-18 -6 -39 -6t-31 6q-4 51 -4 102z" />
<glyph unicode="(" horiz-adv-x="727" d="M193 467q0 156 23.5 307.5t81.5 308t155.5 322.5t242.5 348q23 -4 42.5 -18.5t29.5 -34.5q-139 -207 -224 -381t-131 -326.5t-61.5 -286t-15.5 -255.5q0 -88 9 -189.5t29.5 -210t53.5 -220.5t78 -218q-10 -16 -32.5 -31.5t-47.5 -23.5q-127 233 -180 465.5t-53 443.5z " />
<glyph unicode=")" horiz-adv-x="727" d="M-39 -389q139 207 224 381t131 326.5t61.5 285.5t15.5 256q0 88 -9 189.5t-29.5 210t-53.5 219t-78 219.5q10 16 33 31.5t47 23.5q127 -233 180.5 -465.5t53.5 -443.5q0 -156 -24 -307.5t-82 -308t-155.5 -322.5t-242.5 -348q-23 4 -42.5 18t-29.5 35z" />
<glyph unicode="*" horiz-adv-x="829" d="M134 1261.5q1 24.5 7 47t17.5 38t27.5 11.5q66 -14 132.5 -45t123.5 -66q-25 59 -61.5 132t-69.5 134q27 18 61 29.5t60 11.5q16 0 23 -10q16 -47 23 -115.5t11 -171.5q39 53 84 122t84 126q12 -4 32 -17t37 -30.5t25.5 -34t-1.5 -28.5q-43 -51 -106.5 -93t-119.5 -77 q63 -6 145.5 -12.5t151.5 -10.5q2 -14 0 -37.5t-8 -46t-16.5 -38t-28.5 -13.5q-68 8 -133.5 42t-122.5 69q29 -59 63.5 -132t65.5 -135q-18 -16 -53 -29.5t-64 -13.5q-18 0 -24 17q-29 66 -32 139.5t-3 142.5l-168 -245q-16 4 -32.5 15t-32 24.5t-24.5 26.5t-9 26 q0 18 29.5 45.5t69.5 55.5t78 51.5t54 33.5q-66 6 -146.5 12.5t-148.5 10.5q-2 14 -1 38.5z" />
<glyph unicode="+" d="M127 467q-2 29 2 57.5t12 57.5h348l50 364q57 10 114 0l-49 -364h348q2 -29 -2 -57.5t-12 -57.5h-348l-49 -365q-57 -10 -115 0l49 365h-348z" />
<glyph unicode="," horiz-adv-x="530" d="M-18 -250q70 61 116.5 122.5t46.5 123.5q0 29 -14 53.5t-51 38.5q10 59 45 94t104 45q43 -16 74 -55t31 -94q0 -53 -23.5 -103.5t-65.5 -99.5t-99.5 -94t-125.5 -84q-39 16 -38 53z" />
<glyph unicode="-" horiz-adv-x="778" d="M123 477q0 20 6 41t14 35l496 10q8 0 12 -12t4 -29q0 -20 -6 -40.5t-14 -35.5l-496 -10q-8 0 -12 12.5t-4 28.5z" />
<glyph unicode="." horiz-adv-x="530" d="M80 78q0 51 40 91t97 40q49 0 80 -28.5t31 -74.5q0 -51 -40 -93t-100 -42q-47 0 -77.5 30t-30.5 77z" />
<glyph unicode="/" horiz-adv-x="870" d="M74 -158l708 1559q8 18 26.5 24.5t39 5.5t39 -6.5t28.5 -11.5l7 -18l-707 -1561q-8 -18 -26.5 -25.5t-39 -6.5t-40 7.5t-27.5 12.5z" />
<glyph unicode="0" horiz-adv-x="1189" d="M127 520q0 160 39 307.5t111.5 262t176 183t234.5 68.5q94 0 165 -42t117 -116.5t68.5 -176t22.5 -220.5q0 -160 -39 -307t-111.5 -262t-176 -183.5t-234.5 -68.5q-94 0 -165 42t-117 117t-68.5 176t-22.5 220zM270 582q0 -102 15.5 -192.5t50.5 -157t89 -105.5t132 -39 q41 0 80 10.5t80 38.5q27 31 61.5 85t65 129t52.5 169t22 205q0 102 -15.5 192.5t-50.5 157t-89 105.5t-132 39q-41 0 -80 -10.5t-80 -39.5q-29 -31 -63.5 -85t-65.5 -128.5t-51.5 -169t-20.5 -204.5z" />
<glyph unicode="1" horiz-adv-x="768" d="M68 78q51 6 102 14.5t104 22.5q10 27 14.5 56.5t8.5 57.5l117 934h-187q-8 12 -11 30.5t3 37.5q76 35 160 60.5t188 43.5l15 -14l-136 -1049q-6 -41 -9 -79.5t-5 -77.5q53 -4 100.5 -14.5t90.5 -20.5q-10 -49 -29 -82q-23 2 -57.5 3t-71.5 1h-127q-63 0 -128 -2t-134 -2 q-14 39 -8 80z" />
<glyph unicode="2" horiz-adv-x="999" d="M41 71.5q0 32.5 8 71.5q145 125 263 237t202 212t129 193.5t45 185.5q0 98 -59.5 166.5t-163.5 68.5q-88 0 -153.5 -33.5t-135.5 -99.5q-23 8 -38 24.5t-21 37.5q94 111 186 154.5t209 43.5q72 0 131 -24.5t101 -66.5t66 -99.5t24 -122.5q0 -109 -42 -210t-110 -195.5 t-152 -178.5t-165 -155l-185 -160h504q25 57 49.5 120.5t44.5 123.5q20 6 43 1.5t41 -10.5q-10 -82 -25.5 -168t-39.5 -176l-15 -14q-88 4 -204 4h-527q-10 37 -10 69.5z" />
<glyph unicode="3" horiz-adv-x="985" d="M47 82q20 88 76 137h22q45 -63 114 -93t136 -30q41 0 89 13.5t98 48.5q37 43 63.5 108.5t26.5 145.5q0 94 -58.5 155.5t-158.5 61.5q-23 0 -42.5 -1t-35.5 -3l-17 12q-4 25 1.5 54.5t27.5 56.5q47 0 101.5 19t100.5 56t76.5 89.5t30.5 115.5q0 80 -57 129t-147 49 q-82 0 -148.5 -36.5t-128.5 -96.5q-23 8 -38 24.5t-21 37.5q94 111 186 154.5t205 43.5q61 0 115.5 -18.5t94.5 -55t62.5 -89t22.5 -119.5q0 -53 -20.5 -102.5t-56.5 -93.5t-82 -79t-95 -55q117 -20 172 -92t55 -180q0 -88 -38 -174.5t-102.5 -154t-152.5 -108.5t-186 -41 q-78 0 -156 28t-135 83z" />
<glyph unicode="4" horiz-adv-x="1060" d="M57.5 425.5q-2.5 31.5 3.5 63.5l658 826q33 0 63.5 -5t59.5 -20l-107 -813h8l234 -12q4 -29 -2 -52.5t-17 -47.5h-237l-10 -86q-6 -43 -8.5 -83t-4.5 -79q86 -10 150 -37q-2 -20 -7 -43t-16 -39q-18 2 -47.5 3t-60.5 1h-111q-66 0 -126 -2t-132 -2q-8 23 -9 42t3 40 q49 4 98.5 14.5t102.5 22.5q10 29 15 58.5t9 60.5l17 129h-518q-6 29 -8.5 60.5zM188 475h410l84 658h-2l-68 -117z" />
<glyph unicode="5" horiz-adv-x="1021" d="M78 90q14 78 69 129h21q47 -61 120.5 -92t145.5 -31q43 0 89 14.5t98 49.5q39 47 66.5 118.5t27.5 180.5q0 102 -58.5 166.5t-162.5 64.5q-78 0 -141.5 -14t-135.5 -41l-12 14l82 639l12 15h403q98 0 203 2l15 -13q-8 -59 -33 -106h-475l-54 -402q47 16 92.5 21.5 t98.5 5.5q80 0 138 -25.5t96 -67.5t57.5 -97.5t19.5 -114.5q0 -106 -38 -203.5t-104.5 -171.5t-154.5 -117t-186 -43q-84 0 -162 29t-137 90z" />
<glyph unicode="6" horiz-adv-x="1054" d="M127 430q0 88 12.5 183.5t45 188.5t89 180t143.5 158.5t210 125t286 77.5q25 -30 19 -81q-299 -66 -456 -220.5t-193 -396.5h4q98 88 182 121t168 33q129 0 208 -88t79 -228q0 -117 -37 -213t-100.5 -163.5t-149.5 -104.5t-184 -37q-92 0 -153.5 44t-100.5 111.5 t-55.5 149.5t-16.5 160zM272 479q0 -86 15.5 -158.5t46.5 -126t77 -83t105 -29.5q49 0 89 13.5t73 35.5q47 53 78.5 132t31.5 167q0 109 -62.5 176.5t-160.5 67.5q-72 0 -149.5 -41t-143.5 -96v-58z" />
<glyph unicode="7" horiz-adv-x="948" d="M141 918q2 94 9.5 187t23.5 187l14 13q43 0 99.5 -1t115.5 -1h523q35 -35 37 -89l-670 -1239q-41 4 -82 22.5t-59 45.5v23q180 285 349 571.5t316 554.5h-524q-23 -68 -37 -137.5t-29 -136.5q-23 -8 -43 -9.5t-43 9.5z" />
<glyph unicode="8" horiz-adv-x="1101" d="M94 250q0 129 87 234.5t253 193.5v2q-98 63 -158.5 125.5t-60.5 140.5q0 96 41 170t103.5 123t140.5 74.5t151 25.5q74 0 131.5 -20.5t97.5 -55t60.5 -82t20.5 -98.5q0 -115 -81 -201.5t-210 -156.5q117 -68 190.5 -141.5t73.5 -171.5q0 -84 -36 -164t-101.5 -142.5 t-158.5 -101.5t-208 -39q-164 0 -250 72t-86 213zM231 297q0 -59 22.5 -100t58.5 -66t79 -35t86 -10q68 0 119 14.5t102 38.5q45 45 70 96.5t25 110.5q0 39 -21.5 76t-57.5 70.5t-84 66.5t-102 64q-137 -61 -217 -146.5t-80 -179.5zM354 1028q0 -70 64.5 -132t165.5 -122 q45 27 89 57.5t77.5 63.5t55 66.5t21.5 68.5q0 37 -16 71t-47 59.5t-73 41t-93 15.5q-90 0 -143 -23q-41 -29 -71 -72t-30 -94z" />
<glyph unicode="9" horiz-adv-x="1054" d="M121 47q297 63 453.5 218t193.5 399h-2q-98 -88 -182 -121t-168 -33q-129 0 -208 88t-79 227q0 117 37 213.5t100.5 164t149.5 104t184 36.5q92 0 153.5 -44t100.5 -111.5t55.5 -149.5t16.5 -159q0 -88 -12.5 -183.5t-45 -188.5t-89 -180t-143.5 -159t-210 -125t-287 -78 q-24 31 -18 82zM264 879q0 -109 62.5 -176.5t160.5 -67.5q72 0 149 40t142 95q2 16 2 29v30q0 86 -15 159t-46 126t-77 83t-105 30q-49 0 -89 -13.5t-73 -35.5q-47 -53 -79 -132t-32 -167z" />
<glyph unicode=":" horiz-adv-x="530" d="M76 76q0 49 40 89t95 40q47 0 77.5 -29t30.5 -72q0 -51 -39.5 -92t-97.5 -41q-47 0 -76.5 30t-29.5 75zM174 825q0 49 40 89t95 40q47 0 78 -28.5t31 -71.5q0 -51 -40 -92t-97 -41q-47 0 -77 29.5t-30 74.5z" />
<glyph unicode=";" horiz-adv-x="530" d="M-18 -250q70 61 116.5 122.5t46.5 123.5q0 29 -14 53.5t-51 38.5q10 59 45 94t104 45q43 -16 74 -55t31 -94q0 -53 -23.5 -103.5t-65.5 -99.5t-99.5 -94t-125.5 -84q-39 16 -38 53zM178 825q0 49 40 89t95 40q47 0 78 -28.5t31 -71.5q0 -51 -40 -92t-97 -41 q-47 0 -77 29.5t-30 74.5z" />
<glyph unicode="&#x3c;" d="M106 481q-10 63 17 129l864 398q16 -18 29.5 -44t17.5 -59l-811 -364l719 -367q-8 -29 -23.5 -52.5t-33.5 -45.5z" />
<glyph unicode="=" d="M111 311q-2 29 2 57.5t12 57.5h811q2 -29 -2 -57.5t-12 -57.5h-811zM150 623q-2 29 2 57.5t12 56.5h811q2 -29 -2 -57.5t-12 -56.5h-811z" />
<glyph unicode="&#x3e;" d="M57 178l809 365l-716 366q8 29 23 52.5t34 46.5l778 -406q10 -63 -16 -129l-865 -397q-16 18 -29.5 43.5t-17.5 58.5z" />
<glyph unicode="?" horiz-adv-x="776" d="M92 1233q59 80 148.5 125t187.5 45q76 0 134.5 -23.5t97 -63.5t59 -94.5t20.5 -113.5q0 -102 -47 -192.5t-135 -163.5l-190 -162q-20 -51 -28.5 -102.5t-12.5 -104.5q-2 -23 -29 -31t-66 -8l-16 14q-4 37 -6 79t-2 100q0 41 24.5 78.5t71.5 78.5l168 148q117 100 117 225 q0 90 -58.5 148.5t-146.5 58.5q-127 0 -236 -109q-43 14 -55 68zM141 70q0 47 37 85t88 38q41 0 71 -28t30 -69q0 -47 -38 -86t-89 -39q-41 0 -70 28t-29 71z" />
<glyph unicode="@" horiz-adv-x="1730" d="M76 303q0 223 76.5 410.5t209 325t309.5 214t380 76.5q141 0 254.5 -51t192.5 -142.5t122 -218t43 -280.5q0 -170 -40 -295t-109.5 -207t-164 -122t-204.5 -38q-35 0 -56.5 17.5t-35 42t-19.5 54.5t-8 56q-92 -84 -187.5 -131t-185.5 -47q-63 0 -99 41t-52 105 q-14 49 -20.5 108.5t-6.5 112.5q0 123 28.5 240.5t86 208.5t143.5 147.5t199 56.5q80 0 167 -17.5t158 -51.5l-108 -812q80 -2 160 25t143 76q31 74 54.5 167t23.5 216t-35 234.5t-102.5 195.5t-167 134t-228.5 50q-117 0 -241.5 -38t-233.5 -109q-164 -154 -238.5 -327 t-74.5 -372q0 -129 39 -240.5t112.5 -192.5t178 -128t235.5 -47q100 0 181 11.5t171 39.5q10 -14 17.5 -34.5t3.5 -42.5q-84 -45 -191.5 -74t-234.5 -29q-150 0 -269.5 51.5t-202.5 141.5t-128 216t-45 273zM618 389q0 -111 17.5 -187.5t48.5 -109.5q72 0 164 42t184 112 l76 579q-49 18 -105.5 31.5t-119.5 13.5q-23 0 -48.5 -4t-52.5 -14q-35 -27 -64.5 -75t-51 -110.5t-35 -133t-13.5 -144.5z" />
<glyph unicode="A" horiz-adv-x="1193" d="M-106 82q82 10 157 39l551 1235q41 16 77 21t81 5l252 -1261q35 -4 73.5 -15.5t65.5 -23.5q-4 -45 -25 -84q-18 2 -48.5 3t-63.5 1h-111q-59 0 -114.5 -2t-118.5 -2q-6 23 -6 42t4 42l186 41l-68 350q-78 4 -157.5 5t-149.5 1h-141l-156 -356l166 -41q-2 -41 -22 -84 q-20 2 -50 3t-61 1h-96q-45 0 -100.5 -2t-122.5 -2q-5 22 -5 47q0 18 3 37zM385 588h379l-100 516l8 131h-2z" />
<glyph unicode="B" horiz-adv-x="1134" d="M4 40q0 19 4 42q45 4 86 14.5t88 24.5q10 29 15.5 60.5t9.5 64.5l123 999q-39 -4 -75 -12t-75 -19q-14 18 -18 42t-4 49q141 41 271 60t237 19q178 0 262 -80.5t84 -203.5q0 -102 -58.5 -189.5t-154.5 -142.5q117 -41 174 -123t57 -190q0 -84 -31.5 -167t-91 -148.5 t-142.5 -105.5t-185 -40q-70 0 -151 4t-175 4q-59 0 -118.5 -2t-125.5 -2q-6 23 -6 42zM332 111h203q76 0 140 13t105 30q51 43 78 104t27 121q0 53 -15.5 105.5t-48.5 93t-85 65.5t-128 25q-53 0 -102 -2t-107 -11zM412 766q113 14 233 18q49 12 89 38t70 61t46 78t16 88 q0 51 -19.5 93t-52 70.5t-75.5 44t-90 15.5h-70q-39 0 -84 -4z" />
<glyph unicode="C" horiz-adv-x="1128" d="M88 551q0 166 47 320.5t136 272.5t217 188.5t290 70.5q104 0 192 -13t160 -36q-12 -98 -34.5 -181t-57.5 -174q-23 -4 -44 -2t-38 15q4 58 8 120q2 33 3 67q0 30 -2 61q-57 10 -117 15t-125 5q-61 0 -124.5 -16.5t-123.5 -49.5q-49 -45 -94 -107.5t-78 -138t-52.5 -161.5 t-19.5 -178q0 -102 21.5 -197.5t69 -169.5t125 -119t188.5 -45q82 0 166 30t176 79q37 -25 37 -76q-104 -76 -218 -122t-231 -46q-119 0 -208 47t-149.5 128t-90 187.5t-29.5 225.5z" />
<glyph unicode="D" horiz-adv-x="1275" d="M0 38.5q0 20.5 4 43.5q45 4 86 14t88 25q10 29 15.5 60.5t9.5 66.5l133 997q-47 -6 -90 -13t-88 -18q-14 20 -18.5 43t-4.5 48q154 43 288 61t226 18q266 0 401.5 -142t135.5 -413q0 -158 -46 -308t-130 -267t-200 -188.5t-253 -71.5q-70 0 -139.5 4t-167.5 4 q-63 0 -120.5 -2t-123.5 -2q-6 20 -6 40.5zM328 111h188q86 0 156.5 17t126.5 42q109 102 175 256t66 344q0 94 -24.5 184t-75.5 161t-130.5 114t-188.5 43q-61 0 -142 -6z" />
<glyph unicode="E" horiz-adv-x="1103" d="M0 40q0 19 4 42q45 4 86 14t88 25q10 29 15.5 60.5t9.5 64.5l133 1014l-172 8q-4 29 -4 51t8 51h651q66 0 127.5 1t110.5 3l12 -12q-8 -78 -23.5 -167t-35.5 -167q-19 -8 -39 -8q-23 0 -47 10q4 61 4 118.5t-8 111.5h-443l-65 -506q98 6 195.5 13t219.5 11l11 -14 q2 -12 2 -24q0 -32 -16 -56q-22 -33 -50 -33q-102 4 -189 6t-186 2l-71 -546h477q29 61 52.5 122.5t45.5 126.5q15 4 31 4q26 0 55 -10q-10 -92 -26.5 -179t-38.5 -165l-13 -14q-90 4 -213 4h-454q-59 0 -117.5 -2t-120.5 -2q-6 23 -6 42z" />
<glyph unicode="F" horiz-adv-x="1021" d="M0 40q0 19 4 42q45 4 86 14t88 25q10 29 15.5 60.5t9.5 64.5l133 1014l-172 8q-4 29 -4 51t8 51h651q66 0 128.5 1t109.5 3l12 -12q-8 -80 -23.5 -170t-37.5 -184q-19 -8 -39 -8q-23 0 -47 10q5 62 5 116v18q-1 62 -7 116h-443l-69 -535q98 6 195 12t220 11l11 -13 q2 -13 2 -25q0 -32 -16 -56q-22 -32 -50 -33q-102 4 -189 6t-186 2l-45 -338q-6 -45 -9 -87t-5 -83q47 -4 98 -14.5t86 -24.5q-4 -45 -24 -84q-20 2 -53 3t-70 1h-121q-59 0 -119.5 -2t-126.5 -2q-6 23 -6 42z" />
<glyph unicode="G" horiz-adv-x="1232" d="M88 547q0 154 46 306.5t137 274t226.5 198.5t311.5 77q115 0 207 -15.5t153 -37.5q-10 -78 -31.5 -162t-52.5 -160q-23 -6 -49 -3t-41 13q4 59 7 112q3 35 3 68q0 20 -1 39q-57 10 -116 16.5t-136 6.5q-74 0 -148 -20.5t-115 -45.5q-39 -39 -84 -92t-83.5 -124.5 t-64.5 -164.5t-26 -210q0 -106 22.5 -202.5t73 -170.5t130.5 -117t194 -43q45 0 100.5 8t114.5 25l15 98q10 92 15 153.5t9 121.5q-37 12 -83 23t-93 16q6 45 27 81q80 0 160.5 -2t134.5 -2l12 -14l-68 -528q-86 -43 -195.5 -72t-232.5 -29t-213 45t-149.5 123t-88 183.5 t-28.5 226.5z" />
<glyph unicode="H" horiz-adv-x="1456" d="M-2 40q0 19 4 42q45 4 86 14t88 25q10 29 15.5 60.5t9.5 64.5l96 723q12 92 18.5 158.5t10.5 123.5q-43 14 -82 24.5t-84 14.5q4 23 9 42.5t17 41.5q66 0 121 -2t115 -2h110q33 0 63 1t50 3q5 -20 5 -41t-5 -43q-39 -14 -77 -24.5t-85 -14.5q-10 -57 -21 -123.5 t-24 -158.5l-26 -195h669l27 195q12 92 18.5 158.5t10.5 123.5q-43 14 -82 24.5t-84 14.5q4 23 9 42.5t17 41.5q66 0 121.5 -2t114.5 -2h110q33 0 63 1t50 3q5 -20 5 -41t-5 -43q-39 -14 -77 -24.5t-85 -14.5q-10 -57 -21 -123.5t-24 -158.5l-90 -678q-6 -45 -9 -87t-5 -83 q47 -4 83 -14.5t70 -24.5q-4 -45 -24 -84q-20 2 -50 3t-63 1h-112q-59 0 -113.5 -2t-120.5 -2q-6 23 -6 42t4 42q45 4 86 14t88 25q10 29 15.5 60.5t9.5 64.5l55 411q-104 4 -202.5 7.5t-200.5 3.5h-267l-49 -377q-6 -45 -9 -87t-5 -83q47 -4 83 -14.5t70 -24.5 q-4 -45 -24 -84q-20 2 -50 3t-63 1h-112q-59 0 -113.5 -2t-120.5 -2q-6 23 -6 42z" />
<glyph unicode="I" horiz-adv-x="647" d="M-2 40q0 19 4 42q45 4 86 14t88 25q10 29 15.5 60.5t9.5 64.5l96 723q12 92 18.5 158.5t10.5 123.5q-43 14 -82 24.5t-84 14.5q4 23 9 42.5t17 41.5q66 0 121 -2t115 -2h110q33 0 63 1t50 3q5 -20 5 -41t-5 -43q-39 -14 -77 -24.5t-85 -14.5q-10 -57 -21 -123.5 t-24 -158.5l-90 -678q-6 -45 -9 -87t-5 -83q47 -4 83 -14.5t70 -24.5q-4 -45 -24 -84q-20 2 -50 3t-63 1h-112q-59 0 -113.5 -2t-120.5 -2q-6 23 -6 42z" />
<glyph unicode="J" horiz-adv-x="583" d="M-205 -352q80 31 140.5 67.5t103.5 89t69.5 122t38.5 161.5l117 881q12 92 18.5 158.5t10.5 123.5q-43 14 -82 24.5t-84 14.5q4 23 9 42.5t18 41.5q66 0 121 -2t114 -2h111q33 0 62.5 1t49.5 3q5 -20 5 -41t-5 -43q-39 -14 -76.5 -24.5t-84.5 -14.5q-10 -57 -21.5 -123.5 t-23.5 -158.5l-119 -924q-16 -125 -58.5 -211t-104 -142.5t-140 -87t-166.5 -44.5q-14 12 -21.5 35.5t-1.5 52.5z" />
<glyph unicode="K" horiz-adv-x="1224" d="M-2 40q0 19 4 42q45 4 86 14t88 25q10 29 15.5 60.5t9.5 64.5l96 723q12 92 18.5 158.5t10.5 123.5q-43 14 -82 24.5t-84 14.5q4 23 9 42.5t17 41.5q66 0 121 -2t115 -2h110q33 0 63 1t50 3q5 -20 5 -41t-5 -43q-39 -14 -77 -24.5t-85 -14.5q-10 -57 -21 -123.5 t-24 -158.5l-37 -281l207 103l377 458l-176 39q4 23 9 43.5t18 42.5q59 0 110 -2t94 -2h105q35 0 68.5 1t56.5 3q7 -21 7 -44q0 -19 -5 -40q-33 -14 -70 -24.5t-78 -14.5l-411 -497q51 -135 110.5 -275.5t137.5 -281.5q27 -49 73.5 -71t85.5 -22q12 0 26.5 2.5t29.5 6.5 q18 -27 18 -54q0 -18 -8 -36q-20 -10 -48 -17.5t-57.5 -13.5t-57.5 -9t-50 -3q-31 0 -58.5 19t-54 53t-51.5 81t-51 100q-51 104 -90 208t-78 214l-205 -86l-37 -278q-6 -45 -9 -87t-5 -83q47 -4 83 -14.5t70 -24.5q-4 -45 -24 -84q-20 2 -50 3t-63 1h-112q-59 0 -113.5 -2 t-120.5 -2q-6 23 -6 42z" />
<glyph unicode="L" horiz-adv-x="1073" d="M2 82q41 4 85 14t89 25q10 29 15.5 60.5t9.5 64.5l96 723q12 92 18.5 158.5t10.5 123.5q-41 14 -81 24.5t-85 14.5q4 23 9 42.5t17 41.5q66 0 129.5 -2t126.5 -2h115q35 0 65.5 1t49.5 3q8 -20 9 -40.5t-3 -43.5q-47 -14 -94 -24.5t-101 -14.5q-10 -57 -21 -123.5 t-24 -158.5l-112 -856h477q27 66 52.5 131t49.5 135q23 6 42.5 4t41.5 -10q-25 -190 -65 -361l-15 -14q-45 2 -102 3t-119 1h-446q-57 0 -116.5 -2t-121.5 -2q-5 22 -5 47q0 18 3 37z" />
<glyph unicode="M" horiz-adv-x="1722" d="M-50 37.5q-1 21.5 3 44.5q43 4 86 14t92 27l236 1128q-47 14 -89 24.5t-83 14.5q4 23 9 42.5t15 41.5q63 0 116.5 -2t98.5 -2q35 0 74 -2t82 -6l182 -1047v-170h2l522 1219q45 4 79 5t71 1h119q35 0 65.5 1t50.5 3q4 -20 4.5 -40.5t-4.5 -43.5q-70 -27 -168 -39 l-55 -1130q47 -4 86 -14.5t72 -24.5q-4 -47 -21 -84q-18 2 -50 3t-66 1h-115q-57 0 -113.5 -2t-117.5 -2q-8 23 -8.5 42t3.5 42l179 39l47 962l18 166h-4l-530 -1233q-47 -14 -86 -19t-80 -7l-185 1087l-4 172h-4l-235 -1128l157 -39q-4 -45 -24 -84q-18 2 -47 3t-60 1h-96 q-49 0 -103.5 -2t-113.5 -2q-6 18 -7 39.5z" />
<glyph unicode="N" horiz-adv-x="1439" d="M-2 40q0 19 4 42q41 4 85 14t89 25q10 29 15.5 60.5t9.5 64.5l96 723q12 92 18.5 158.5t10.5 123.5q-41 14 -83 24.5t-83 14.5q4 23 9 42.5t17 41.5q63 0 116.5 -2t100.5 -2q39 0 81 -2t71 -6l436 -1030l41 -168h2l107 805q12 96 18 160.5t10 121.5q-41 14 -81.5 24.5 t-81.5 14.5q4 23 9 42.5t17 41.5q61 0 116.5 -2t104.5 -2h103q33 0 62.5 1t49.5 3q5 -20 5 -41t-5 -43q-35 -14 -76.5 -24.5t-84.5 -14.5q-12 -57 -22.5 -123.5t-22.5 -158.5l-125 -953q-41 -10 -84 -17t-84 -9l-465 1093l-45 168h-2l-127 -960q-6 -45 -9.5 -87t-5.5 -83 q43 -4 82 -14.5t72 -24.5q-4 -45 -25 -84q-18 2 -47.5 3t-60.5 1h-103q-49 0 -108 -2t-121 -2q-6 23 -6 42z" />
<glyph unicode="O" horiz-adv-x="1316" d="M88 547q0 166 46 321.5t133 275.5t213 192.5t286 72.5q115 0 202 -45t145 -123t87 -184.5t29 -231.5q0 -166 -46 -321.5t-133 -275t-213 -192.5t-286 -73q-115 0 -202 44t-145.5 123t-87 185.5t-28.5 231.5zM231 621q0 -109 21.5 -206.5t69 -170t121 -115.5t175.5 -43 q53 0 111.5 17.5t112.5 46.5q37 33 79 87t78.5 128.5t61 172t24.5 214.5q0 109 -21.5 206t-68.5 169.5t-120.5 115.5t-176.5 43q-53 0 -111.5 -17.5t-111.5 -45.5q-37 -33 -79 -87.5t-78.5 -129t-61.5 -172t-25 -213.5z" />
<glyph unicode="P" horiz-adv-x="1093" d="M4 40q0 19 4 42q45 4 86 14t88 25q10 29 15.5 60.5t9.5 64.5l123 999q-43 -6 -86 -13t-84 -18q-14 18 -18.5 42t-4.5 49q139 39 259 59t249 20q199 0 310.5 -87t111.5 -250q0 -111 -40 -207.5t-109.5 -168t-162.5 -113.5t-198 -42q-90 0 -172 19l-31 -244q-6 -45 -9 -87 t-5 -83q47 -4 98 -14.5t86 -24.5q-4 -45 -24 -84q-20 2 -53 3t-70 1h-121q-59 0 -119.5 -2t-126.5 -2q-6 23 -6 42zM397 643q39 -4 70 -4h55q80 0 146.5 13.5t115.5 35.5q70 55 103 133t33 168q0 57 -19.5 108.5t-58.5 90.5t-99.5 61.5t-140.5 22.5q-51 0 -127 -6z" />
<glyph unicode="Q" horiz-adv-x="1316" d="M88 547q0 166 46 321.5t133 275.5t213 192.5t286 72.5q115 0 202 -45t145 -123t87 -184.5t29 -231.5q0 -166 -46 -321.5t-133 -275t-214 -193.5q-92 -51 -203 -66q51 -114 106 -180q80 -92 158 -92q53 0 100 13.5t93 35.5q18 -12 28 -29.5t15 -35.5q-63 -49 -149.5 -79 t-174.5 -30q-104 0 -205 123q-82 98 -147 276q-59 10 -109 35q-86 45 -144.5 124t-87 185.5t-28.5 231.5zM231 621q0 -109 21.5 -206.5t69 -170t121 -115.5t175.5 -43q53 0 111.5 17.5t112.5 46.5q37 33 79 87t78.5 128.5t61 172t24.5 214.5q0 109 -21.5 206t-68.5 169.5 t-120.5 115.5t-176.5 43q-53 0 -111.5 -17.5t-111.5 -45.5q-37 -33 -79 -87.5t-78.5 -129t-61.5 -172t-25 -213.5z" />
<glyph unicode="R" horiz-adv-x="1146" d="M4 40q0 19 4 42q45 4 86 14t88 25q10 29 15.5 60.5t9.5 64.5l123 999q-43 -6 -86 -13t-84 -18q-14 18 -18.5 42t-4.5 49q139 39 259 59t249 20q199 0 310.5 -85t111.5 -236q0 -76 -22.5 -143.5t-64.5 -125t-99.5 -101.5t-124.5 -70q23 -111 55.5 -225.5t67.5 -198.5 q23 -53 55.5 -74t85.5 -21q14 0 28.5 2.5t30.5 6.5q16 -26 16 -51q0 -20 -10 -39q-43 -18 -103 -30.5t-128 -12.5q-43 0 -77 53t-61.5 139t-50 195.5t-42.5 222.5q-16 -2 -33 -3t-33 -1q-45 0 -85 4t-79 12l-39 -311q-6 -45 -9 -87t-5 -83q47 -4 83 -14.5t71 -24.5 q-4 -45 -25 -84q-20 2 -49 3t-60 1h-104q-59 0 -119.5 -2t-126.5 -2q-6 23 -6 42zM406 713q37 -4 65 -4h51q94 0 161 14t101 29q70 49 103 119.5t33 148.5q0 51 -19.5 96t-58.5 80t-99.5 55.5t-140.5 20.5q-51 0 -127 -6z" />
<glyph unicode="S" horiz-adv-x="1021" d="M2 57q16 84 36.5 166t51.5 170q25 6 46.5 4t43.5 -10q-4 -59 -7 -123q-1 -28 -1 -56q0 -37 2 -75q51 -18 110.5 -29.5t118.5 -11.5q78 0 138.5 16.5t107.5 45.5q47 47 71.5 111.5t24.5 135.5q0 78 -51 132.5t-116 82.5l-132 56q-49 20 -100 46.5t-94 64.5t-70.5 89.5 t-27.5 120.5q0 104 38.5 182t104 128.5t149.5 75t177 24.5q86 0 181 -17.5t171 -58.5q-10 -78 -29.5 -147.5t-50.5 -141.5q-23 -6 -45.5 -4t-38.5 13q3 42 3 84v20q-1 51 -7 100q-98 29 -227 29q-66 0 -115 -10t-84 -25q-35 -33 -59.5 -78t-24.5 -112q0 -43 15.5 -78 t40 -62.5t56 -47t64.5 -33.5l162 -70q47 -20 93 -47t83 -64t59.5 -83t22.5 -105q0 -102 -33 -192.5t-94 -158t-151.5 -106.5t-206.5 -39q-119 0 -226.5 23.5t-179.5 64.5z" />
<glyph unicode="T" horiz-adv-x="1157" d="M96 1010q2 92 10.5 184t20.5 168l16 12q96 -4 217 -4h615q123 0 219 4l12 -12q-8 -78 -24.5 -169t-38.5 -183q-23 -10 -45.5 -9.5t-40.5 9.5q6 72 6 131t-6 119h-334l-127 -969q-6 -45 -9 -87t-5 -83q47 -4 98 -14.5t86 -24.5q-4 -45 -25 -84q-20 2 -55 3t-74 1h-127 q-59 0 -128.5 -2t-135.5 -2q-6 23 -6 42t4 42q45 4 101.5 14t103.5 25q10 29 15 60.5t10 64.5l133 1014h-334q-23 -61 -39 -126t-27 -124q-18 -8 -42.5 -9.5t-43.5 9.5z" />
<glyph unicode="U" horiz-adv-x="1341" d="M104 1290q6 43 27 84q63 0 118.5 -2t112.5 -2h113q33 0 63.5 1t51.5 3q5 -20 5 -41t-5 -43q-37 -14 -78 -24.5t-84 -14.5q-20 -104 -45 -282l-55 -437q-4 -39 -8.5 -72.5t-4.5 -62.5q0 -160 69 -235.5t245 -75.5q78 0 139 24.5t115 59.5q41 53 72.5 126t45.5 175l66 498 q10 78 17.5 151.5t11.5 130.5q-82 29 -166 39q4 20 9 42t17 42q61 0 120 -2t122 -2h94q29 0 55.5 1t45.5 3q5 -20 5 -41t-5 -43q-37 -14 -77 -24.5t-85 -14.5q-10 -57 -22.5 -135t-22.5 -147l-64 -482q-33 -246 -175 -385t-400 -139q-190 0 -283.5 92t-93.5 303q0 29 3 62 t5 59l64 490q12 92 18 158.5t10 123.5q-41 14 -83 24.5t-83 14.5z" />
<glyph unicode="V" horiz-adv-x="1175" d="M29 1290q4 23 9 42.5t17 41.5q63 0 117.5 -2t110.5 -2h112q33 0 63.5 1t49.5 3q7 -21 7 -44q0 -19 -5 -40l-176 -41l184 -960v-152h2l486 1112l-177 41q4 25 9.5 44.5t15.5 39.5q63 0 120.5 -2t98.5 -2h98q31 0 61 1t50 3q6 -25 6 -48q0 -19 -4 -36q-72 -29 -149 -39 l-551 -1235q-37 -16 -74 -21t-78 -5l-254 1261q-37 14 -73.5 24.5t-75.5 14.5z" />
<glyph unicode="W" horiz-adv-x="1742" d="M29 1290q4 23 9 42.5t17 41.5q63 0 118.5 -2t113.5 -2h112q33 0 64 1t49 3q7 -21 7 -44q0 -19 -5 -40l-176 -41l106 -960l-4 -148h2l449 1215q39 14 82 20t78 6l116 -1093l-4 -148h2l406 1108l-176 41q4 25 9 44.5t15 39.5q63 0 120.5 -2t102.5 -2h99q31 0 60.5 1t49.5 3 q6 -25 6 -48q0 -19 -4 -36q-35 -14 -71.5 -24.5t-77.5 -14.5l-465 -1233q-41 -16 -90 -22t-92 -6l-115 1022l2 157h-2l-416 -1153q-41 -16 -95 -21t-101 -5l-152 1261q-37 14 -73.5 24.5t-75.5 14.5z" />
<glyph unicode="X" horiz-adv-x="1181" d="M-108.5 40q-0.5 19 4.5 42q41 4 77.5 14t79.5 25l455 590l-291 540q-35 14 -74 24.5t-75 14.5q4 23 9 42.5t17 41.5q61 0 118.5 -2t117.5 -2h108q63 0 129 4q5 -20 5 -41t-5 -43l-180 -41l231 -434l328 434l-172 41q4 23 9 42.5t18 41.5q63 0 115.5 -2t97.5 -2h100 q33 0 64.5 1t54.5 3q5 -20 5 -41t-5 -43q-33 -14 -69 -24.5t-77 -14.5l-415 -534l321 -596q39 -4 73 -14.5t67 -24.5q-4 -45 -25 -84q-20 2 -51 3t-66 1h-129q-59 0 -115.5 -2t-113.5 -2q-6 23 -6 42t4 42l192 41l-260 483l-370 -483l169 -41q-4 -45 -24 -84q-18 2 -48 3 t-61 1h-100q-47 0 -102.5 -2t-128.5 -2q-6 23 -6.5 42z" />
<glyph unicode="Y" horiz-adv-x="1130" d="M29 1290q2 20 7 41t17 43q59 0 115.5 -2t118.5 -2h119q33 0 60.5 1t45.5 3q7 -21 7 -44q0 -20 -5 -40l-180 -39l229 -610l387 608l-182 41q4 23 9 42.5t20 41.5q66 0 124 -2t103 -2h100q33 0 65 1t52 3q5 -20 5 -41t-5 -43q-35 -14 -71.5 -24.5t-77.5 -14.5l-478 -741 l-28 -219q-6 -45 -9.5 -87t-5.5 -83q47 -4 98.5 -14.5t86.5 -24.5q-4 -45 -25 -84q-20 2 -55 3t-74 1h-127q-59 0 -129 -2t-135 -2q-6 23 -6 42t4 42q45 4 101.5 14t103.5 25q10 29 15 60.5t9 64.5l31 243l-291 762q-37 14 -73.5 24.5t-75.5 14.5z" />
<glyph unicode="Z" horiz-adv-x="1157" d="M-4 119l942 1141h-602q-23 -59 -36 -112.5t-26 -113.5q-18 -8 -42.5 -9t-43.5 9q2 92 8.5 172t18.5 156l16 12q96 -4 218 -4h630q16 -25 25.5 -52.5t13.5 -64.5l-948 -1140h674q29 61 52.5 122.5t45.5 126.5q15 4 31 4q26 0 55 -10q-10 -92 -26.5 -179t-38.5 -165 l-13 -14q-90 4 -213 4h-735q-8 37 -8 76q0 20 2 41z" />
<glyph unicode="[" horiz-adv-x="714" d="M115 -414l278 2143l15 14q86 -4 186 -5t207 -1q4 -25 1 -48.5t-14 -48.5q-70 -10 -146.5 -16t-133.5 -6l-250 -1921q59 -2 129 -7t143 -16q4 -25 0 -48t-12 -48q-106 0 -205.5 -1t-185.5 -5z" />
<glyph unicode="\" horiz-adv-x="876" d="M195 1352q-4 20 7 35.5t28.5 26.5t37 18.5t29.5 7.5l16 -13l310 -1550q4 -20 -7.5 -36.5t-29 -28t-36 -17.5t-30.5 -6l-16 12z" />
<glyph unicode="]" horiz-adv-x="714" d="M-93 -373.5q3 23.5 13 47.5q70 10 146.5 16.5t134.5 6.5l250 1921q-59 2 -129 7t-144 15q-4 25 0 48.5t12 48.5q106 0 206 1t186 5l12 -14l-279 -2143l-14 -14q-86 4 -186.5 5t-206.5 1q-4 25 -1 48.5z" />
<glyph unicode="^" horiz-adv-x="1017" d="M131 823l412 527q6 8 20.5 12t29.5 4t27.5 -3t16.5 -9l281 -523q-16 -20 -40 -35.5t-59 -25.5l-254 399l-360 -399q-27 6 -45.5 21.5t-28.5 31.5z" />
<glyph unicode="_" horiz-adv-x="1118" d="M-29 -242l11 103h1022l-13 -103h-1020z" />
<glyph unicode="`" horiz-adv-x="849" d="M186 1389q-6 10 0.5 27.5t21.5 33.5t38.5 28.5t56.5 16.5q49 -100 104.5 -189t139.5 -188q-6 -18 -20.5 -29.5t-30.5 -17.5q-123 82 -199 165t-111 153z" />
<glyph unicode="a" horiz-adv-x="1015" d="M68 334q0 123 28.5 240.5t86 208.5t142.5 147.5t197 56.5q80 0 170 -17t162 -52q-8 -29 -12 -55.5t-8 -49.5l-93 -686q53 10 102.5 25.5t90.5 35.5q27 -20 37 -55q-25 -29 -61 -57.5t-74.5 -51t-76.5 -36t-65 -13.5q-20 0 -33.5 16.5t-22.5 42t-13 56.5t-7 57 q-92 -84 -188 -132t-186 -48q-63 0 -99 41t-53 105q-14 49 -19 108.5t-5 112.5zM209 389q0 -111 17 -187.5t48 -109.5q72 0 164 42t185 112l75 579q-49 18 -105 31.5t-120 13.5q-23 0 -48.5 -4t-51.5 -14q-35 -27 -64.5 -75t-51 -110.5t-35 -133t-13.5 -144.5z" />
<glyph unicode="b" horiz-adv-x="970" d="M102 84q8 29 12.5 55.5t8.5 48.5l158 1235q-43 10 -85 12.5t-90 2.5q-12 27 0 61q51 29 108.5 43t107.5 14q51 0 71.5 -28.5t20.5 -85.5q0 -10 -1 -26.5t-3 -29.5l-74 -575q92 80 185 125t184 45q66 0 104.5 -39t54.5 -102q14 -49 18.5 -108.5t4.5 -113.5 q0 -123 -29 -239.5t-86 -208.5t-143 -147.5t-201 -55.5q-70 0 -158 28t-168 89zM252 152q111 -68 227 -68q23 0 47.5 4t51.5 14q33 27 63.5 75t54 109.5t36.5 133.5t13 143q0 115 -18 190.5t-49 106.5q-72 0 -167 -41t-189 -112z" />
<glyph unicode="c" horiz-adv-x="770" d="M68 362q0 143 39.5 259t107.5 196t157 123t187 43q94 0 141.5 -26t65.5 -46q6 -6 -3 -22.5t-25.5 -33.5t-38 -32.5t-42.5 -23.5q-41 31 -91 46t-103 15q-41 0 -72 -8q-80 -59 -131 -166.5t-51 -232.5q0 -117 25.5 -212.5t72.5 -148.5q86 10 170 34t182 67q27 -25 31 -64 q-102 -66 -213.5 -114t-202.5 -48q-111 0 -163 137q-20 53 -31.5 122t-11.5 136z" />
<glyph unicode="d" horiz-adv-x="1024" d="M68 330q0 123 28.5 239.5t86 208.5t142.5 147.5t197 55.5q45 0 96.5 -7t104.5 -24l61 473q-43 10 -99 12.5t-103 2.5q-12 27 0 61q51 29 121.5 43t119.5 14q96 0 97 -114q0 -10 -1 -26.5t-4 -29.5l-165 -1259q53 10 102 25.5t90 35.5q27 -20 37 -55q-25 -29 -60.5 -57.5 t-74.5 -51t-77 -36t-65 -13.5q-20 0 -33.5 18.5t-22.5 45.5t-14 57.5t-7 57.5q-92 -86 -190.5 -136.5t-190.5 -50.5q-63 0 -99 41t-53 105q-14 49 -19 106t-5 111zM209 385q0 -115 17 -187.5t48 -105.5q72 0 167.5 44t189.5 118l74 557q-59 25 -116 39t-116 14 q-23 0 -48.5 -4t-51.5 -14q-35 -27 -64.5 -75t-51 -109.5t-35 -132t-13.5 -144.5z" />
<glyph unicode="e" horiz-adv-x="811" d="M68 362q0 145 37.5 261t102 197t149.5 124t178 43q61 0 104 -23.5t70.5 -64.5t41 -95.5t13.5 -115.5q0 -35 -45 -72.5t-122 -77.5t-176 -80t-210 -77q6 -94 30.5 -169t65.5 -120q47 6 93 17.5t95.5 29t103.5 41t122 56.5q27 -25 31 -64q-145 -98 -268.5 -151.5 t-209.5 -53.5q-111 0 -163 137q-20 53 -31.5 122t-11.5 136zM209 481q139 53 237.5 102.5t165.5 96.5q0 39 -8 75t-24.5 62.5t-43 43t-63.5 16.5q-53 -1 -94 -21q-68 -53 -116 -155.5t-54 -219.5z" />
<glyph unicode="f" horiz-adv-x="581" d="M51 -508q29 162 53.5 330t47.5 348l65 514q4 43 10 83t11 77h-183q0 18 1 37.5t4 37t10.5 28.5t21.5 11h160l39 269q12 78 46 139t83 103t111.5 64.5t134.5 22.5q78 0 131 -21.5t80 -49.5q6 -8 -1.5 -25.5t-22.5 -37t-35.5 -37t-41.5 -25.5q-41 31 -92 52.5t-104 21.5 q-25 0 -44.5 -4.5t-37.5 -12.5q-18 -16 -35 -63t-30 -111.5t-25.5 -139.5t-22.5 -145q59 -2 111.5 -5t105.5 -7q0 -27 -4 -53.5t-16 -48.5h-211q-2 -10 -3 -18.5t-1 -16.5l-64 -506q-23 -186 -46.5 -390t-43.5 -394q-4 -23 -49 -35q-30 -8 -64 -8q-16 0 -34 2z" />
<glyph unicode="g" horiz-adv-x="929" d="M-12 -428q0 25 13 60.5t52 64.5h21q39 -61 105.5 -88t148.5 -27q47 0 95 15.5t77 40.5q35 96 58.5 231t39.5 268q-88 -78 -178 -121t-176 -43q-63 0 -99 41t-53 105q-14 49 -19 106.5t-5 110.5q0 123 28.5 239.5t86 209t142.5 147.5t197 55q61 0 140.5 -12t181.5 -57 q-8 -29 -12.5 -55.5t-8.5 -49.5l-69 -520q-16 -117 -30.5 -229.5t-37.5 -235.5q-14 -72 -44 -139.5t-80 -119.5t-121.5 -83t-166.5 -31q-92 0 -165.5 24.5t-110.5 61.5q-10 10 -10 31zM209 391q0 -111 17 -185.5t48 -107.5q68 0 157 40t181 106l76 583q-109 43 -215 43 q-23 0 -48.5 -4t-51.5 -14q-35 -27 -64.5 -75t-51 -109.5t-35 -132t-13.5 -144.5z" />
<glyph unicode="h" horiz-adv-x="1052" d="M98 8q16 80 30.5 168t28 176t25 173t21.5 161l96 737q-43 10 -86 12.5t-90 2.5q-12 27 0 61q51 29 108.5 43t106.5 14q96 0 96 -114q0 -10 -1 -26.5t-3 -29.5l-74 -567v-2q98 82 195.5 126t181.5 44q86 0 126 -58.5t40 -140.5q0 -53 -9 -124.5t-24.5 -157.5t-35 -182.5 t-42.5 -196.5q53 10 102.5 25.5t90.5 35.5q27 -20 37 -55q-25 -29 -60.5 -57.5t-74.5 -51t-77 -36t-65 -13.5q-49 0 -71.5 37t-22.5 78q0 29 6 64q20 96 39 190t33 173t22.5 137.5t8.5 80.5q0 47 -9.5 83t-37.5 50q-78 -10 -173.5 -50t-195.5 -111q-23 -166 -44.5 -339 t-39.5 -333q-4 -23 -47 -35q-29 -8 -62 -8q-17 0 -34 2z" />
<glyph unicode="i" horiz-adv-x="559" d="M63 860q-12 27 0 62q47 27 107.5 42t114.5 15q94 0 94 -107q0 -16 -1 -31.5t-3 -31.5l-105 -682q53 10 102.5 25.5t90.5 35.5q27 -20 37 -55q-25 -29 -61 -57.5t-75.5 -51t-77.5 -36t-65 -13.5q-49 0 -71.5 37t-22.5 78q0 16 2 36.5t6 43.5q10 72 21.5 141.5t24 148.5 t26.5 172t31 214q-41 8 -87.5 11t-87.5 3zM203 1251q0 25 10 50.5t26.5 45t38 32t46.5 12.5q43 0 75.5 -29t32.5 -70q0 -49 -34 -91t-87 -46q-18 0 -36.5 8t-35 21.5t-26.5 31t-10 35.5z" />
<glyph unicode="j" horiz-adv-x="473" d="M-332 -461.5q0 17.5 7.5 41t22.5 47t40 41.5h20q27 -45 71 -63.5t95 -18.5q35 0 71 15.5t54 40.5q16 45 30.5 105t27 127t22.5 137.5t18 138.5l89 696q-43 10 -85 12t-90 2q-12 27 0 62q51 29 108.5 43t111.5 14q92 0 92 -107q0 -16 -1 -33.5t-3 -29.5l-68 -516 q-16 -117 -30.5 -229.5t-37.5 -235.5q-14 -72 -46.5 -139.5t-81 -119.5t-110 -83t-132.5 -31q-49 0 -100.5 13.5t-88.5 46.5q-6 6 -6 23.5zM201 1251q0 25 10 50.5t26.5 45t38 32t46.5 12.5q43 0 75.5 -29t32.5 -70q0 -49 -34 -91t-87 -46q-18 0 -36.5 8t-35 21.5t-26.5 31 t-10 35.5z" />
<glyph unicode="k" horiz-adv-x="927" d="M98 8q16 80 30.5 168t28 176t25 173t21.5 161l96 737q-43 10 -86 12.5t-90 2.5q-12 27 0 61q51 29 108.5 43t106.5 14q96 0 96 -114q0 -10 -1 -26.5t-3 -29.5l-74 -567l-39 -287q80 45 155 95.5t130 104.5t83 116q19 42 19 88q0 22 -4 45l15 14q78 -4 113.5 -31.5 t35.5 -56.5q0 -113 -111.5 -212t-322.5 -197l260 -377q45 6 93 22.5t89 34.5q14 -10 21.5 -25.5t11.5 -31.5q-59 -66 -117.5 -103.5t-115.5 -37.5q-35 0 -61.5 21.5t-49.5 55.5l-256 381q-14 -104 -26.5 -205.5t-22.5 -197.5q-4 -23 -47 -35q-29 -8 -62 -8q-17 0 -34 2z" />
<glyph unicode="l" horiz-adv-x="546" d="M123 90q0 16 2 38t6 54l170 1241q-43 10 -86 12.5t-90 2.5q-12 27 0 61q51 29 108.5 43t106.5 14q96 0 96 -114q0 -10 -1 -26.5t-3 -29.5l-166 -1259q53 10 102.5 25.5t90.5 35.5q27 -20 37 -55q-25 -29 -61 -57.5t-76 -51t-77.5 -36t-64.5 -13.5q-49 0 -71.5 37 t-22.5 78z" />
<glyph unicode="m" horiz-adv-x="1554" d="M57 860q-12 27 0 62q51 29 108.5 43t106.5 14q96 0 97 -115q0 -8 -1 -18t-1 -21q92 78 176 120t166 42q78 0 119.5 -52t45.5 -128q98 86 187.5 133t175.5 47t126 -58.5t40 -140.5q0 -53 -9.5 -124.5t-24.5 -157.5t-34.5 -182.5t-42.5 -196.5q53 10 102.5 25.5t90.5 35.5 q27 -20 37 -55q-25 -29 -61 -57.5t-74.5 -51t-76.5 -36t-65 -13.5q-49 0 -71.5 37t-22.5 78q0 29 6 64q20 96 38.5 190t33 173t23 137.5t8.5 80.5q0 47 -9.5 83t-38.5 50q-154 -18 -342 -161l-88 -672q-4 -23 -47 -35q-29 -8 -62 -8q-17 0 -34 2l-14 14q35 174 58.5 345 t43.5 315q4 23 5 46t1 46q0 37 -10 65.5t-39 42.5q-76 -8 -158 -47t-176 -106q-23 -162 -43 -341t-43 -339q-4 -23 -47 -35q-29 -8 -62 -8q-17 0 -34 2l-15 14q35 174 59.5 340t43.5 309l24 189q-43 10 -86 12t-90 2z" />
<glyph unicode="n" horiz-adv-x="1062" d="M57 860q-12 27 0 62q51 29 108.5 43t106.5 14q96 0 97 -115q0 -10 -1 -22.5t-3 -24.5q100 82 197 126t181 44q86 0 126 -58.5t40 -140.5q0 -53 -9 -124.5t-24.5 -157.5t-35 -182.5t-41.5 -196.5q53 10 102 25.5t90 35.5q27 -20 37 -55q-25 -29 -60.5 -57.5t-74.5 -51 t-77 -36t-64 -13.5q-49 0 -72 37t-23 78q0 29 7 64q20 96 38.5 190t33 173t22.5 137.5t8 80.5q0 47 -9 83t-38 50q-78 -10 -173 -50t-196 -111q-23 -160 -43 -336t-43 -336q-4 -23 -47 -35q-29 -8 -62 -8q-17 0 -34 2l-15 14q35 174 59.5 340t43.5 309l24 189q-43 10 -86 12 t-90 2z" />
<glyph unicode="o" horiz-adv-x="919" d="M72 367q0 131 33.5 243.5t98 196.5t158 132t211.5 48q82 0 135.5 -38t84 -97t43 -130t12.5 -134q0 -131 -34 -244t-98.5 -197t-157.5 -132t-212 -48q-84 0 -137 38t-84 97.5t-42 129t-11 135.5zM211 459q0 -176 48 -275.5t167 -99.5q41 0 80 14.5t65 30.5 q23 25 47.5 61.5t44 85t33 103.5t13.5 117q0 176 -48.5 275t-166.5 99q-41 0 -80 -14t-66 -31q-23 -25 -47.5 -61.5t-44.5 -84.5t-32.5 -103.5t-12.5 -116.5z" />
<glyph unicode="p" horiz-adv-x="997" d="M43 -508q29 162 53.5 330t46.5 348l86 676q-43 10 -85 12t-89 2q-12 27 0 62q51 29 108.5 43t106.5 14q51 0 71.5 -28.5t20.5 -86.5q0 -10 -1 -23.5t-3 -25.5q92 82 187.5 127t185.5 45q66 0 103.5 -39t54.5 -102q14 -49 19 -108.5t5 -112.5q0 -123 -29.5 -240t-87 -209 t-143 -147.5t-198.5 -55.5q-88 0 -195 47q-16 -127 -29.5 -253.5t-25.5 -247.5q-4 -23 -49 -35q-30 -8 -64 -8q-17 0 -35 2zM276 164q109 -74 228 -74q23 0 48.5 4t51.5 15q33 27 63.5 74.5t54 109t37 133.5t13.5 143q0 115 -18 186.5t-49 110.5q-72 0 -168.5 -42 t-190.5 -113l-51 -408z" />
<glyph unicode="q" horiz-adv-x="927" d="M68 336q0 123 28.5 239.5t86 209t142.5 147.5t197 55q61 0 142.5 -12t183.5 -57q-8 -29 -12.5 -55.5t-8.5 -49.5l-65 -510q-25 -186 -47.5 -390t-42.5 -394q-4 -23 -49 -35q-30 -8 -64 -8q-17 0 -35 2l-14 14q29 158 51.5 317.5t44.5 333.5q-90 -78 -183 -124t-179 -46 q-63 0 -99 41t-53 105q-14 49 -19 106.5t-5 110.5zM209 391q0 -111 17 -185.5t48 -107.5q70 0 162 41t185 111l73 575q-109 45 -221 45q-23 0 -48.5 -4t-51.5 -14q-35 -27 -64.5 -75t-51 -109.5t-35 -132t-13.5 -144.5z" />
<glyph unicode="r" horiz-adv-x="782" d="M57 860q-12 27 0 62q51 29 108.5 43t106.5 14q96 0 97 -115q0 -10 -1 -26.5t-3 -30.5q-2 -4 -3 -12q78 90 155 144t142 54q31 0 53.5 -12t38 -30.5t23.5 -39t8 -37.5q0 -12 -10 -28.5t-25.5 -31.5t-35 -27.5t-37.5 -16.5q-37 51 -80 86q-74 -41 -135.5 -88t-114.5 -109 q-20 -154 -39.5 -315.5t-40.5 -308.5q-4 -23 -47 -35q-29 -8 -62 -8q-17 0 -34 2l-15 14q35 174 59.5 340t43.5 309l24 189q-43 10 -86 12t-90 2z" />
<glyph unicode="s" horiz-adv-x="712" d="M16 78q0 29 20.5 62.5t37.5 52.5q74 -59 131 -79t127 -20q57 0 106 31q10 16 18.5 47t8.5 68q0 35 -14.5 63.5t-39 54t-55.5 48.5l-61 45q-86 59 -135 116.5t-49 143.5q0 53 25.5 102t67.5 86t95 59.5t111 22.5q45 0 87 -7t73.5 -19.5t51 -29t19.5 -32.5 q0 -29 -17.5 -64.5t-52.5 -52.5q-35 37 -87 60.5t-117 23.5q-39 0 -84 -18q-10 -14 -21.5 -37t-11.5 -53q0 -57 47 -103.5t115 -93.5q51 -35 87 -66.5t59.5 -63.5t34.5 -66.5t11 -77.5q0 -51 -21.5 -105.5t-62.5 -99.5t-102.5 -74t-141.5 -29q-70 0 -128 14.5t-93 37.5 q-39 23 -39 53z" />
<glyph unicode="t" horiz-adv-x="665" d="M55 844q0 18 1 37.5t4 37t10.5 28.5t21.5 11h154l33 281q4 23 49 35q30 8 64 8q17 0 34 -2l14 -14q-16 -74 -30.5 -155t-24.5 -153q154 0 281 -12q0 -27 -4.5 -53.5t-16.5 -48.5h-274l-92 -717q72 14 138 42t126 60q27 -20 37 -55q-31 -35 -77 -70.5t-95.5 -64.5 t-97.5 -46.5t-83 -17.5q-49 0 -71.5 37t-22.5 78q0 16 2 36.5t6 41.5q10 74 20.5 137.5t18.5 125t16.5 120.5t16.5 125l20 168h-178z" />
<glyph unicode="u" horiz-adv-x="1062" d="M72 860q-12 27 0 62q51 29 109.5 43t107.5 14q100 0 100 -115q0 -10 -1 -29.5t-5 -33.5q-20 -96 -38.5 -190.5t-33 -173.5t-22.5 -137t-8 -81q0 -47 8 -83t37 -50q70 8 153.5 44t175.5 97q12 88 23.5 181.5t23 183.5t21.5 175t20 159q4 23 44 35q27 8 60 8q16 0 34 -2 l14 -15q-31 -170 -60.5 -385t-56.5 -440q53 10 101.5 25.5t89.5 35.5q27 -20 37 -55q-25 -29 -61 -57.5t-75 -51t-76.5 -36t-64.5 -13.5q-18 0 -30.5 13.5t-21.5 35t-14.5 48t-7.5 51.5q-94 -74 -184 -115t-168 -41q-86 0 -126 58.5t-40 140.5q0 45 6.5 106.5t20.5 144.5 t34.5 189.5t49.5 239.5q-43 10 -86 12t-90 2z" />
<glyph unicode="v" horiz-adv-x="948" d="M10 866q20 25 51 45.5t64 36t64.5 24.5t54.5 9q55 0 102 -80q20 -35 36.5 -88t28 -119.5t17.5 -139.5t6 -146q0 -139 -12 -252h4q162 162 228.5 332.5t66.5 371.5q0 27 -2 52.5t-8 52.5l14 14q55 -2 96 -14.5t51 -46.5q8 -27 11.5 -57t3.5 -60q0 -86 -38 -186.5 t-101.5 -204t-147.5 -204t-178 -186.5q-10 -10 -33.5 -19t-52.5 -9q-39 0 -39 14v144q0 106 -3 199t-12.5 177t-30 161t-52.5 151q-43 -2 -84 -9.5t-82 -15.5q-23 18 -23 53z" />
<glyph unicode="w" horiz-adv-x="1425" d="M10 866q20 25 51 45.5t65 36t65.5 24.5t56.5 9q51 0 98 -80q20 -35 36.5 -88t28 -119.5t17.5 -139.5t6 -146q0 -139 -12 -252h4q104 115 178 230.5t121 252.5q-35 170 -98 309l6 21q31 8 63.5 9t62 -5t52.5 -16.5t33 -20.5q8 -8 15 -35t8 -65v-12q0 -34 -5 -78 q-6 -52 -22 -109q31 -129 43 -243.5t16 -237.5h4q162 162 228.5 332.5t66.5 371.5q0 25 -2 51.5t-8 53.5l14 14q55 -2 96 -14.5t52 -46.5q14 -55 14 -117q0 -86 -38 -186.5t-101.5 -204t-147.5 -204t-178 -186.5q-10 -10 -34.5 -19t-49.5 -9q-43 0 -43 14q2 35 3 72t1 72 q0 74 -5 152.5t-15 158.5q-59 -115 -147.5 -231.5t-184.5 -209.5q-10 -10 -34.5 -19t-53.5 -9q-39 0 -39 14v144q0 106 -3 199t-12.5 177t-30 161t-52.5 151q-43 -2 -84 -9.5t-82 -15.5q-23 18 -23 53z" />
<glyph unicode="x" horiz-adv-x="978" d="M2 98l10 19q133 59 227.5 156.5t174.5 220.5l-138 344q-43 -2 -89 -9.5t-87 -17.5q-23 18 -22 53q20 25 51 45.5t64.5 36t65.5 24.5t54 9q29 0 55.5 -27.5t43.5 -70.5l112 -285q49 86 98.5 155.5t94.5 121t86 79t76 27.5q27 0 48 -42t29 -87l-10 -19 q-125 -51 -214 -126.5t-173 -194.5l156 -389q49 2 100 11t88 18q23 -18 23 -54q-23 -27 -55.5 -48t-67.5 -36.5t-68 -23.5t-57 -8q-29 0 -55.5 27.5t-42.5 70.5l-131 325q-98 -193 -196.5 -310.5t-184.5 -117.5q-25 0 -42.5 40t-23.5 83z" />
<glyph unicode="y" horiz-adv-x="964" d="M-25 -465q0 23 30 73t78 110.5t108.5 124t121.5 114.5v137q0 219 -21.5 401.5t-92.5 342.5q-43 -2 -84 -9.5t-82 -15.5q-23 18 -23 53q20 25 51 45.5t64 36t64.5 24.5t54.5 9q55 0 102 -80q20 -37 37.5 -94t30 -126t19.5 -145.5t7 -152.5q0 -78 -3 -150.5t-7 -138.5h4 q164 176 233.5 362.5t69.5 403.5q0 27 -2 52.5t-8 52.5l14 14q55 -2 96.5 -14.5t51.5 -46.5q8 -27 11 -56.5t3 -60.5q0 -188 -122 -396t-332 -448q-117 -133 -198 -254t-138 -246l-15 -12q-43 6 -83 32.5t-40 57.5z" />
<glyph unicode="z" horiz-adv-x="841" d="M34 114q-1 26 11 42q70 86 148.5 176t160.5 177t166 170t164 155h-432q-16 -41 -26.5 -89.5t-16.5 -97.5q-16 -7 -33 -7q-15 0 -31 5q-16 49 -25 105.5t-9 95.5q0 106 137 106h506q18 0 32.5 -20.5t22.5 -48t9 -53t-11 -35.5q-174 -160 -340 -337t-305 -345l579 37 q4 -20 6.5 -40t2.5 -36q0 -72 -60 -72h-588q-14 0 -29.5 18.5t-26.5 43t-12 50.5z" />
<glyph unicode="{" horiz-adv-x="854" d="M137 686q39 20 72 38.5t60.5 36t52 37t51.5 42.5q8 8 13 31.5t9 58.5q6 45 11.5 104.5t11.5 118.5t11 111.5t9 85.5q10 84 50 150.5t101.5 117.5t140.5 85t169 54q12 -14 19.5 -36.5t3.5 -49.5q-41 -16 -83 -36.5t-80 -42t-70 -43t-50 -40.5q-8 -10 -19.5 -36.5 t-21.5 -60.5t-18.5 -67.5t-10.5 -56.5l-55 -428q-10 -61 -75.5 -107t-157.5 -89q82 -35 135 -84.5t47 -108.5l-57 -442q-4 -25 -4.5 -60t0.5 -68.5t5.5 -60t10.5 -35.5q29 -41 99.5 -85t144.5 -78q-10 -59 -48 -84q-78 18 -143 50t-112.5 77t-75 103t-27.5 132 q0 35 11.5 102.5t24.5 143.5t24.5 145.5t11.5 108.5q0 25 -6 35q-61 94 -172 155q-10 18 -12.5 38t-0.5 38z" />
<glyph unicode="|" horiz-adv-x="645" d="M111 -426l282 2167h125l-282 -2167h-125z" />
<glyph unicode="}" horiz-adv-x="854" d="M-72 -356q39 16 82 36.5t81 42t70 43t50 39.5q8 8 19.5 36t21.5 62t17 67.5t12 56.5l55 428q8 59 74.5 106t158.5 90q-84 35 -137 84t-45 109l57 442q2 25 3.5 58.5t0 67.5t-5.5 61.5t-10 35.5q-29 41 -99.5 85t-144.5 79q10 59 48 84q76 -18 142 -50t113.5 -77 t75 -103.5t27.5 -131.5q0 -35 -11.5 -102.5t-24.5 -143.5t-24.5 -145.5t-11.5 -108.5q0 -27 6 -35q33 -49 75 -85t97 -66q10 -18 12.5 -40t0.5 -40q-80 -41 -132.5 -75t-103.5 -79q-8 -8 -13 -31.5t-9 -58.5q-6 -47 -11.5 -105.5t-11.5 -118t-11 -111.5t-9 -85 q-10 -84 -50 -150.5t-101.5 -117.5t-141.5 -85t-168 -54q-12 14 -19.5 36.5t-3.5 49.5z" />
<glyph unicode="~" horiz-adv-x="983" d="M53 473q-2 10 4 16q33 27 71 51.5t77 44t73.5 31t61.5 11.5q51 0 91 -16.5t77 -39t75 -46.5t85 -38q43 4 100 29t104 57q14 -2 26.5 -11t20 -20.5t9.5 -21.5t-4 -16q-33 -27 -71 -51.5t-77 -44t-73.5 -30.5t-61.5 -11q-51 0 -91 16t-77 38.5t-76 46.5t-84 38 q-43 -4 -100 -28.5t-104 -57.5q-14 2 -26.5 11t-20 20.5t-9.5 21.5z" />
<glyph unicode="&#xa1;" horiz-adv-x="616" d="M104 -408q16 240 59.5 489t102.5 523q45 18 86 0q-4 -111 -10 -217t-14 -221q-10 -137 -24.5 -272.5t-37.5 -262.5q-4 -27 -30.5 -41t-61.5 -14q-37 0 -70 16zM231 858q0 47 38 86t91 39q45 0 74 -27.5t29 -70.5q0 -47 -38 -85t-91 -38q-45 0 -74 27.5t-29 68.5z" />
<glyph unicode="&#xa2;" horiz-adv-x="774" d="M70 385q0 119 27.5 218t75.5 175t113.5 128t141.5 77l25 186q14 2 30.5 3.5t29.5 -2t22.5 -10.5t7.5 -19l-19 -137q10 0 18.5 1t18.5 1q94 0 141.5 -26t65.5 -46q6 -6 -3 -22.5t-25.5 -34t-38 -33t-42.5 -23.5q-61 47 -151 60l-98 -750q117 25 252 84q27 -25 30 -63 q-72 -47 -149.5 -85t-149.5 -59l-22 -176q-12 -4 -28.5 -5t-31 2t-23.5 9t-7 17l16 137q-4 0 -10 -1t-11 -1q-111 0 -163 137q-20 53 -31.5 121.5t-11.5 136.5zM211 475q0 -117 25.5 -212t72.5 -148h4l101 764q-8 0 -21 -5q-80 -59 -131 -166.5t-51 -232.5z" />
<glyph unicode="&#xa3;" horiz-adv-x="1042" d="M41 66.5q-2 33.5 8 78.5q109 31 164 149t88 312h-166q-4 27 0 56.5t15 58.5h167q49 299 153.5 455.5t283.5 156.5q59 0 125.5 -14t130.5 -37q-6 -66 -25.5 -148.5t-50.5 -160.5q-23 -4 -44.5 0t-37.5 12q4 55 5 105.5t-3 103.5q-29 8 -62.5 12t-62.5 4q-59 0 -97 -15 t-63 -34q-45 -72 -70.5 -188.5t-41.5 -251.5h278q4 -29 1 -57.5t-13 -57.5h-283q-12 -82 -31.5 -150.5t-48 -128t-70.5 -110.5t-100 -96h529q29 59 50.5 116.5t43.5 116.5q41 12 86 -4q-10 -80 -23.5 -158.5t-41.5 -179.5l-15 -14q-41 2 -92 3t-104 1h-570q-10 31 -12 64.5z " />
<glyph unicode="&#xa4;" d="M164 209l133 151q-16 31 -22.5 66t-6.5 72q0 104 54 188l-125 143q33 61 79 86l142 -124q41 29 87 44t97 15q72 0 131 -39l144 127q57 -27 84 -80l-134 -153q29 -62 29 -132q0 -106 -55 -196l125 -141q-35 -61 -80 -86l-144 124q-82 -57 -180 -57q-74 0 -133 37 l-141 -125q-57 27 -84 80zM373 510q0 -76 45 -128t119 -52q43 0 82.5 18.5t68.5 49t46.5 71.5t17.5 88q0 74 -45 127t-119 53q-43 0 -83 -18.5t-68.5 -49t-46 -72.5t-17.5 -87z" />
<glyph unicode="&#xa5;" horiz-adv-x="985" d="M78 1223q2 39 22 82q53 0 105.5 -1t111.5 -1h107q31 0 58.5 1t43.5 1q6 -41 -2 -82l-168 -39l176 -385l275 385l-164 39q0 43 21 82q57 0 104 -1t90 -1h94q29 0 56.5 1t46.5 1q4 -18 4 -39t-4 -43q-23 -12 -51.5 -22.5t-57.5 -14.5l-330 -463h232q4 -23 1 -48.5 t-13 -51.5h-263l-18 -148h260q4 -23 1 -48.5t-13 -51.5h-260l-13 -96q-12 -84 -12 -162q100 -8 180 -37q-2 -39 -22 -82q-23 2 -55.5 3t-69.5 1h-129q-68 0 -130.5 -2t-129.5 -2q-12 43 -6 82q49 4 99 14t99 23q4 14 9.5 35.5t9.5 46t7 47t5 39.5l10 90h-258q-6 49 13 100 h260l18 148h-258q-6 49 12 100h209l-205 463q-55 27 -108 37z" />
<glyph unicode="&#xa6;" horiz-adv-x="636" d="M111 -426l120 928h125l-120 -928h-125zM272 813l121 928h125l-121 -928h-125z" />
<glyph unicode="&#xa7;" horiz-adv-x="980" d="M78 -240q10 86 26.5 154t36.5 115q23 4 46.5 2t41.5 -13q-4 -43 -7 -86t1 -94q39 -12 86 -17t92 -5q37 0 67 3t67 19q31 29 58.5 68t27.5 94t-40 93t-98.5 70t-128 62.5t-128 72.5t-98.5 100.5t-40 144.5q0 53 20.5 100t56.5 88t82 76t97 63q-49 35 -80 78t-31 101 q0 76 27 140t74 112.5t110.5 76t137.5 27.5q94 0 175 -14.5t142 -40.5q-10 -86 -26.5 -154t-36.5 -115q-23 -4 -46.5 -2t-41.5 13q4 43 7 86t-1 94q-39 12 -86 17t-93 5q-37 0 -66.5 -3t-66.5 -19q-31 -29 -58.5 -68t-27.5 -94t40 -93t98.5 -70t128 -62.5t128 -72.5 t98.5 -100.5t40 -144.5q0 -53 -21.5 -101t-56.5 -89t-81 -76t-97 -63q47 -35 78.5 -78t31.5 -99q0 -76 -26.5 -140t-73.5 -112.5t-110.5 -76t-137.5 -27.5q-94 0 -175 14.5t-142 40.5zM221 557q0 -47 32 -84t82 -68.5t110.5 -60.5t117.5 -61q92 63 142.5 132.5t50.5 137.5 q0 47 -33 84t-83 68.5t-110.5 60.5t-117.5 61q-92 -66 -141.5 -135t-49.5 -135z" />
<glyph unicode="&#xa8;" horiz-adv-x="849" d="M150 1206q0 41 27.5 71t68.5 30q94 -1 94 -101q0 -41 -26.5 -69.5t-67.5 -28.5q-96 0 -96 98zM512 1206q0 41 27.5 71t68.5 30q95 -1 95 -101q0 -41 -27 -69.5t-68 -28.5q-96 0 -96 98z" />
<glyph unicode="&#xa9;" horiz-adv-x="1552" d="M104 662q0 141 53.5 266t145.5 218t217 147.5t268 54.5q141 0 266.5 -54.5t218.5 -147.5t146.5 -218t53.5 -266t-53.5 -266.5t-146.5 -218.5t-218 -147.5t-267 -54.5q-143 0 -268 54.5t-217 147.5t-145.5 218.5t-53.5 266.5zM227 662q0 -119 43 -223.5t119 -182.5 t178.5 -123t220.5 -45q117 0 219.5 45t178.5 123t120 182.5t44 223.5t-43 223t-119 182t-178.5 123t-221.5 45t-221 -45t-178 -123t-119 -182t-43 -223zM444 653q0 70 22.5 139.5t69 125t116 90t161.5 34.5q66 0 119 -8t94 -22q0 -57 -6 -109.5t-21 -97.5q-18 -2 -34.5 -1 t-32.5 9q-4 31 -7.5 59.5t-9.5 59.5q-23 4 -53.5 8t-64.5 4q-43 0 -86 -9t-60 -20q-10 -8 -24.5 -25.5t-27.5 -46t-22.5 -66.5t-9.5 -87q0 -61 13.5 -116.5t44 -96.5t80 -65.5t120.5 -24.5q27 0 55.5 4t49.5 8q6 37 10 70t4 66q20 8 37.5 9t36.5 -1q10 -49 13 -103.5 t3 -109.5q-49 -16 -111.5 -27.5t-129.5 -11.5q-90 0 -156 28.5t-109 77.5t-63.5 115t-20.5 141z" />
<glyph unicode="&#xaa;" horiz-adv-x="700" d="M106 891q0 76 20.5 147.5t59.5 127.5t95.5 90t128.5 34q53 0 118.5 -13t120.5 -40q-6 -18 -8 -33.5t-6 -32.5l-53 -387q31 6 60.5 15.5t55.5 21.5q27 -16 31 -51q-14 -18 -38.5 -35.5t-52.5 -31t-57.5 -22.5t-56.5 -9q-35 0 -47 27.5t-16 72.5q-57 -49 -114.5 -78 t-115.5 -29q-47 0 -73.5 25t-36.5 63q-10 33 -12.5 68t-2.5 70zM237 930q0 -61 7.5 -104.5t23.5 -57.5q45 4 94.5 29.5t100.5 60.5l41 309q-29 10 -56.5 17.5t-54.5 7.5q-23 0 -39 -2t-33 -6q-33 -23 -58.5 -89.5t-25.5 -164.5z" />
<glyph unicode="&#xab;" horiz-adv-x="1144" d="M88 458.5q-2 16.5 0 33t9 33t18 26.5l415 391q45 -18 66 -61l-342 -383l264 -377q-29 -51 -90 -68l-330 381q-8 8 -10 24.5zM514 458.5q-2 16.5 0 33t9 33t18 26.5l415 391q45 -18 66 -61l-342 -383l264 -377q-29 -51 -90 -68l-330 381q-8 8 -10 24.5z" />
<glyph unicode="&#xac;" d="M94 467q0 59 15 115h868l-78 -582q-31 -6 -58.5 -5t-56.5 5l64 467h-754z" />
<glyph unicode="&#xad;" horiz-adv-x="778" d="M123 477q0 20 6 41t14 35l496 10q8 0 12 -12t4 -29q0 -20 -6 -40.5t-14 -35.5l-496 -10q-8 0 -12 12.5t-4 28.5z" />
<glyph unicode="&#xae;" horiz-adv-x="1046" d="M115 1090q0 100 39 188t106.5 153.5t157.5 103.5t192 38q100 0 190.5 -38t158 -103.5t107.5 -153.5t40 -188q0 -102 -40 -190.5t-107.5 -153t-157.5 -102.5t-191 -38q-102 0 -192 38t-157.5 102.5t-106.5 153t-39 190.5zM219 1090q0 -82 31 -153t84 -124t123.5 -84 t152.5 -31q80 0 152 31t126 84t85 124t31 153q0 80 -31 151.5t-85 124.5t-126 84t-152 31q-82 0 -152.5 -31t-123.5 -84t-84 -124.5t-31 -151.5zM399 954l64 11v299l-64 12q-4 41 9 61l225 2q78 0 112.5 -39.5t34.5 -93.5q0 -43 -24.5 -76.5t-61.5 -52.5q23 -43 51.5 -85 t63.5 -42h12q10 0 23 4q18 -23 22 -53q-16 -10 -40.5 -18.5t-59.5 -8.5q-45 0 -85 52.5t-75 126.5l-49 4v-94l61 -13q6 -37 -4 -63h-204q-14 27 -11 67zM557 1133h47q53 0 67.5 17t14.5 48q0 27 -16.5 43t-46.5 16h-66v-124z" />
<glyph unicode="&#xaf;" horiz-adv-x="849" d="M154 1178q0 25 8 41t26 16h498q4 -10 6 -24.5t2 -28.5q0 -23 -8 -43.5t-24 -20.5h-496q-12 27 -12 60z" />
<glyph unicode="&#xb0;" horiz-adv-x="745" d="M160 1065q0 63 23.5 118.5t65.5 96.5t97 65.5t119 24.5q63 0 118.5 -24.5t96.5 -65.5t65.5 -96.5t24.5 -118.5t-24.5 -118.5t-65.5 -97.5t-96.5 -65.5t-118.5 -23.5t-118.5 23.5t-97.5 65.5t-65.5 97.5t-23.5 118.5zM274 1065q0 -82 54.5 -138.5t136.5 -56.5 q80 0 135 56.5t55 138.5t-55 138.5t-135 56.5q-82 0 -136.5 -56.5t-54.5 -138.5z" />
<glyph unicode="&#xb1;" d="M82 0q-2 29 2 57.5t12 57.5h783q2 -29 -2.5 -57.5t-12.5 -57.5h-782zM158 571q-2 29 2 57.5t12 57.5h334l47 340q57 10 115 0l-47 -340h333q2 -29 -2 -57.5t-12 -57.5h-334l-45 -335q-57 -10 -115 0l46 335h-334z" />
<glyph unicode="&#xb2;" horiz-adv-x="692" d="M121 908.5q-2 27.5 2 58.5q86 57 160.5 110t130 103.5t87 97.5t31.5 94q0 49 -33.5 83t-97.5 34q-45 0 -82.5 -17.5t-78.5 -48.5q-23 8 -33 27.5t-14 36.5q61 59 125.5 84.5t138.5 25.5q94 0 155.5 -48t61.5 -132q0 -59 -30 -114.5t-75 -106.5t-100 -94t-107 -78l-98 -63 h395q8 -23 4 -51.5t-14 -51.5l-12 -12q-57 4 -133 4h-377q-4 31 -6 58.5z" />
<glyph unicode="&#xb3;" horiz-adv-x="696" d="M133 899q4 35 21.5 64.5t46.5 52.5h16q23 -39 58.5 -57.5t78.5 -18.5q47 0 101 25q47 47 47 116q0 41 -33 70t-84 29h-25q-10 0 -18 -2l-14 10q2 23 9 48.5t19 45.5q31 0 59.5 10.5t51 27.5t37 40.5t14.5 50.5q0 35 -30.5 56.5t-75.5 21.5q-86 0 -162 -64q-23 8 -35 21.5 t-16 40.5q117 111 264 110q84 0 141.5 -44t57.5 -115q0 -51 -42 -99.5t-102 -76.5q66 -16 95.5 -59.5t29.5 -98.5q0 -49 -26.5 -97.5t-72.5 -87t-106.5 -63.5t-128.5 -25q-47 0 -94 14.5t-82 53.5z" />
<glyph unicode="&#xb4;" horiz-adv-x="849" d="M229 1135q135 88 233.5 165.5t164.5 157.5q25 -10 44 -28.5t29.5 -38t12.5 -38t-8 -30.5q-29 -29 -72 -62.5t-99.5 -67.5t-124 -66.5t-141.5 -59.5q-39 25 -39 68z" />
<glyph unicode="&#xb5;" horiz-adv-x="1097" d="M51 -506q14 94 28 190q13 95 26 193t27 204q13 105 28 222l78 627q2 14 15 22t33 13q19 4 42 4t43 -2l14 -15q-29 -170 -45 -287q-16 -118 -31 -223q-10 -72 1 -130t39 -101t68 -71t89 -40q98 111 160 257q61 146 92 309l49 264q2 12 17 20t36 14q20 5 44 5t44 -2l15 -15 q-25 -104 -43 -186t-30 -150q-11 -68 -17 -127q-5 -59 -5 -116q0 -59 1 -124t5 -106q41 4 83 20q42 15 71 30q18 -10 33 -33q14 -23 18 -47q-53 -53 -111 -96q-58 -42 -108 -42q-53 0 -74 81q-20 81 -10 231h-2q-27 -88 -60 -148q-34 -59 -71 -96t-77 -53t-79 -17 q-82 0 -144 56q-62 55 -91 166l-4 -2q-6 -78 -14 -163q-7 -85 -12 -167t-8 -158t-1 -133q0 -53 -41 -76t-109 -18z" />
<glyph unicode="&#xb6;" horiz-adv-x="1112" d="M63 -387q4 59 26 105t63 75l14 4q33 -39 91 -65.5t124 -26.5q47 0 98 11.5t90 27.5q37 59 65 147.5t42 188.5l47 356q-61 -20 -127 -29.5t-154 -9.5q-68 0 -133 24.5t-117.5 75t-84 125t-31.5 175.5q0 111 48 215t129 185t188.5 130t228.5 49q59 0 121.5 -3t136.5 -3h106 q31 0 59.5 1t49.5 3q10 -41 0 -84q-37 -14 -76 -24.5t-86 -14.5q-12 -57 -22.5 -123.5t-22.5 -158.5l-105 -791q-18 -147 -58 -264t-103.5 -196.5t-152.5 -123t-206 -43.5q-68 0 -133 16.5t-115 45.5zM406 846q0 -141 52 -227.5t126 -86.5q76 0 153 15l97 710 q-23 2 -47.5 4.5t-51.5 2.5q-72 0 -116 -8.5t-89 -30.5q-27 -25 -49 -65t-39.5 -90t-26.5 -107.5t-9 -116.5z" />
<glyph unicode="&#xb7;" horiz-adv-x="602" d="M172 456q0 51 36 97.5t89 46.5q41 0 75 -30t34 -73q0 -25 -9.5 -49t-26.5 -44.5t-39.5 -33t-49.5 -12.5q-35 0 -72 28.5t-37 69.5z" />
<glyph unicode="&#xb8;" horiz-adv-x="849" d="M231 -471q37 18 76 41.5t70 49.5t50.5 53.5t19.5 58.5q0 43 -33 68.5t-99 21.5l-12 16l123 205h82l-84 -135q76 -4 121 -42t45 -97q0 -47 -25.5 -90.5t-68.5 -80t-101.5 -65.5t-122.5 -49q-14 -4 -27.5 9t-13.5 36z" />
<glyph unicode="&#xb9;" horiz-adv-x="587" d="M145.5 880.5q-0.5 18.5 1.5 37.5q31 2 61.5 7t63.5 13q12 35 15 72l65 465h-112q-10 29 -4 65q59 23 121.5 37t134.5 22l12 -12l-78 -555q-4 -25 -6 -48t-2 -46q33 -4 60.5 -9t51.5 -14q-2 -16 -7 -34.5t-9 -34.5q-29 4 -84 4h-98q-55 0 -97 -2t-85 -2q-4 16 -4.5 34.5z " />
<glyph unicode="&#xba;" horiz-adv-x="630" d="M107 909q0 80 22.5 149.5t66.5 121t107.5 81t143.5 29.5q55 0 91 -23.5t57.5 -58.5t30.5 -79t9 -83q0 -80 -22.5 -149.5t-66.5 -120.5t-108.5 -81t-146.5 -30q-53 0 -89 23.5t-57.5 58.5t-29.5 78t-8 84zM236 964q0 -98 28 -150t89 -52q23 0 44 6t36 12q27 29 50 85 t23 126q0 98 -27.5 150.5t-84.5 52.5q-23 0 -45.5 -4t-38.5 -15q-27 -25 -50.5 -82t-23.5 -129z" />
<glyph unicode="&#xbb;" horiz-adv-x="1150" d="M119 115l342 383l-264 376q29 51 90 68l329 -381q14 -18 9.5 -57t-25.5 -60l-416 -391q-45 18 -65 62zM549 115l342 383l-264 376q29 51 90 68l329 -381q14 -18 9.5 -57t-25.5 -60l-416 -391q-45 18 -65 62z" />
<glyph unicode="&#xbc;" horiz-adv-x="1802" d="M202.5 718.5q-0.5 18.5 1.5 37.5q31 2 61.5 7t63.5 13q12 35 15 72l65 465h-112q-10 29 -4 65q59 23 121.5 37t134.5 22l12 -12l-78 -555q-4 -25 -6 -48t-2 -46q33 -4 60.5 -9t51.5 -14q-2 -16 -7 -34.5t-9 -34.5q-29 4 -84 4h-98q-55 0 -97 -2t-85 -2q-4 16 -4.5 34.5z M338 25l1047 1405q29 -8 52 -23.5t40 -44.5l-1047 -1405q-29 8 -52 23.5t-40 44.5zM1120 357l383 446q29 0 59.5 -5t59.5 -17l-56 -432l125 -11q0 -23 -2 -41t-12 -39h-123l-23 -182q-29 -10 -58.5 -16t-59.5 -6l-13 10l25 194h-295q-20 43 -10 99zM1222 346h213l39 308z " />
<glyph unicode="&#xbd;" horiz-adv-x="1802" d="M202.5 718.5q-0.5 18.5 1.5 37.5q31 2 61.5 7t63.5 13q12 35 15 72l65 465h-112q-10 29 -4 65q59 23 121.5 37t134.5 22l12 -12l-78 -555q-4 -25 -6 -48t-2 -46q33 -4 60.5 -9t51.5 -14q-2 -16 -7 -34.5t-9 -34.5q-29 4 -84 4h-98q-55 0 -97 -2t-85 -2q-4 16 -4.5 34.5z M338 25l1047 1405q29 -8 52 -23.5t40 -44.5l-1047 -1405q-29 8 -52 23.5t-40 44.5zM1120 124.5q-2 27.5 2 58.5q86 57 160.5 110t130 103.5t87 97.5t31.5 94q0 49 -33.5 83t-97.5 34q-45 0 -82.5 -17.5t-78.5 -48.5q-23 8 -33 27.5t-14 36.5q61 59 125.5 84.5t138.5 25.5 q94 0 155.5 -48t61.5 -132q0 -59 -30 -114.5t-75 -106.5t-100 -94t-107 -78l-98 -63h395q8 -23 4 -51.5t-14 -51.5l-12 -12q-57 4 -133 4h-377q-4 31 -6 58.5z" />
<glyph unicode="&#xbe;" horiz-adv-x="1802" d="M125 737q4 35 21.5 64.5t46.5 52.5h16q23 -39 58.5 -57.5t78.5 -18.5q47 0 101 25q47 47 47 116q0 41 -33 70t-84 29h-25q-10 0 -18 -2l-14 10q2 23 9 48.5t19 45.5q31 0 59.5 10.5t51 27.5t37 40.5t14.5 50.5q0 35 -30.5 56.5t-75.5 21.5q-86 0 -162 -64q-23 8 -35 21.5 t-16 40.5q117 111 264 110q84 0 141.5 -44t57.5 -115q0 -51 -42 -99.5t-102 -76.5q66 -16 95.5 -59.5t29.5 -98.5q0 -49 -26.5 -97.5t-72.5 -87t-106.5 -63.5t-128.5 -25q-47 0 -94 14.5t-82 53.5zM338 25l1047 1405q29 -8 52 -23.5t40 -44.5l-1047 -1405q-29 8 -52 23.5 t-40 44.5zM1120 357l383 446q29 0 59.5 -5t59.5 -17l-56 -432l125 -11q0 -23 -2 -41t-12 -39h-123l-23 -182q-29 -10 -58.5 -16t-59.5 -6l-13 10l25 194h-295q-20 43 -10 99zM1222 346h213l39 308z" />
<glyph unicode="&#xbf;" horiz-adv-x="782" d="M8 -154q0 102 47 192.5t135 164.5l191 162q20 51 28.5 102t12.5 104q2 23 28.5 31t65.5 8l16 -14q4 -37 6.5 -79t2.5 -99q0 -41 -24.5 -79t-72.5 -79l-168 -147q-117 -100 -116 -226q0 -90 58 -148t147 -58q127 0 235 108q43 -14 55 -68q-59 -80 -148 -125t-188 -45 q-76 0 -134 24t-97 63.5t-59.5 94t-20.5 113.5zM381 858q0 47 38 86t89 39q41 0 69.5 -27.5t28.5 -70.5q0 -47 -37 -85t-88 -38q-41 0 -70.5 27.5t-29.5 68.5z" />
<glyph unicode="&#xc0;" horiz-adv-x="1193" d="M-106 82q82 10 157 39l551 1235q41 16 77 21t81 5l252 -1261q35 -4 73.5 -15.5t65.5 -23.5q-4 -45 -25 -84q-18 2 -48.5 3t-63.5 1h-111q-59 0 -114.5 -2t-118.5 -2q-6 23 -6 42t4 42l186 41l-68 350q-78 4 -157.5 5t-149.5 1h-141l-156 -356l166 -41q-2 -41 -22 -84 q-20 2 -50 3t-61 1h-96q-45 0 -100.5 -2t-122.5 -2q-8 39 -2 84zM385 588h379l-100 516l8 131h-2zM391 1726q18 35 47 59t62 40q80 -72 168 -137.5t188 -133.5q-4 -20 -14 -35.5t-21 -25.5q-111 41 -215 90t-206 109z" />
<glyph unicode="&#xc1;" horiz-adv-x="1193" d="M-106 82q82 10 157 39l551 1235q41 16 77 21t81 5l252 -1261q35 -4 73.5 -15.5t65.5 -23.5q-4 -45 -25 -84q-18 2 -48.5 3t-63.5 1h-111q-59 0 -114.5 -2t-118.5 -2q-6 23 -6 42t4 42l186 41l-68 350q-78 4 -157.5 5t-149.5 1h-141l-156 -356l166 -41q-2 -41 -22 -84 q-20 2 -50 3t-61 1h-96q-45 0 -100.5 -2t-122.5 -2q-8 39 -2 84zM385 588h379l-100 516l8 131h-2zM559 1559q98 59 189.5 126.5t177.5 139.5q29 -14 52.5 -38t41.5 -61l-2 -38q-104 -57 -209.5 -104.5t-214.5 -90.5q-31 21 -35 66z" />
<glyph unicode="&#xc2;" horiz-adv-x="1193" d="M-106 82q82 10 157 39l551 1235q41 16 77 21t81 5l252 -1261q35 -4 73.5 -15.5t65.5 -23.5q-4 -45 -25 -84q-18 2 -48.5 3t-63.5 1h-111q-59 0 -114.5 -2t-118.5 -2q-6 23 -6 42t4 42l186 41l-68 350q-78 4 -157.5 5t-149.5 1h-141l-156 -356l166 -41q-2 -41 -22 -84 q-20 2 -50 3t-61 1h-96q-45 0 -100.5 -2t-122.5 -2q-8 39 -2 84zM385 588h379l-100 516l8 131h-2zM422 1516l264 274q25 12 68 16t65 -2l183 -276q-10 -23 -27.5 -37t-38.5 -18l-207 198l-266 -205q-14 6 -25.5 19.5t-15.5 30.5z" />
<glyph unicode="&#xc3;" horiz-adv-x="1193" d="M-106 82q82 10 157 39l551 1235q41 16 77 21t81 5l252 -1261q35 -4 73.5 -15.5t65.5 -23.5q-4 -45 -25 -84q-18 2 -48.5 3t-63.5 1h-111q-59 0 -114.5 -2t-118.5 -2q-6 23 -6 42t4 42l186 41l-68 350q-78 4 -157.5 5t-149.5 1h-141l-156 -356l166 -41q-2 -41 -22 -84 q-20 2 -50 3t-61 1h-96q-45 0 -100.5 -2t-122.5 -2q-8 39 -2 84zM359 1559q25 41 59.5 79.5t72.5 68.5t73.5 48.5t60.5 18.5q31 0 59.5 -17.5t58 -40t61.5 -45.5t69 -35q33 8 85 45t93 78q35 -6 49 -39q-25 -41 -59.5 -79.5t-72.5 -68.5t-74 -48.5t-60 -18.5 q-31 0 -59.5 17.5t-58.5 40t-61.5 45t-68.5 34.5q-16 -4 -38 -16t-46.5 -28.5t-49 -37t-44.5 -40.5q-35 6 -49 39zM385 588h379l-100 516l8 131h-2z" />
<glyph unicode="&#xc4;" horiz-adv-x="1193" d="M-106 82q82 10 157 39l551 1235q41 16 77 21t81 5l252 -1261q35 -4 73.5 -15.5t65.5 -23.5q-4 -45 -25 -84q-18 2 -48.5 3t-63.5 1h-111q-59 0 -114.5 -2t-118.5 -2q-6 23 -6 42t4 42l186 41l-68 350q-78 4 -157.5 5t-149.5 1h-141l-156 -356l166 -41q-2 -41 -22 -84 q-20 2 -50 3t-61 1h-96q-45 0 -100.5 -2t-122.5 -2q-8 39 -2 84zM385 588h379l-100 516l8 131h-2zM463 1620q0 41 27.5 68.5t66.5 27.5q90 0 90 -96q0 -41 -25.5 -67.5t-64.5 -26.5q-94 0 -94 94zM807 1620q0 41 26.5 68.5t65.5 27.5q92 0 92 -96q0 -41 -25.5 -67.5 t-66.5 -26.5q-92 0 -92 94z" />
<glyph unicode="&#xc5;" horiz-adv-x="1193" d="M-106 82q82 10 157 39l551 1235q41 16 77 21t81 5l252 -1261q35 -4 73.5 -15.5t65.5 -23.5q-4 -45 -25 -84q-18 2 -48.5 3t-63.5 1h-111q-59 0 -114.5 -2t-118.5 -2q-6 23 -6 42t4 42l186 41l-68 350q-78 4 -157.5 5t-149.5 1h-141l-156 -356l166 -41q-2 -41 -22 -84 q-20 2 -50 3t-61 1h-96q-45 0 -100.5 -2t-122.5 -2q-8 39 -2 84zM385 588h379l-100 516l8 131h-2zM526 1614q0 43 18.5 84t51.5 71.5t75 49t89 18.5q70 0 120 -42t50 -114q0 -43 -18.5 -84t-51 -71.5t-74.5 -49t-90 -18.5q-70 0 -120 42t-50 114zM635 1642q0 -35 24.5 -63.5 t59.5 -28.5q41 0 70 15q14 14 23 34.5t9 53.5q0 35 -24.5 63.5t-59.5 28.5q-41 0 -69 -14q-14 -14 -23.5 -35t-9.5 -54z" />
<glyph unicode="&#xc6;" horiz-adv-x="1667" d="M-106 82q41 4 78.5 14t78.5 25l649 1139l-168 8q-4 29 -4 51t9 51h845q66 0 127.5 1t110.5 3l12 -12q-8 -78 -23.5 -167t-35.5 -167q-41 -16 -86 2q4 61 4 118.5t-8 111.5h-443l-65 -506q98 6 195.5 13t220.5 11l10 -14q2 -47 -17.5 -80t-46.5 -33q-102 4 -189 6t-185 2 l-72 -546h477q29 61 52.5 122.5t45.5 126.5q39 10 86 -6q-10 -92 -26.5 -179t-38.5 -165l-12 -14q-90 4 -213 4h-455q-59 0 -117.5 -2t-120.5 -2q-6 23 -6 42t4 42q45 4 86 14t88 25q10 29 15.5 60.5t9.5 64.5l47 366h-350l-277 -489l162 -41q-2 -23 -7 -43.5t-15 -40.5 q-18 2 -47 3t-60 1h-100q-43 0 -98.5 -2t-124.5 -2q-8 39 -2 84zM528 725h301l70 535h-68z" />
<glyph unicode="&#xc7;" horiz-adv-x="1128" d="M88 551q0 166 47 320.5t136 272.5t217 188.5t290 70.5q104 0 192.5 -13.5t159.5 -35.5q-12 -98 -34.5 -181t-57.5 -174q-23 -4 -44 -2t-38 15q4 59 8.5 120.5t0.5 127.5q-57 10 -117 15t-125 5q-61 0 -124.5 -16.5t-123.5 -49.5q-49 -45 -94 -107.5t-78 -138 t-52.5 -161.5t-19.5 -178q0 -102 21.5 -197.5t69 -169.5t125 -119t188.5 -45q82 0 166 30t176 79q37 -25 37 -76q-104 -76 -219 -123q-102 -41 -207 -45l-35 -55q76 -4 121 -42t45 -97q0 -47 -25.5 -91.5t-70.5 -81t-105.5 -66.5t-130.5 -50q-27 14 -27 49q37 18 76 41.5 t70 49.5t50 53.5t19 58.5q0 43 -32.5 68.5t-98.5 21.5l-12 16l76 129q-84 8 -152 43q-88 47 -148.5 128t-90 187.5t-29.5 225.5z" />
<glyph unicode="&#xc8;" horiz-adv-x="1103" d="M0 40q0 19 4 42q45 4 86 14t88 25q10 29 15.5 60.5t9.5 64.5l133 1014l-172 8q-4 29 -4 51t8 51h651q66 0 127.5 1t110.5 3l12 -12q-8 -78 -23.5 -167t-35.5 -167q-41 -16 -86 2q4 61 4 118.5t-8 111.5h-443l-65 -506q98 6 195.5 13t219.5 11l11 -14q8 -47 -14.5 -80 t-49.5 -33q-102 4 -189 6t-186 2l-71 -546h477q29 61 52.5 122.5t45.5 126.5q39 10 86 -6q-10 -92 -26.5 -179t-38.5 -165l-13 -14q-90 4 -213 4h-454q-59 0 -117.5 -2t-120.5 -2q-6 23 -6 42zM368 1726q18 35 47 59t62 40q80 -72 168 -137.5t188 -133.5q-4 -20 -14 -35.5 t-21 -25.5q-111 41 -215 90t-206 109z" />
<glyph unicode="&#xc9;" horiz-adv-x="1103" d="M0 40q0 19 4 42q45 4 86 14t88 25q10 29 15.5 60.5t9.5 64.5l133 1014l-172 8q-4 29 -4 51t8 51h651q66 0 127.5 1t110.5 3l12 -12q-8 -78 -23.5 -167t-35.5 -167q-41 -16 -86 2q4 61 4 118.5t-8 111.5h-443l-65 -506q98 6 195.5 13t219.5 11l11 -14q8 -47 -14.5 -80 t-49.5 -33q-102 4 -189 6t-186 2l-71 -546h477q29 61 52.5 122.5t45.5 126.5q39 10 86 -6q-10 -92 -26.5 -179t-38.5 -165l-13 -14q-90 4 -213 4h-454q-59 0 -117.5 -2t-120.5 -2q-6 23 -6 42zM536 1559q98 59 189.5 126.5t177.5 139.5q29 -14 52.5 -38t41.5 -61l-2 -38 q-104 -57 -209.5 -104.5t-214.5 -90.5q-31 21 -35 66z" />
<glyph unicode="&#xca;" horiz-adv-x="1103" d="M0 40q0 19 4 42q45 4 86 14t88 25q10 29 15.5 60.5t9.5 64.5l133 1014l-172 8q-4 29 -4 51t8 51h651q66 0 127.5 1t110.5 3l12 -12q-8 -78 -23.5 -167t-35.5 -167q-41 -16 -86 2q4 61 4 118.5t-8 111.5h-443l-65 -506q98 6 195.5 13t219.5 11l11 -14q8 -47 -14.5 -80 t-49.5 -33q-102 4 -189 6t-186 2l-71 -546h477q29 61 52.5 122.5t45.5 126.5q39 10 86 -6q-10 -92 -26.5 -179t-38.5 -165l-13 -14q-90 4 -213 4h-454q-59 0 -117.5 -2t-120.5 -2q-6 23 -6 42zM399 1516l264 274q25 12 68 16t65 -2l183 -276q-10 -23 -27.5 -37t-38.5 -18 l-207 198l-266 -205q-14 6 -25.5 19.5t-15.5 30.5z" />
<glyph unicode="&#xcb;" horiz-adv-x="1103" d="M0 40q0 19 4 42q45 4 86 14t88 25q10 29 15.5 60.5t9.5 64.5l133 1014l-172 8q-4 29 -4 51t8 51h651q66 0 127.5 1t110.5 3l12 -12q-8 -78 -23.5 -167t-35.5 -167q-41 -16 -86 2q4 61 4 118.5t-8 111.5h-443l-65 -506q98 6 195.5 13t219.5 11l11 -14q8 -47 -14.5 -80 t-49.5 -33q-102 4 -189 6t-186 2l-71 -546h477q29 61 52.5 122.5t45.5 126.5q39 10 86 -6q-10 -92 -26.5 -179t-38.5 -165l-13 -14q-90 4 -213 4h-454q-59 0 -117.5 -2t-120.5 -2q-6 23 -6 42zM440 1620q0 41 27.5 68.5t66.5 27.5q90 0 90 -96q0 -41 -25.5 -67.5 t-64.5 -26.5q-94 0 -94 94zM784 1620q0 41 26.5 68.5t65.5 27.5q92 0 92 -96q0 -41 -25.5 -67.5t-66.5 -26.5q-92 0 -92 94z" />
<glyph unicode="&#xcc;" horiz-adv-x="647" d="M-2 40q0 19 4 42q45 4 86 14t88 25q10 29 15.5 60.5t9.5 64.5l96 723q12 92 18.5 158.5t10.5 123.5q-43 14 -82 24.5t-84 14.5q4 23 9 42.5t17 41.5q66 0 121 -2t115 -2h110q33 0 63 1t50 3q10 -41 0 -84q-39 -14 -77 -24.5t-85 -14.5q-10 -57 -21 -123.5t-24 -158.5 l-90 -678q-6 -45 -9 -87t-5 -83q47 -4 83 -14.5t70 -24.5q-4 -45 -24 -84q-20 2 -50 3t-63 1h-112q-59 0 -113.5 -2t-120.5 -2q-6 23 -6 42zM114 1726q18 35 47 59t62 40q80 -72 168 -137.5t188 -133.5q-4 -20 -14 -35.5t-21 -25.5q-111 41 -215 90t-206 109z" />
<glyph unicode="&#xcd;" horiz-adv-x="647" d="M-2 40q0 19 4 42q45 4 86 14t88 25q10 29 15.5 60.5t9.5 64.5l96 723q12 92 18.5 158.5t10.5 123.5q-43 14 -82 24.5t-84 14.5q4 23 9 42.5t17 41.5q66 0 121 -2t115 -2h110q33 0 63 1t50 3q10 -41 0 -84q-39 -14 -77 -24.5t-85 -14.5q-10 -57 -21 -123.5t-24 -158.5 l-90 -678q-6 -45 -9 -87t-5 -83q47 -4 83 -14.5t70 -24.5q-4 -45 -24 -84q-20 2 -50 3t-63 1h-112q-59 0 -113.5 -2t-120.5 -2q-6 23 -6 42zM282 1559q98 59 189.5 126.5t177.5 139.5q29 -14 52.5 -38t41.5 -61l-2 -38q-104 -57 -209.5 -104.5t-214.5 -90.5q-31 21 -35 66z " />
<glyph unicode="&#xce;" horiz-adv-x="647" d="M-2 40q0 19 4 42q45 4 86 14t88 25q10 29 15.5 60.5t9.5 64.5l96 723q12 92 18.5 158.5t10.5 123.5q-43 14 -82 24.5t-84 14.5q4 23 9 42.5t17 41.5q66 0 121 -2t115 -2h110q33 0 63 1t50 3q10 -41 0 -84q-39 -14 -77 -24.5t-85 -14.5q-10 -57 -21 -123.5t-24 -158.5 l-90 -678q-6 -45 -9 -87t-5 -83q47 -4 83 -14.5t70 -24.5q-4 -45 -24 -84q-20 2 -50 3t-63 1h-112q-59 0 -113.5 -2t-120.5 -2q-6 23 -6 42zM145 1516l264 274q25 12 68 16t65 -2l183 -276q-10 -23 -27.5 -37t-38.5 -18l-207 198l-266 -205q-14 6 -25.5 19.5t-15.5 30.5z " />
<glyph unicode="&#xcf;" horiz-adv-x="647" d="M-2 40q0 19 4 42q45 4 86 14t88 25q10 29 15.5 60.5t9.5 64.5l96 723q12 92 18.5 158.5t10.5 123.5q-43 14 -82 24.5t-84 14.5q4 23 9 42.5t17 41.5q66 0 121 -2t115 -2h110q33 0 63 1t50 3q10 -41 0 -84q-39 -14 -77 -24.5t-85 -14.5q-10 -57 -21 -123.5t-24 -158.5 l-90 -678q-6 -45 -9 -87t-5 -83q47 -4 83 -14.5t70 -24.5q-4 -45 -24 -84q-20 2 -50 3t-63 1h-112q-59 0 -113.5 -2t-120.5 -2q-6 23 -6 42zM186 1620q0 41 27.5 68.5t66.5 27.5q90 0 90 -96q0 -41 -25.5 -67.5t-64.5 -26.5q-94 0 -94 94zM530 1620q0 41 26.5 68.5 t65.5 27.5q92 0 92 -96q0 -41 -25.5 -67.5t-66.5 -26.5q-92 0 -92 94z" />
<glyph unicode="&#xd0;" horiz-adv-x="1280" d="M4 38.5q0 20.5 4 43.5q45 4 86 14t88 25q10 29 15.5 60.5t9.5 66.5l51 393h-172q0 59 14 115h174l66 489q-47 -6 -90 -13t-88 -18q-14 20 -18.5 43t-4.5 48q154 43 288 61t226 18q266 0 401.5 -142t135.5 -413q0 -158 -46 -308t-130 -267t-200 -188.5t-253 -71.5 q-70 0 -139.5 4t-167.5 4q-63 0 -120.5 -2t-123.5 -2q-6 20 -6 40.5zM332 111h188q86 0 157 17t126 42q109 102 175 256t66 344q0 94 -24.5 184t-75.5 161t-131 114t-188 43q-61 0 -142 -6l-67 -510h293q0 -59 -15 -115h-293z" />
<glyph unicode="&#xd1;" horiz-adv-x="1439" d="M-2 40q0 19 4 42q41 4 85 14t89 25q10 29 15.5 60.5t9.5 64.5l96 723q12 92 18.5 158.5t10.5 123.5q-41 14 -83 24.5t-83 14.5q4 23 9 42.5t17 41.5q63 0 116.5 -2t100.5 -2q39 0 81 -2t71 -6l436 -1030l41 -168h2l107 805q12 96 18 160.5t10 121.5q-41 14 -81.5 24.5 t-81.5 14.5q4 23 9 42.5t17 41.5q61 0 116.5 -2t104.5 -2h103q33 0 62.5 1t49.5 3q10 -41 0 -84q-35 -14 -76.5 -24.5t-84.5 -14.5q-12 -57 -22.5 -123.5t-22.5 -158.5l-125 -953q-41 -10 -84 -17t-84 -9l-465 1093l-45 168h-2l-127 -960q-6 -45 -9.5 -87t-5.5 -83 q43 -4 82 -14.5t72 -24.5q-4 -45 -25 -84q-18 2 -47.5 3t-60.5 1h-103q-49 0 -108 -2t-121 -2q-6 23 -6 42zM498 1559q25 41 59.5 79.5t72.5 68.5t73.5 48.5t60.5 18.5q31 0 59.5 -17.5t58 -40t61.5 -45.5t69 -35q33 8 85 45t93 78q35 -6 49 -39q-25 -41 -59.5 -79.5 t-72.5 -68.5t-74 -48.5t-60 -18.5q-31 0 -59.5 17.5t-58.5 40t-61.5 45t-68.5 34.5q-16 -4 -38 -16t-46.5 -28.5t-49 -37t-44.5 -40.5q-35 6 -49 39z" />
<glyph unicode="&#xd2;" horiz-adv-x="1316" d="M88 547q0 166 46 321.5t133 275.5t213 192.5t286 72.5q115 0 202 -45t145 -123t87 -184.5t29 -231.5q0 -166 -46 -321.5t-133 -275t-213 -192.5t-286 -73q-115 0 -202 44t-145.5 123t-87 185.5t-28.5 231.5zM231 621q0 -109 21.5 -206.5t69 -170t121 -115.5t175.5 -43 q53 0 111.5 17.5t112.5 46.5q37 33 79 87t78.5 128.5t61 172t24.5 214.5q0 109 -21.5 206t-68.5 169.5t-120.5 115.5t-176.5 43q-53 0 -111.5 -17.5t-111.5 -45.5q-37 -33 -79 -87.5t-78.5 -129t-61.5 -172t-25 -213.5zM448 1726q18 35 47 59t62 40q80 -72 168 -137.5 t188 -133.5q-4 -20 -14 -35.5t-21 -25.5q-111 41 -215 90t-206 109z" />
<glyph unicode="&#xd3;" horiz-adv-x="1316" d="M88 547q0 166 46 321.5t133 275.5t213 192.5t286 72.5q115 0 202 -45t145 -123t87 -184.5t29 -231.5q0 -166 -46 -321.5t-133 -275t-213 -192.5t-286 -73q-115 0 -202 44t-145.5 123t-87 185.5t-28.5 231.5zM231 621q0 -109 21.5 -206.5t69 -170t121 -115.5t175.5 -43 q53 0 111.5 17.5t112.5 46.5q37 33 79 87t78.5 128.5t61 172t24.5 214.5q0 109 -21.5 206t-68.5 169.5t-120.5 115.5t-176.5 43q-53 0 -111.5 -17.5t-111.5 -45.5q-37 -33 -79 -87.5t-78.5 -129t-61.5 -172t-25 -213.5zM616 1559q98 59 189.5 126.5t177.5 139.5 q29 -14 52.5 -38t41.5 -61l-2 -38q-104 -57 -209.5 -104.5t-214.5 -90.5q-31 21 -35 66z" />
<glyph unicode="&#xd4;" horiz-adv-x="1316" d="M88 547q0 166 46 321.5t133 275.5t213 192.5t286 72.5q115 0 202 -45t145 -123t87 -184.5t29 -231.5q0 -166 -46 -321.5t-133 -275t-213 -192.5t-286 -73q-115 0 -202 44t-145.5 123t-87 185.5t-28.5 231.5zM231 621q0 -109 21.5 -206.5t69 -170t121 -115.5t175.5 -43 q53 0 111.5 17.5t112.5 46.5q37 33 79 87t78.5 128.5t61 172t24.5 214.5q0 109 -21.5 206t-68.5 169.5t-120.5 115.5t-176.5 43q-53 0 -111.5 -17.5t-111.5 -45.5q-37 -33 -79 -87.5t-78.5 -129t-61.5 -172t-25 -213.5zM479 1516l264 274q25 12 68 16t65 -2l183 -276 q-10 -23 -27.5 -37t-38.5 -18l-207 198l-266 -205q-14 6 -25.5 19.5t-15.5 30.5z" />
<glyph unicode="&#xd5;" horiz-adv-x="1316" d="M88 547q0 166 46 321.5t133 275.5t213 192.5t286 72.5q115 0 202 -45t145 -123t87 -184.5t29 -231.5q0 -166 -46 -321.5t-133 -275t-213 -192.5t-286 -73q-115 0 -202 44t-145.5 123t-87 185.5t-28.5 231.5zM231 621q0 -109 21.5 -206.5t69 -170t121 -115.5t175.5 -43 q53 0 111.5 17.5t112.5 46.5q37 33 79 87t78.5 128.5t61 172t24.5 214.5q0 109 -21.5 206t-68.5 169.5t-120.5 115.5t-176.5 43q-53 0 -111.5 -17.5t-111.5 -45.5q-37 -33 -79 -87.5t-78.5 -129t-61.5 -172t-25 -213.5zM416 1559q25 41 59.5 79.5t72.5 68.5t73.5 48.5 t60.5 18.5q31 0 59.5 -17.5t58 -40t61.5 -45.5t69 -35q33 8 85 45t93 78q35 -6 49 -39q-25 -41 -59.5 -79.5t-72.5 -68.5t-74 -48.5t-60 -18.5q-31 0 -59.5 17.5t-58.5 40t-61.5 45t-68.5 34.5q-16 -4 -38 -16t-46.5 -28.5t-49 -37t-44.5 -40.5q-35 6 -49 39z" />
<glyph unicode="&#xd6;" horiz-adv-x="1316" d="M88 547q0 166 46 321.5t133 275.5t213 192.5t286 72.5q115 0 202 -45t145 -123t87 -184.5t29 -231.5q0 -166 -46 -321.5t-133 -275t-213 -192.5t-286 -73q-115 0 -202 44t-145.5 123t-87 185.5t-28.5 231.5zM231 621q0 -109 21.5 -206.5t69 -170t121 -115.5t175.5 -43 q53 0 111.5 17.5t112.5 46.5q37 33 79 87t78.5 128.5t61 172t24.5 214.5q0 109 -21.5 206t-68.5 169.5t-120.5 115.5t-176.5 43q-53 0 -111.5 -17.5t-111.5 -45.5q-37 -33 -79 -87.5t-78.5 -129t-61.5 -172t-25 -213.5zM520 1620q0 41 27.5 68.5t66.5 27.5q90 0 90 -96 q0 -41 -25.5 -67.5t-64.5 -26.5q-94 0 -94 94zM864 1620q0 41 26.5 68.5t65.5 27.5q92 0 92 -96q0 -41 -25.5 -67.5t-66.5 -26.5q-92 0 -92 94z" />
<glyph unicode="&#xd7;" d="M246 250l303 276l-238 287q37 49 90 74l234 -281l301 277q23 -14 44 -39t32 -49l-303 -279l239 -287q-37 -49 -90 -73l-235 282l-301 -276q-23 14 -44.5 38.5t-31.5 49.5z" />
<glyph unicode="&#xd8;" horiz-adv-x="1316" d="M88 547q0 166 46 321.5t133 275.5t213 192.5t286 72.5q150 0 258 -80l104 164q57 -4 89 -51l-119 -182q66 -80 98.5 -192t32.5 -243q0 -166 -46 -321.5t-133 -275t-213 -192.5t-286 -73q-154 0 -262 80l-96 -154q-57 4 -89 52l113 174q-66 78 -97.5 188.5t-31.5 243.5z M231 621q0 -104 20.5 -198.5t63.5 -166.5l619 944q-45 41 -103.5 63.5t-132.5 22.5q-53 0 -111.5 -17.5t-111.5 -45.5q-37 -33 -79 -87.5t-78.5 -129t-61.5 -171.5t-25 -214zM379 174q45 -41 104 -64.5t135 -23.5q53 0 111.5 17.5t112.5 46.5q37 33 79 87t78.5 128.5t61 172 t24.5 214.5q0 106 -20.5 200.5t-65.5 165.5z" />
<glyph unicode="&#xd9;" horiz-adv-x="1341" d="M104 1290q6 43 27 84q63 0 118.5 -2t112.5 -2h113q33 0 63.5 1t51.5 3q10 -41 0 -84q-37 -14 -78 -24.5t-84 -14.5q-20 -104 -45 -282l-55 -437q-4 -39 -8.5 -72.5t-4.5 -62.5q0 -160 69 -235.5t245 -75.5q78 0 139 24.5t115 59.5q41 53 72.5 126t45.5 175l66 498 q10 78 17.5 151.5t11.5 130.5q-82 29 -166 39q4 20 9 42t17 42q61 0 120 -2t122 -2h94q29 0 55.5 1t45.5 3q10 -41 0 -84q-37 -14 -77 -24.5t-85 -14.5q-10 -57 -22.5 -135t-22.5 -147l-64 -482q-33 -246 -175 -385t-400 -139q-190 0 -283.5 92t-93.5 303q0 29 3 62t5 59 l64 490q12 92 18 158.5t10 123.5q-41 14 -83 24.5t-83 14.5zM483 1726q18 35 47 59t62 40q80 -72 168 -137.5t188 -133.5q-4 -20 -14 -35.5t-21 -25.5q-111 41 -215 90t-206 109z" />
<glyph unicode="&#xda;" horiz-adv-x="1341" d="M104 1290q6 43 27 84q63 0 118.5 -2t112.5 -2h113q33 0 63.5 1t51.5 3q10 -41 0 -84q-37 -14 -78 -24.5t-84 -14.5q-20 -104 -45 -282l-55 -437q-4 -39 -8.5 -72.5t-4.5 -62.5q0 -160 69 -235.5t245 -75.5q78 0 139 24.5t115 59.5q41 53 72.5 126t45.5 175l66 498 q10 78 17.5 151.5t11.5 130.5q-82 29 -166 39q4 20 9 42t17 42q61 0 120 -2t122 -2h94q29 0 55.5 1t45.5 3q10 -41 0 -84q-37 -14 -77 -24.5t-85 -14.5q-10 -57 -22.5 -135t-22.5 -147l-64 -482q-33 -246 -175 -385t-400 -139q-190 0 -283.5 92t-93.5 303q0 29 3 62t5 59 l64 490q12 92 18 158.5t10 123.5q-41 14 -83 24.5t-83 14.5zM651 1559q98 59 189.5 126.5t177.5 139.5q29 -14 52.5 -38t41.5 -61l-2 -38q-104 -57 -209.5 -104.5t-214.5 -90.5q-31 21 -35 66z" />
<glyph unicode="&#xdb;" horiz-adv-x="1341" d="M104 1290q6 43 27 84q63 0 118.5 -2t112.5 -2h113q33 0 63.5 1t51.5 3q10 -41 0 -84q-37 -14 -78 -24.5t-84 -14.5q-20 -104 -45 -282l-55 -437q-4 -39 -8.5 -72.5t-4.5 -62.5q0 -160 69 -235.5t245 -75.5q78 0 139 24.5t115 59.5q41 53 72.5 126t45.5 175l66 498 q10 78 17.5 151.5t11.5 130.5q-82 29 -166 39q4 20 9 42t17 42q61 0 120 -2t122 -2h94q29 0 55.5 1t45.5 3q10 -41 0 -84q-37 -14 -77 -24.5t-85 -14.5q-10 -57 -22.5 -135t-22.5 -147l-64 -482q-33 -246 -175 -385t-400 -139q-190 0 -283.5 92t-93.5 303q0 29 3 62t5 59 l64 490q12 92 18 158.5t10 123.5q-41 14 -83 24.5t-83 14.5zM514 1516l264 274q25 12 68 16t65 -2l183 -276q-10 -23 -27.5 -37t-38.5 -18l-207 198l-266 -205q-14 6 -25.5 19.5t-15.5 30.5z" />
<glyph unicode="&#xdc;" horiz-adv-x="1341" d="M104 1290q6 43 27 84q63 0 118.5 -2t112.5 -2h113q33 0 63.5 1t51.5 3q10 -41 0 -84q-37 -14 -78 -24.5t-84 -14.5q-20 -104 -45 -282l-55 -437q-4 -39 -8.5 -72.5t-4.5 -62.5q0 -160 69 -235.5t245 -75.5q78 0 139 24.5t115 59.5q41 53 72.5 126t45.5 175l66 498 q10 78 17.5 151.5t11.5 130.5q-82 29 -166 39q4 20 9 42t17 42q61 0 120 -2t122 -2h94q29 0 55.5 1t45.5 3q10 -41 0 -84q-37 -14 -77 -24.5t-85 -14.5q-10 -57 -22.5 -135t-22.5 -147l-64 -482q-33 -246 -175 -385t-400 -139q-190 0 -283.5 92t-93.5 303q0 29 3 62t5 59 l64 490q12 92 18 158.5t10 123.5q-41 14 -83 24.5t-83 14.5zM555 1620q0 41 27.5 68.5t66.5 27.5q90 0 90 -96q0 -41 -25.5 -67.5t-64.5 -26.5q-94 0 -94 94zM899 1620q0 41 26.5 68.5t65.5 27.5q92 0 92 -96q0 -41 -25.5 -67.5t-66.5 -26.5q-92 0 -92 94z" />
<glyph unicode="&#xdd;" horiz-adv-x="1130" d="M29 1290q2 20 7 41t17 43q59 0 115.5 -2t118.5 -2h119q33 0 60.5 1t45.5 3q12 -39 2 -84l-180 -39l229 -610l387 608l-182 41q4 23 9 42.5t20 41.5q66 0 124 -2t103 -2h100q33 0 65 1t52 3q10 -41 0 -84q-35 -14 -71.5 -24.5t-77.5 -14.5l-478 -741l-28 -219 q-6 -45 -9.5 -87t-5.5 -83q47 -4 98.5 -14.5t86.5 -24.5q-4 -45 -25 -84q-20 2 -55 3t-74 1h-127q-59 0 -129 -2t-135 -2q-6 23 -6 42t4 42q45 4 101.5 14t103.5 25q10 29 15 60.5t9 64.5l31 243l-291 762q-37 14 -73.5 24.5t-75.5 14.5zM520 1559q98 59 189.5 126.5 t177.5 139.5q29 -14 52.5 -38t41.5 -61l-2 -38q-104 -57 -209.5 -104.5t-214.5 -90.5q-31 21 -35 66z" />
<glyph unicode="&#xde;" horiz-adv-x="1091" d="M4 40q0 19 4 42q45 4 86 14t88 25q10 29 15.5 60.5t9.5 64.5l94 715q-43 -6 -86 -13.5t-82 -17.5q-14 18 -18 41.5t-4 48.5q109 31 204 49q6 53 9.5 97t7.5 85q-43 14 -82 24.5t-84 14.5q4 23 9 42.5t18 41.5q66 0 121 -2t114 -2h127q37 0 72 1t55 3q10 -41 0 -84 q-39 -14 -96.5 -24.5t-104.5 -14.5l-22 -159q41 4 80 6t79 2q199 0 310.5 -80t111.5 -240q0 -102 -39.5 -192t-108.5 -158t-160 -106.5t-191 -38.5q-96 0 -185 20l-24 -184q47 -4 102 -14.5t90 -24.5q-4 -45 -24 -84q-20 2 -55 3t-74 1h-127q-59 0 -113.5 -2t-120.5 -2 q-6 23 -6 42zM371 416q39 -4 74.5 -6t68.5 -2q82 0 145.5 15t98.5 30q70 51 103.5 122.5t33.5 155.5q0 51 -19.5 97t-59.5 82t-100.5 56.5t-140.5 20.5q-51 0 -131 -6z" />
<glyph unicode="&#xdf;" horiz-adv-x="1101" d="M51 -508q29 162 53.5 330t47.5 348l65 514q4 43 10 83t11 77h-183q0 18 1 37.5t4 37t10.5 28.5t21.5 11h160l39 269q12 78 46 139t83 103t111.5 64.5t134.5 22.5q57 0 123.5 -27.5t124 -77.5t95.5 -119.5t38 -155.5q0 -43 -25 -83t-62.5 -77t-84 -70t-91.5 -63 q-35 -23 -65.5 -52.5t-30.5 -82.5t44 -99.5t112 -93.5q100 -70 146 -129t46 -145q0 -51 -21.5 -105.5t-62.5 -99.5t-102.5 -74t-140.5 -29q-72 0 -129.5 14.5t-92.5 37.5q-39 23 -38 53q0 29 20 62.5t37 52.5q74 -59 131 -79t127 -20q57 0 106 31q10 16 18.5 47t8.5 68 q0 35 -14.5 63.5t-39 53t-55.5 46.5l-61 46q-86 59 -132 117.5t-46 144.5q0 51 23.5 94t61.5 79t82 67.5t85 59t71.5 53.5t42.5 52q-8 63 -37.5 121.5t-73.5 101.5t-101.5 69t-122.5 26q-25 0 -44.5 -4.5t-37.5 -12.5q-25 -20 -44.5 -93t-37 -166t-29.5 -188.5t-20 -160.5 l-64 -506q-23 -186 -46.5 -390t-43.5 -394q-4 -23 -49 -35t-98 -6z" />
<glyph unicode="&#xe0;" horiz-adv-x="1015" d="M68 334q0 123 28.5 240.5t86 208.5t142.5 147.5t197 56.5q80 0 170 -17t162 -52q-8 -29 -12 -55.5t-8 -49.5l-93 -686q53 10 102.5 25.5t90.5 35.5q27 -20 37 -55q-25 -29 -61 -57.5t-74.5 -51t-76.5 -36t-65 -13.5q-20 0 -33.5 16.5t-22.5 42t-13 56.5t-7 57 q-92 -84 -188 -132t-186 -48q-63 0 -99 41t-53 105q-14 49 -19 108.5t-5 112.5zM209 389q0 -111 17 -187.5t48 -109.5q72 0 164 42t185 112l75 579q-49 18 -105 31.5t-120 13.5q-23 0 -48.5 -4t-51.5 -14q-35 -27 -64.5 -75t-51 -110.5t-35 -133t-13.5 -144.5zM360 1389 q-6 10 0.5 27.5t21.5 33.5t38.5 28.5t56.5 16.5q49 -100 104.5 -189t139.5 -188q-6 -18 -20.5 -29.5t-30.5 -17.5q-123 82 -199 165t-111 153z" />
<glyph unicode="&#xe1;" horiz-adv-x="1015" d="M68 334q0 123 28.5 240.5t86 208.5t142.5 147.5t197 56.5q80 0 170 -17t162 -52q-8 -29 -12 -55.5t-8 -49.5l-93 -686q53 10 102.5 25.5t90.5 35.5q27 -20 37 -55q-25 -29 -61 -57.5t-74.5 -51t-76.5 -36t-65 -13.5q-20 0 -33.5 16.5t-22.5 42t-13 56.5t-7 57 q-92 -84 -188 -132t-186 -48q-63 0 -99 41t-53 105q-14 49 -19 108.5t-5 112.5zM209 389q0 -111 17 -187.5t48 -109.5q72 0 164 42t185 112l75 579q-49 18 -105 31.5t-120 13.5q-23 0 -48.5 -4t-51.5 -14q-35 -27 -64.5 -75t-51 -110.5t-35 -133t-13.5 -144.5zM403 1135 q135 88 233.5 165.5t164.5 157.5q25 -10 44 -28.5t29.5 -38t12.5 -38t-8 -30.5q-29 -29 -72 -62.5t-99.5 -67.5t-124 -66.5t-141.5 -59.5q-39 25 -39 68z" />
<glyph unicode="&#xe2;" horiz-adv-x="1015" d="M68 334q0 123 28.5 240.5t86 208.5t142.5 147.5t197 56.5q80 0 170 -17t162 -52q-8 -29 -12 -55.5t-8 -49.5l-93 -686q53 10 102.5 25.5t90.5 35.5q27 -20 37 -55q-25 -29 -61 -57.5t-74.5 -51t-76.5 -36t-65 -13.5q-20 0 -33.5 16.5t-22.5 42t-13 56.5t-7 57 q-92 -84 -188 -132t-186 -48q-63 0 -99 41t-53 105q-14 49 -19 108.5t-5 112.5zM209 389q0 -111 17 -187.5t48 -109.5q72 0 164 42t185 112l75 579q-49 18 -105 31.5t-120 13.5q-23 0 -48.5 -4t-51.5 -14q-35 -27 -64.5 -75t-51 -110.5t-35 -133t-13.5 -144.5zM311 1100 l267 338q10 12 30.5 21t41 14.5t37.5 3.5t22 -13l129 -374q-10 -16 -30 -25.5t-40 -7.5l-152 256l-251 -258q-20 4 -34 16t-20 29z" />
<glyph unicode="&#xe3;" horiz-adv-x="1015" d="M68 334q0 123 28.5 240.5t86 208.5t142.5 147.5t197 56.5q80 0 170 -17t162 -52q-8 -29 -12 -55.5t-8 -49.5l-93 -686q53 10 102.5 25.5t90.5 35.5q27 -20 37 -55q-25 -29 -61 -57.5t-74.5 -51t-76.5 -36t-65 -13.5q-20 0 -33.5 16.5t-22.5 42t-13 56.5t-7 57 q-92 -84 -188 -132t-186 -48q-63 0 -99 41t-53 105q-14 49 -19 108.5t-5 112.5zM209 389q0 -111 17 -187.5t48 -109.5q72 0 164 42t185 112l75 579q-49 18 -105 31.5t-120 13.5q-23 0 -48.5 -4t-51.5 -14q-35 -27 -64.5 -75t-51 -110.5t-35 -133t-13.5 -144.5zM223 1151 q25 41 60.5 81t74.5 70.5t75 49t63 18.5q31 0 60.5 -18.5t60 -43t62.5 -48t69 -35.5q16 4 39.5 17t48 31.5t49 40t45.5 42.5q39 -6 51 -39q-25 -41 -60.5 -81t-74.5 -70.5t-75 -49t-62 -18.5q-31 0 -61 18.5t-60.5 43t-62 48t-68.5 35.5q-16 -4 -40 -17.5t-48.5 -31.5 t-49 -39.5t-45.5 -42.5q-39 6 -51 39z" />
<glyph unicode="&#xe4;" horiz-adv-x="1015" d="M68 334q0 123 28.5 240.5t86 208.5t142.5 147.5t197 56.5q80 0 170 -17t162 -52q-8 -29 -12 -55.5t-8 -49.5l-93 -686q53 10 102.5 25.5t90.5 35.5q27 -20 37 -55q-25 -29 -61 -57.5t-74.5 -51t-76.5 -36t-65 -13.5q-20 0 -33.5 16.5t-22.5 42t-13 56.5t-7 57 q-92 -84 -188 -132t-186 -48q-63 0 -99 41t-53 105q-14 49 -19 108.5t-5 112.5zM209 389q0 -111 17 -187.5t48 -109.5q72 0 164 42t185 112l75 579q-49 18 -105 31.5t-120 13.5q-23 0 -48.5 -4t-51.5 -14q-35 -27 -64.5 -75t-51 -110.5t-35 -133t-13.5 -144.5zM324 1206 q0 41 27.5 71t68.5 30q94 -1 94 -101q0 -41 -26.5 -69.5t-67.5 -28.5q-96 0 -96 98zM686 1206q0 41 27.5 71t68.5 30q95 -1 95 -101q0 -41 -27 -69.5t-68 -28.5q-96 0 -96 98z" />
<glyph unicode="&#xe5;" horiz-adv-x="1015" d="M68 334q0 123 28.5 240.5t86 208.5t142.5 147.5t197 56.5q80 0 170 -17t162 -52q-8 -29 -12 -55.5t-8 -49.5l-93 -686q53 10 102.5 25.5t90.5 35.5q27 -20 37 -55q-25 -29 -61 -57.5t-74.5 -51t-76.5 -36t-65 -13.5q-20 0 -33.5 16.5t-22.5 42t-13 56.5t-7 57 q-92 -84 -188 -132t-186 -48q-63 0 -99 41t-53 105q-14 49 -19 108.5t-5 112.5zM209 389q0 -111 17 -187.5t48 -109.5q72 0 164 42t185 112l75 579q-49 18 -105 31.5t-120 13.5q-23 0 -48.5 -4t-51.5 -14q-35 -27 -64.5 -75t-51 -110.5t-35 -133t-13.5 -144.5zM399 1264 q0 45 19.5 86t52.5 72.5t77 51t91 19.5q72 0 124 -44t52 -118q0 -45 -19.5 -86t-52 -72.5t-76.5 -51t-92 -19.5q-72 0 -124 44t-52 118zM512 1292q0 -35 24.5 -64.5t61.5 -29.5q43 0 72 14q14 14 23 35t9 56t-24.5 64.5t-61.5 29.5q-43 0 -71 -15q-14 -14 -23.5 -34.5 t-9.5 -55.5z" />
<glyph unicode="&#xe6;" horiz-adv-x="1312" d="M18 195q0 102 50.5 172.5t133.5 116.5t186.5 72t211.5 40q10 51 10 102q0 33 -7 64t-24.5 55.5t-47 38.5t-72.5 14q-72 0 -147.5 -37.5t-149.5 -115.5q-20 8 -36.5 26.5t-23.5 44.5q92 100 190.5 147.5t196.5 47.5q100 0 158 -38t80 -105q63 72 143 109.5t168 37.5 q61 0 104.5 -23.5t71 -64.5t41 -95t13.5 -116q0 -35 -45 -72.5t-122 -77.5t-176.5 -80t-209.5 -77q6 -94 30.5 -169t65.5 -120q47 6 93 17.5t95.5 29t103.5 41t122 56.5q27 -25 30 -64q-145 -98 -268 -151.5t-209 -53.5q-111 0 -164 137q-8 20 -14 42l-12 44 q-45 -49 -96.5 -88t-102.5 -66.5t-97 -41.5t-81 -14q-98 0 -145.5 61t-47.5 154zM158 244q0 -51 29.5 -89t88.5 -38q37 0 76 12t78 33.5t77 49.5t68 58q-2 23 -3 46.5t-1 45.5q0 59 7 119q-86 -4 -182.5 -23.5t-176.5 -56.5q-61 -74 -61 -157zM713 481q139 53 237.5 102.5 t165.5 96.5q0 39 -8 75t-24.5 62.5t-43 43t-63.5 16.5q-53 -1 -94 -21q-68 -53 -116 -155.5t-54 -219.5z" />
<glyph unicode="&#xe7;" horiz-adv-x="770" d="M68 362q0 143 39.5 259t107.5 196t157 123t187 43q94 0 141.5 -25.5t65.5 -46.5q6 -6 -3 -22.5t-25.5 -33.5t-38 -32.5t-42.5 -23.5q-41 31 -91 46t-103 15q-41 0 -72 -8q-80 -59 -131 -166.5t-51 -232.5q0 -117 25.5 -212.5t72.5 -148.5q86 10 170 34t182 67 q27 -25 31 -64q-102 -66 -215 -115q-33 -14 -65 -22l-52 -84q76 -4 121 -42t45 -97q0 -47 -25.5 -90.5t-68.5 -80t-101.5 -65.5t-121.5 -49q-14 -4 -27.5 9t-13.5 36q37 18 76 41.5t69.5 49.5t50 53.5t19.5 58.5q0 43 -33 68.5t-98 21.5l-12 16l77 131q-20 -2 -41 -2 q-111 0 -163 137q-20 53 -31.5 122t-11.5 136z" />
<glyph unicode="&#xe8;" horiz-adv-x="811" d="M68 362q0 145 37.5 261t102 197t149.5 124t178 43q61 0 104 -23.5t70.5 -64.5t41 -95.5t13.5 -115.5q0 -35 -45 -72.5t-122 -77.5t-176 -80t-210 -77q6 -94 30.5 -169t65.5 -120q47 6 93 17.5t95.5 29t103.5 41t122 56.5q27 -25 31 -64q-145 -98 -268.5 -151.5 t-209.5 -53.5q-111 0 -163 137q-20 53 -31.5 122t-11.5 136zM209 481q139 53 237.5 102.5t165.5 96.5q0 39 -8 75t-24.5 62.5t-43 43t-63.5 16.5q-53 -1 -94 -21q-68 -53 -116 -155.5t-54 -219.5zM294 1389q-6 10 0.5 27.5t21.5 33.5t38.5 28.5t56.5 16.5 q49 -100 104.5 -189t139.5 -188q-6 -18 -20.5 -29.5t-30.5 -17.5q-123 82 -199 165t-111 153z" />
<glyph unicode="&#xe9;" horiz-adv-x="811" d="M68 362q0 145 37.5 261t102 197t149.5 124t178 43q61 0 104 -23.5t70.5 -64.5t41 -95.5t13.5 -115.5q0 -35 -45 -72.5t-122 -77.5t-176 -80t-210 -77q6 -94 30.5 -169t65.5 -120q47 6 93 17.5t95.5 29t103.5 41t122 56.5q27 -25 31 -64q-145 -98 -268.5 -151.5 t-209.5 -53.5q-111 0 -163 137q-20 53 -31.5 122t-11.5 136zM209 481q139 53 237.5 102.5t165.5 96.5q0 39 -8 75t-24.5 62.5t-43 43t-63.5 16.5q-53 -1 -94 -21q-68 -53 -116 -155.5t-54 -219.5zM337 1135q135 88 233.5 165.5t164.5 157.5q25 -10 44 -28.5t29.5 -38 t12.5 -38t-8 -30.5q-29 -29 -72 -62.5t-99.5 -67.5t-124 -66.5t-141.5 -59.5q-39 25 -39 68z" />
<glyph unicode="&#xea;" horiz-adv-x="811" d="M68 362q0 145 37.5 261t102 197t149.5 124t178 43q61 0 104 -23.5t70.5 -64.5t41 -95.5t13.5 -115.5q0 -35 -45 -72.5t-122 -77.5t-176 -80t-210 -77q6 -94 30.5 -169t65.5 -120q47 6 93 17.5t95.5 29t103.5 41t122 56.5q27 -25 31 -64q-145 -98 -268.5 -151.5 t-209.5 -53.5q-111 0 -163 137q-20 53 -31.5 122t-11.5 136zM209 481q139 53 237.5 102.5t165.5 96.5q0 39 -8 75t-24.5 62.5t-43 43t-63.5 16.5q-53 -1 -94 -21q-68 -53 -116 -155.5t-54 -219.5zM245 1100l267 338q10 12 30.5 21t41 14.5t37.5 3.5t22 -13l129 -374 q-10 -16 -30 -25.5t-40 -7.5l-152 256l-251 -258q-20 4 -34 16t-20 29z" />
<glyph unicode="&#xeb;" horiz-adv-x="811" d="M68 362q0 145 37.5 261t102 197t149.5 124t178 43q61 0 104 -23.5t70.5 -64.5t41 -95.5t13.5 -115.5q0 -35 -45 -72.5t-122 -77.5t-176 -80t-210 -77q6 -94 30.5 -169t65.5 -120q47 6 93 17.5t95.5 29t103.5 41t122 56.5q27 -25 31 -64q-145 -98 -268.5 -151.5 t-209.5 -53.5q-111 0 -163 137q-20 53 -31.5 122t-11.5 136zM209 481q139 53 237.5 102.5t165.5 96.5q0 39 -8 75t-24.5 62.5t-43 43t-63.5 16.5q-53 -1 -94 -21q-68 -53 -116 -155.5t-54 -219.5zM258 1206q0 41 27.5 71t68.5 30q94 -1 94 -101q0 -41 -26.5 -69.5 t-67.5 -28.5q-96 0 -96 98zM620 1206q0 41 27.5 71t68.5 30q95 -1 95 -101q0 -41 -27 -69.5t-68 -28.5q-96 0 -96 98z" />
<glyph unicode="&#xec;" horiz-adv-x="559" d="M63 860q-12 27 0 62q47 27 107.5 42t114.5 15q94 0 94 -107q0 -16 -1 -31.5t-3 -31.5l-105 -682q53 10 102.5 25.5t90.5 35.5q27 -20 37 -55q-25 -29 -61 -57.5t-75.5 -51t-77.5 -36t-65 -13.5q-49 0 -71.5 37t-22.5 78q0 16 2 36.5t6 43.5q10 72 21.5 141.5t24 148.5 t26.5 172t31 214q-41 8 -87.5 11t-87.5 3zM84 1389q-6 10 0.5 27.5t21.5 33.5t38.5 28.5t56.5 16.5q49 -100 104.5 -189t139.5 -188q-6 -18 -20.5 -29.5t-30.5 -17.5q-123 82 -199 165t-111 153z" />
<glyph unicode="&#xed;" horiz-adv-x="559" d="M63 860q-12 27 0 62q47 27 107.5 42t114.5 15q94 0 94 -107q0 -16 -1 -31.5t-3 -31.5l-105 -682q53 10 102.5 25.5t90.5 35.5q27 -20 37 -55q-25 -29 -61 -57.5t-75.5 -51t-77.5 -36t-65 -13.5q-49 0 -71.5 37t-22.5 78q0 16 2 36.5t6 43.5q10 72 21.5 141.5t24 148.5 t26.5 172t31 214q-41 8 -87.5 11t-87.5 3zM127 1135q135 88 233.5 165.5t164.5 157.5q25 -10 44 -28.5t29.5 -38t12.5 -38t-8 -30.5q-29 -29 -72 -62.5t-99.5 -67.5t-124 -66.5t-141.5 -59.5q-39 25 -39 68z" />
<glyph unicode="&#xee;" horiz-adv-x="559" d="M35 1100l267 338q10 12 30.5 21t41 14.5t37.5 3.5t22 -13l129 -374q-10 -16 -30 -25.5t-40 -7.5l-152 256l-251 -258q-20 4 -34 16t-20 29zM63 860q-12 27 0 62q47 27 107.5 42t114.5 15q94 0 94 -107q0 -16 -1 -31.5t-3 -31.5l-105 -682q53 10 102.5 25.5t90.5 35.5 q27 -20 37 -55q-25 -29 -61 -57.5t-75.5 -51t-77.5 -36t-65 -13.5q-49 0 -71.5 37t-22.5 78q0 16 2 36.5t6 43.5q10 72 21.5 141.5t24 148.5t26.5 172t31 214q-41 8 -87.5 11t-87.5 3z" />
<glyph unicode="&#xef;" horiz-adv-x="559" d="M63 860q-12 27 0 62q47 27 107.5 42t114.5 15q94 0 94 -107q0 -16 -1 -31.5t-3 -31.5l-105 -682q53 10 102.5 25.5t90.5 35.5q27 -20 37 -55q-25 -29 -61 -57.5t-75.5 -51t-77.5 -36t-65 -13.5q-49 0 -71.5 37t-22.5 78q0 16 2 36.5t6 43.5q10 72 21.5 141.5t24 148.5 t26.5 172t31 214q-41 8 -87.5 11t-87.5 3zM92 1206q0 41 26.5 71t63.5 30q90 -1 90 -101q0 -41 -24.5 -69.5t-65.5 -28.5q-90 0 -90 98zM373 1206q0 41 25.5 71t64.5 30q90 -1 90 -101q0 -41 -24.5 -69.5t-65.5 -28.5q-90 0 -90 98z" />
<glyph unicode="&#xf0;" horiz-adv-x="948" d="M72 354q0 125 32.5 234.5t94 190.5t147.5 128t193 47q37 0 70.5 -10t64.5 -26q-23 96 -58.5 179t-95.5 158l-231 -172q-14 6 -28.5 17.5t-24 26t-9.5 28.5t15 25l213 153q-78 80 -185 160q6 47 52 68q131 -72 225 -160l203 153q12 -6 26.5 -18t23.5 -25.5t10 -28 t-13 -24.5l-181 -131q125 -147 177.5 -331.5t52.5 -403.5q0 -133 -34 -247t-98.5 -198t-156.5 -132t-211 -48q-84 0 -137 38t-84 95.5t-42 125t-11 128.5zM211 436q0 -160 48 -256t167 -96q39 0 78.5 14.5t66.5 30.5q23 25 47.5 61.5t44 85t33 103.5t13.5 115v28 q-2 68 -16.5 127.5t-41 102.5t-65.5 68.5t-90 25.5q-41 0 -78 -13.5t-70 -29.5q-59 -59 -98 -154.5t-39 -212.5z" />
<glyph unicode="&#xf1;" horiz-adv-x="1062" d="M57 860q-12 27 0 62q51 29 108.5 43t106.5 14q96 0 97 -115q0 -10 -1 -22.5t-3 -24.5q100 82 197 126t181 44q86 0 126 -58.5t40 -140.5q0 -53 -9 -124.5t-24.5 -157.5t-35 -182.5t-41.5 -196.5q53 10 102 25.5t90 35.5q27 -20 37 -55q-25 -29 -60.5 -57.5t-74.5 -51 t-77 -36t-64 -13.5q-49 0 -72 37t-23 78q0 29 7 64q20 96 38.5 190t33 173t22.5 137.5t8 80.5q0 47 -9 83t-38 50q-78 -10 -173 -50t-196 -111q-23 -160 -43 -336t-43 -336q-4 -23 -47 -35t-96 -6l-15 14q35 174 59.5 340t43.5 309l24 189q-43 10 -86 12t-90 2zM260 1151 q25 41 60.5 81t74.5 70.5t75 49t63 18.5q31 0 60.5 -18.5t60 -43t62.5 -48t69 -35.5q16 4 39.5 17t48 31.5t49 40t45.5 42.5q39 -6 51 -39q-25 -41 -60.5 -81t-74.5 -70.5t-75 -49t-62 -18.5q-31 0 -61 18.5t-60.5 43t-62 48t-68.5 35.5q-16 -4 -40 -17.5t-48.5 -31.5 t-49 -39.5t-45.5 -42.5q-39 6 -51 39z" />
<glyph unicode="&#xf2;" horiz-adv-x="919" d="M72 367q0 131 33.5 243.5t98 196.5t158 132t211.5 48q82 0 135.5 -38t84 -97t43 -130t12.5 -134q0 -131 -34 -244t-98.5 -197t-157.5 -132t-212 -48q-84 0 -137 38t-84 97.5t-42 129t-11 135.5zM211 459q0 -176 48 -275.5t167 -99.5q41 0 80 14.5t65 30.5 q23 25 47.5 61.5t44 85t33 103.5t13.5 117q0 176 -48.5 275t-166.5 99q-41 0 -80 -14t-66 -31q-23 -25 -47.5 -61.5t-44.5 -84.5t-32.5 -103.5t-12.5 -116.5zM317 1389q-6 10 0.5 27.5t21.5 33.5t38.5 28.5t56.5 16.5q49 -100 104.5 -189t139.5 -188q-6 -18 -20.5 -29.5 t-30.5 -17.5q-123 82 -199 165t-111 153z" />
<glyph unicode="&#xf3;" horiz-adv-x="919" d="M72 367q0 131 33.5 243.5t98 196.5t158 132t211.5 48q82 0 135.5 -38t84 -97t43 -130t12.5 -134q0 -131 -34 -244t-98.5 -197t-157.5 -132t-212 -48q-84 0 -137 38t-84 97.5t-42 129t-11 135.5zM211 459q0 -176 48 -275.5t167 -99.5q41 0 80 14.5t65 30.5 q23 25 47.5 61.5t44 85t33 103.5t13.5 117q0 176 -48.5 275t-166.5 99q-41 0 -80 -14t-66 -31q-23 -25 -47.5 -61.5t-44.5 -84.5t-32.5 -103.5t-12.5 -116.5zM360 1135q135 88 233.5 165.5t164.5 157.5q25 -10 44 -28.5t29.5 -38t12.5 -38t-8 -30.5q-29 -29 -72 -62.5 t-99.5 -67.5t-124 -66.5t-141.5 -59.5q-39 25 -39 68z" />
<glyph unicode="&#xf4;" horiz-adv-x="919" d="M72 367q0 131 33.5 243.5t98 196.5t158 132t211.5 48q82 0 135.5 -38t84 -97t43 -130t12.5 -134q0 -131 -34 -244t-98.5 -197t-157.5 -132t-212 -48q-84 0 -137 38t-84 97.5t-42 129t-11 135.5zM211 459q0 -176 48 -275.5t167 -99.5q41 0 80 14.5t65 30.5 q23 25 47.5 61.5t44 85t33 103.5t13.5 117q0 176 -48.5 275t-166.5 99q-41 0 -80 -14t-66 -31q-23 -25 -47.5 -61.5t-44.5 -84.5t-32.5 -103.5t-12.5 -116.5zM268 1100l267 338q10 12 30.5 21t41 14.5t37.5 3.5t22 -13l129 -374q-10 -16 -30 -25.5t-40 -7.5l-152 256 l-251 -258q-20 4 -34 16t-20 29z" />
<glyph unicode="&#xf5;" horiz-adv-x="919" d="M72 367q0 131 33.5 243.5t98 196.5t158 132t211.5 48q82 0 135.5 -38t84 -97t43 -130t12.5 -134q0 -131 -34 -244t-98.5 -197t-157.5 -132t-212 -48q-84 0 -137 38t-84 97.5t-42 129t-11 135.5zM180 1151q25 41 60.5 81t74.5 70.5t75 49t63 18.5q31 0 60.5 -18.5t60 -43 t62.5 -48t69 -35.5q16 4 39.5 17t48 31.5t49 40t45.5 42.5q39 -6 51 -39q-25 -41 -60.5 -81t-74.5 -70.5t-75 -49t-62 -18.5q-31 0 -61 18.5t-60.5 43t-62 48t-68.5 35.5q-16 -4 -40 -17.5t-48.5 -31.5t-49 -39.5t-45.5 -42.5q-39 6 -51 39zM211 459q0 -176 48 -275.5 t167 -99.5q41 0 80 14.5t65 30.5q23 25 47.5 61.5t44 85t33 103.5t13.5 117q0 176 -48.5 275t-166.5 99q-41 0 -80 -14t-66 -31q-23 -25 -47.5 -61.5t-44.5 -84.5t-32.5 -103.5t-12.5 -116.5z" />
<glyph unicode="&#xf6;" horiz-adv-x="919" d="M72 367q0 131 33.5 243.5t98 196.5t158 132t211.5 48q82 0 135.5 -38t84 -97t43 -130t12.5 -134q0 -131 -34 -244t-98.5 -197t-157.5 -132t-212 -48q-84 0 -137 38t-84 97.5t-42 129t-11 135.5zM211 459q0 -176 48 -275.5t167 -99.5q41 0 80 14.5t65 30.5 q23 25 47.5 61.5t44 85t33 103.5t13.5 117q0 176 -48.5 275t-166.5 99q-41 0 -80 -14t-66 -31q-23 -25 -47.5 -61.5t-44.5 -84.5t-32.5 -103.5t-12.5 -116.5zM281 1206q0 41 27.5 71t68.5 30q94 -1 94 -101q0 -41 -26.5 -69.5t-67.5 -28.5q-96 0 -96 98zM643 1206 q0 41 27.5 71t68.5 30q95 -1 95 -101q0 -41 -27 -69.5t-68 -28.5q-96 0 -96 98z" />
<glyph unicode="&#xf7;" d="M127 467q-2 29 2 57.5t12 57.5h811q2 -29 -2 -57.5t-12 -57.5h-811zM406 201q0 41 33.5 69.5t70.5 28.5q35 0 59.5 -22.5t24.5 -57.5q0 -41 -34 -70.5t-73 -29.5q-35 0 -58 23.5t-23 58.5zM485 823q0 41 34 70t71 29q35 0 59.5 -22.5t24.5 -57.5q0 -41 -34 -71t-73 -30 q-35 0 -58.5 23.5t-23.5 58.5z" />
<glyph unicode="&#xf8;" horiz-adv-x="919" d="M72 367q0 131 33.5 243.5t98 196.5t158 132t211.5 48q90 0 150 -49l70 98q33 -2 57 -26.5t10 -44.5l-74 -103q35 -59 48.5 -133t13.5 -141q0 -131 -34 -244t-98.5 -197t-157.5 -132t-212 -48q-82 0 -137 39l-62 -96q-33 2 -57 26.5t-10 45.5l61 94q-41 61 -55 140 t-14 151zM211 459q0 -152 33 -242l395 586q-55 68 -145 67q-41 0 -80 -14t-66 -31q-23 -25 -47.5 -61.5t-44.5 -84.5t-32.5 -103.5t-12.5 -116.5zM299 129q51 -45 127 -45q41 0 80 14.5t65 30.5q23 25 47.5 61.5t44 85t33 103.5t13.5 117q0 59 -5.5 111t-17.5 95z" />
<glyph unicode="&#xf9;" horiz-adv-x="1062" d="M72 860q-12 27 0 62q51 29 109.5 43t107.5 14q100 0 100 -115q0 -10 -1 -29.5t-5 -33.5q-20 -96 -38.5 -190.5t-33 -173.5t-22.5 -137t-8 -81q0 -47 8 -83t37 -50q70 8 153.5 44t175.5 97q12 88 23.5 181.5t23 183.5t21.5 175t20 159q4 23 44 35t94 6l14 -15 q-31 -170 -60.5 -385t-56.5 -440q53 10 101.5 25.5t89.5 35.5q27 -20 37 -55q-25 -29 -61 -57.5t-75 -51t-76.5 -36t-64.5 -13.5q-18 0 -30.5 13.5t-21.5 35t-14.5 48t-7.5 51.5q-94 -74 -184 -115t-168 -41q-86 0 -126 58.5t-40 140.5q0 45 6.5 106.5t20.5 144.5 t34.5 189.5t49.5 239.5q-43 10 -86 12t-90 2zM364 1389q-6 10 0.5 27.5t21.5 33.5t38.5 28.5t56.5 16.5q49 -100 104.5 -189t139.5 -188q-6 -18 -20.5 -29.5t-30.5 -17.5q-123 82 -199 165t-111 153z" />
<glyph unicode="&#xfa;" horiz-adv-x="1062" d="M72 860q-12 27 0 62q51 29 109.5 43t107.5 14q100 0 100 -115q0 -10 -1 -29.5t-5 -33.5q-20 -96 -38.5 -190.5t-33 -173.5t-22.5 -137t-8 -81q0 -47 8 -83t37 -50q70 8 153.5 44t175.5 97q12 88 23.5 181.5t23 183.5t21.5 175t20 159q4 23 44 35t94 6l14 -15 q-31 -170 -60.5 -385t-56.5 -440q53 10 101.5 25.5t89.5 35.5q27 -20 37 -55q-25 -29 -61 -57.5t-75 -51t-76.5 -36t-64.5 -13.5q-18 0 -30.5 13.5t-21.5 35t-14.5 48t-7.5 51.5q-94 -74 -184 -115t-168 -41q-86 0 -126 58.5t-40 140.5q0 45 6.5 106.5t20.5 144.5 t34.5 189.5t49.5 239.5q-43 10 -86 12t-90 2zM407 1135q135 88 233.5 165.5t164.5 157.5q25 -10 44 -28.5t29.5 -38t12.5 -38t-8 -30.5q-29 -29 -72 -62.5t-99.5 -67.5t-124 -66.5t-141.5 -59.5q-39 25 -39 68z" />
<glyph unicode="&#xfb;" horiz-adv-x="1062" d="M72 860q-12 27 0 62q51 29 109.5 43t107.5 14q100 0 100 -115q0 -10 -1 -29.5t-5 -33.5q-20 -96 -38.5 -190.5t-33 -173.5t-22.5 -137t-8 -81q0 -47 8 -83t37 -50q70 8 153.5 44t175.5 97q12 88 23.5 181.5t23 183.5t21.5 175t20 159q4 23 44 35t94 6l14 -15 q-31 -170 -60.5 -385t-56.5 -440q53 10 101.5 25.5t89.5 35.5q27 -20 37 -55q-25 -29 -61 -57.5t-75 -51t-76.5 -36t-64.5 -13.5q-18 0 -30.5 13.5t-21.5 35t-14.5 48t-7.5 51.5q-94 -74 -184 -115t-168 -41q-86 0 -126 58.5t-40 140.5q0 45 6.5 106.5t20.5 144.5 t34.5 189.5t49.5 239.5q-43 10 -86 12t-90 2zM315 1100l267 338q10 12 30.5 21t41 14.5t37.5 3.5t22 -13l129 -374q-10 -16 -30 -25.5t-40 -7.5l-152 256l-251 -258q-20 4 -34 16t-20 29z" />
<glyph unicode="&#xfc;" horiz-adv-x="1062" d="M72 860q-12 27 0 62q51 29 109.5 43t107.5 14q100 0 100 -115q0 -10 -1 -29.5t-5 -33.5q-20 -96 -38.5 -190.5t-33 -173.5t-22.5 -137t-8 -81q0 -47 8 -83t37 -50q70 8 153.5 44t175.5 97q12 88 23.5 181.5t23 183.5t21.5 175t20 159q4 23 44 35t94 6l14 -15 q-31 -170 -60.5 -385t-56.5 -440q53 10 101.5 25.5t89.5 35.5q27 -20 37 -55q-25 -29 -61 -57.5t-75 -51t-76.5 -36t-64.5 -13.5q-18 0 -30.5 13.5t-21.5 35t-14.5 48t-7.5 51.5q-94 -74 -184 -115t-168 -41q-86 0 -126 58.5t-40 140.5q0 45 6.5 106.5t20.5 144.5 t34.5 189.5t49.5 239.5q-43 10 -86 12t-90 2zM328 1206q0 41 27.5 71t68.5 30q94 -1 94 -101q0 -41 -26.5 -69.5t-67.5 -28.5q-96 0 -96 98zM690 1206q0 41 27.5 71t68.5 30q95 -1 95 -101q0 -41 -27 -69.5t-68 -28.5q-96 0 -96 98z" />
<glyph unicode="&#xfd;" horiz-adv-x="964" d="M-25 -465q0 23 30 73t78 110.5t108.5 124t121.5 114.5v137q0 219 -21.5 401.5t-92.5 342.5q-43 -2 -84 -9.5t-82 -15.5q-23 18 -23 53q20 25 51 45.5t64 36t64.5 24.5t54.5 9q55 0 102 -80q20 -37 37.5 -94t30 -126t19.5 -145.5t7 -152.5q0 -78 -3 -150.5t-7 -138.5h4 q164 176 233.5 362.5t69.5 403.5q0 27 -2 52.5t-8 52.5l14 14q55 -2 96.5 -14.5t51.5 -46.5q8 -27 11 -56.5t3 -60.5q0 -188 -122 -396t-332 -448q-117 -133 -198 -254t-138 -246l-15 -12q-43 6 -83 32.5t-40 57.5zM348 1135q135 88 233.5 165.5t164.5 157.5 q25 -10 44 -28.5t29.5 -38t12.5 -38t-8 -30.5q-29 -29 -72 -62.5t-99.5 -67.5t-124 -66.5t-141.5 -59.5q-39 25 -39 68z" />
<glyph unicode="&#xfe;" horiz-adv-x="974" d="M20 -508q29 162 53.5 330t47.5 348l160 1253q-43 10 -85 12.5t-90 2.5q-12 27 0 61q51 29 108.5 43t107.5 14q96 0 96 -114q0 -10 -1 -26.5t-3 -29.5l-76 -577q92 82 186 127t185 45q66 0 103.5 -39t53.5 -102q14 -49 19.5 -107.5t5.5 -111.5q0 -123 -30 -240t-87 -207 t-143 -145.5t-199 -55.5q-88 0 -194 47q-16 -127 -29.5 -253.5t-26.5 -247.5q-4 -23 -49 -35t-98 -6zM254 164q109 -74 227 -74q23 0 48.5 4t52.5 15q33 27 63.5 74.5t54 108t37 131.5t13.5 142q0 115 -18.5 185.5t-49.5 109.5q-72 0 -168 -42t-190 -113l-52 -402z" />
<glyph unicode="&#xff;" horiz-adv-x="964" d="M-25 -465q0 23 30 73t78 110.5t108.5 124t121.5 114.5v137q0 219 -21.5 401.5t-92.5 342.5q-43 -2 -84 -9.5t-82 -15.5q-23 18 -23 53q20 25 51 45.5t64 36t64.5 24.5t54.5 9q55 0 102 -80q20 -37 37.5 -94t30 -126t19.5 -145.5t7 -152.5q0 -78 -3 -150.5t-7 -138.5h4 q164 176 233.5 362.5t69.5 403.5q0 27 -2 52.5t-8 52.5l14 14q55 -2 96.5 -14.5t51.5 -46.5q8 -27 11 -56.5t3 -60.5q0 -188 -122 -396t-332 -448q-117 -133 -198 -254t-138 -246l-15 -12q-43 6 -83 32.5t-40 57.5zM269 1206q0 41 27.5 71t68.5 30q94 -1 94 -101 q0 -41 -26.5 -69.5t-67.5 -28.5q-96 0 -96 98zM631 1206q0 41 27.5 71t68.5 30q95 -1 95 -101q0 -41 -27 -69.5t-68 -28.5q-96 0 -96 98z" />
<glyph unicode="&#x152;" horiz-adv-x="1775" d="M88 551q0 156 44 307.5t131 271t217 193.5t300 74q66 0 129.5 -7.5t126.5 -19.5h455q66 0 127 1t111 3l12 -14q-8 -78 -23.5 -166t-36.5 -166q-41 -16 -86 2q4 61 4 118.5t-8 111.5h-442l-66 -506q98 6 194.5 14t219.5 12l14 -14q0 -47 -19 -81t-46 -34q-102 4 -189.5 6 t-185.5 2l-72 -546h478q29 61 52 122.5t46 126.5q39 10 86 -6q-10 -92 -26.5 -179t-39.5 -165l-12 -14q-45 2 -102.5 3t-118.5 1h-502q-72 -12 -151.5 -19.5t-145.5 -7.5q-121 0 -211 44t-148.5 121t-87 182.5t-28.5 228.5zM231 627q0 -106 21.5 -202.5t70 -168.5 t122.5 -115t178 -43q49 0 112.5 6.5t124.5 16.5l150 1136q-63 8 -134 12.5t-139 4.5q-150 0 -262 -66q-37 -33 -80 -88t-79.5 -128.5t-60.5 -166t-24 -198.5z" />
<glyph unicode="&#x153;" horiz-adv-x="1447" d="M72 367q0 131 33.5 243.5t98 196.5t158 132t211.5 48q55 0 96.5 -17.5t71 -48t49 -70.5t29.5 -83q66 104 157 161.5t195 57.5q61 0 104.5 -23.5t71 -64.5t41 -95t13.5 -116q0 -35 -45 -72.5t-122 -77.5t-176.5 -80t-209.5 -77q6 -94 30.5 -169t65.5 -120q47 6 93 17.5 t95.5 29t103.5 41t122 56.5q27 -25 31 -64q-145 -98 -268.5 -151.5t-209.5 -53.5q-39 0 -68.5 17.5t-51 47t-37 67.5t-23.5 79q-63 -98 -159.5 -154.5t-225.5 -56.5q-84 0 -137 38t-84 97.5t-42 129t-11 135.5zM211 459q0 -176 48 -275.5t167 -99.5q41 0 80 14.5t65 30.5 q23 25 47.5 61.5t44 85t33 103.5t13.5 117q0 176 -48.5 275t-166.5 99q-41 0 -80 -14t-66 -31q-23 -25 -47.5 -61.5t-44.5 -84.5t-32.5 -103.5t-12.5 -116.5zM846 481q139 53 237.5 102.5t165.5 96.5q0 39 -8 75t-24.5 62.5t-43 43t-63.5 16.5q-53 -1 -94 -21 q-68 -53 -116 -155.5t-54 -219.5z" />
<glyph unicode="&#x178;" horiz-adv-x="1130" d="M29 1290q2 20 7 41t17 43q59 0 115.5 -2t118.5 -2h119q33 0 60.5 1t45.5 3q12 -39 2 -84l-180 -39l229 -610l387 608l-182 41q4 23 9 42.5t20 41.5q66 0 124 -2t103 -2h100q33 0 65 1t52 3q10 -41 0 -84q-35 -14 -71.5 -24.5t-77.5 -14.5l-478 -741l-28 -219 q-6 -45 -9.5 -87t-5.5 -83q47 -4 98.5 -14.5t86.5 -24.5q-4 -45 -25 -84q-20 2 -55 3t-74 1h-127q-59 0 -129 -2t-135 -2q-6 23 -6 42t4 42q45 4 101.5 14t103.5 25q10 29 15 60.5t9 64.5l31 243l-291 762q-37 14 -73.5 24.5t-75.5 14.5zM424 1620q0 41 27.5 68.5t66.5 27.5 q90 0 90 -96q0 -41 -25.5 -67.5t-64.5 -26.5q-94 0 -94 94zM768 1620q0 41 26.5 68.5t65.5 27.5q92 0 92 -96q0 -41 -25.5 -67.5t-66.5 -26.5q-92 0 -92 94z" />
<glyph unicode="&#x2c6;" horiz-adv-x="849" d="M137 1100l267 338q10 12 30.5 21t41 14.5t37.5 3.5t22 -13l129 -374q-10 -16 -30 -25.5t-40 -7.5l-152 256l-251 -258q-20 4 -34 16t-20 29z" />
<glyph unicode="&#x2dc;" horiz-adv-x="849" d="M49 1151q25 41 60.5 81t74.5 70.5t75 49t63 18.5q31 0 60.5 -18.5t60 -43t62.5 -48t69 -35.5q16 4 39.5 17t48 31.5t49 40t45.5 42.5q39 -6 51 -39q-25 -41 -60.5 -81t-74.5 -70.5t-75 -49t-62 -18.5q-31 0 -61 18.5t-60.5 43t-62 48t-68.5 35.5q-16 -4 -40 -17.5 t-48.5 -31.5t-49 -39.5t-45.5 -42.5q-39 6 -51 39z" />
<glyph unicode="&#x2000;" horiz-adv-x="918" />
<glyph unicode="&#x2001;" horiz-adv-x="1837" />
<glyph unicode="&#x2002;" horiz-adv-x="918" />
<glyph unicode="&#x2003;" horiz-adv-x="1837" />
<glyph unicode="&#x2004;" horiz-adv-x="612" />
<glyph unicode="&#x2005;" horiz-adv-x="459" />
<glyph unicode="&#x2006;" horiz-adv-x="306" />
<glyph unicode="&#x2007;" horiz-adv-x="306" />
<glyph unicode="&#x2008;" horiz-adv-x="229" />
<glyph unicode="&#x2009;" horiz-adv-x="367" />
<glyph unicode="&#x200a;" horiz-adv-x="102" />
<glyph unicode="&#x2010;" horiz-adv-x="778" d="M123 477q0 20 6 41t14 35l496 10q8 0 12 -12t4 -29q0 -20 -6 -40.5t-14 -35.5l-496 -10q-8 0 -12 12.5t-4 28.5z" />
<glyph unicode="&#x2011;" horiz-adv-x="778" d="M123 477q0 20 6 41t14 35l496 10q8 0 12 -12t4 -29q0 -20 -6 -40.5t-14 -35.5l-496 -10q-8 0 -12 12.5t-4 28.5z" />
<glyph unicode="&#x2012;" horiz-adv-x="778" d="M123 477q0 20 6 41t14 35l496 10q8 0 12 -12t4 -29q0 -20 -6 -40.5t-14 -35.5l-496 -10q-8 0 -12 12.5t-4 28.5z" />
<glyph unicode="&#x2013;" horiz-adv-x="999" d="M113 446q-6 35 3 69t40 34h733q6 -35 -4.5 -69t-38.5 -34h-733z" />
<glyph unicode="&#x2014;" horiz-adv-x="2048" d="M207 446q-6 35 3 69t40 34h1593q6 -35 -4 -69t-39 -34h-1593z" />
<glyph unicode="&#x2018;" horiz-adv-x="458" d="M162 1202q0 57 28.5 115.5t73.5 111t99.5 93.5t103.5 65q16 -8 25.5 -23.5t7.5 -33.5q-25 -20 -51.5 -47t-50 -57.5t-38 -64.5t-14.5 -69q1 -60 60 -80q-29 -115 -142 -141q-47 14 -74.5 47t-27.5 84z" />
<glyph unicode="&#x2019;" horiz-adv-x="458" d="M135 1153q25 20 51.5 46t50 56.5t38 65.5t14.5 70q-1 59 -60 79q29 115 142 142q47 -14 74.5 -47t27.5 -84q0 -57 -28.5 -115.5t-73.5 -111t-99.5 -93.5t-103.5 -65q-16 8 -25.5 23.5t-7.5 33.5z" />
<glyph unicode="&#x201a;" horiz-adv-x="452" d="M-41 -229q25 20 51.5 45.5t50 56.5t38 65.5t14.5 69.5q-1 60 -60 80q29 115 142 141q47 -14 74.5 -46.5t27.5 -84.5q0 -57 -28.5 -115.5t-73.5 -110.5t-99.5 -93t-103.5 -66q-16 8 -25.5 23.5t-7.5 34.5z" />
<glyph unicode="&#x201c;" horiz-adv-x="808" d="M162 1202q0 57 28.5 115.5t73.5 111t99.5 93.5t103.5 65q16 -8 25.5 -23.5t7.5 -33.5q-25 -20 -51.5 -47t-50 -57.5t-38 -64.5t-14.5 -69q1 -60 60 -80q-29 -115 -142 -141q-47 14 -74.5 47t-27.5 84zM514 1202q0 57 28.5 115.5t73.5 111t99.5 93.5t103.5 65 q16 -8 25.5 -23.5t7.5 -33.5q-25 -20 -51.5 -47t-50 -57.5t-38 -64.5t-14.5 -69q1 -60 60 -80q-29 -115 -142 -141q-47 14 -74.5 47t-27.5 84z" />
<glyph unicode="&#x201d;" horiz-adv-x="808" d="M135 1153q25 20 51.5 46t50 56.5t38 65.5t14.5 70q-1 59 -60 79q29 115 142 142q47 -14 74.5 -47t27.5 -84q0 -57 -28.5 -115.5t-73.5 -111t-99.5 -93.5t-103.5 -65q-16 8 -25.5 23.5t-7.5 33.5zM487 1153q25 20 51.5 46t50 56.5t38 65.5t14.5 70q-1 59 -60 79 q29 115 142 142q47 -14 74.5 -47t27.5 -84q0 -57 -28.5 -115.5t-73.5 -111t-99.5 -93.5t-103.5 -65q-16 8 -25.5 23.5t-7.5 33.5z" />
<glyph unicode="&#x201e;" horiz-adv-x="802" d="M-41 -229q25 20 51.5 45.5t50 56.5t38 65.5t14.5 69.5q-1 60 -60 80q29 115 142 141q47 -14 74.5 -46.5t27.5 -84.5q0 -57 -28.5 -115.5t-73.5 -110.5t-99.5 -93t-103.5 -66q-16 8 -25.5 23.5t-7.5 34.5zM311 -229q25 20 51.5 45.5t50 56.5t38 65.5t14.5 69.5 q-1 60 -60 80q29 115 142 141q47 -14 74.5 -46.5t27.5 -84.5q0 -57 -28.5 -115.5t-73.5 -110.5t-99.5 -93t-103.5 -66q-16 8 -25.5 23.5t-7.5 34.5z" />
<glyph unicode="&#x2022;" horiz-adv-x="1390" d="M401 537q0 57 22.5 107t62.5 87t93.5 57.5t114.5 20.5t115.5 -20.5t93.5 -57.5t61.5 -87t22.5 -107q0 -59 -22.5 -110.5t-61.5 -90.5t-93 -61.5t-116 -22.5q-61 0 -114.5 22.5t-93.5 61.5t-62.5 90.5t-22.5 110.5z" />
<glyph unicode="&#x2026;" horiz-adv-x="1482" d="M80 78q0 51 40 91t97 40q49 0 80 -28.5t31 -74.5q0 -51 -40 -93t-100 -42q-47 0 -77.5 30t-30.5 77zM557 78q0 51 40 91t97 40q49 0 80 -28.5t31 -74.5q0 -51 -40 -93t-100 -42q-47 0 -77.5 30t-30.5 77zM1032 78q0 51 40 91t97 40q49 0 80 -28.5t31 -74.5q0 -51 -40 -93 t-100 -42q-47 0 -77.5 30t-30.5 77z" />
<glyph unicode="&#x202f;" horiz-adv-x="367" />
<glyph unicode="&#x2039;" horiz-adv-x="718" d="M88 458.5q-2 16.5 0 33t9 33t18 26.5l415 391q45 -18 66 -61l-342 -383l264 -377q-29 -51 -90 -68l-330 381q-8 8 -10 24.5z" />
<glyph unicode="&#x203a;" horiz-adv-x="718" d="M119 115l342 383l-264 376q29 51 90 68l329 -381q14 -18 9.5 -57t-25.5 -60l-416 -391q-45 18 -65 62z" />
<glyph unicode="&#x205f;" horiz-adv-x="459" />
<glyph unicode="&#x20ac;" horiz-adv-x="1009" d="M57 487q-6 45 13 97h106q2 41 5 78.5t12 76.5h-107q-6 45 12 97h115q31 111 82 201.5t118.5 157.5t148.5 102.5t173 35.5q78 0 153 -14t140 -37q-27 -186 -84 -319q-47 -14 -86 10q4 53 7 105t-1 112q-31 8 -78 14t-90 6q-53 0 -102 -14t-90 -43q-47 -66 -89 -144.5 t-67 -172.5h397q6 -45 -12 -97h-405q-6 -35 -8.5 -69.5t-2.5 -71.5v-14h396q6 -45 -13 -97h-376q8 -76 29.5 -145.5t57 -123.5t88 -87t124.5 -33q70 0 134 27t136 65q31 -27 37 -75q-84 -66 -180.5 -108t-188.5 -42q-90 0 -159.5 41t-119 112.5t-77 166t-31.5 202.5h-117z " />
<glyph unicode="&#x2122;" horiz-adv-x="1470" d="M121 1356l16 16h688l181 -373l22 -79h2l172 452h191q14 -33 8 -65l-78 -21l25 -407l82 -19q8 -35 -7 -65h-252q-14 31 -6 65l86 19l-16 251l-4 107h-2l-162 -436q-20 -4 -33.5 -6t-38.5 -4l-159 335l-33 103h-4l-23 -350l90 -21q6 -33 -6 -63h-244q-12 27 -6 65l88 19 l17 409h-277v-409l117 -21q0 -39 -6 -63h-322q-12 29 -6 65l119 19v409h-141l-13 -114q-27 -8 -49 0z" />
<glyph unicode="&#x25fc;" horiz-adv-x="983" d="M0 0v983h983v-983h-983z" />
<glyph unicode="&#xfb01;" horiz-adv-x="1110" d="M51 -508q29 162 53.5 330t47.5 348l65 514q4 43 10 83t11 77h-183q0 18 1 37.5t4 37t10.5 28.5t21.5 11l160 3l39 266q12 78 46 139t83 103t111.5 64.5t134.5 22.5q104 0 186 -35.5t133 -97.5q12 -16 5 -38.5t-25.5 -44t-42 -38t-39.5 -18.5q-68 90 -142.5 120t-152.5 30 q-51 0 -90 -17q-18 -16 -35 -62t-30 -110.5t-25.5 -138.5t-20.5 -143l291 6q41 0 83 1t79 1q86 0 86 -105q0 -43 -4 -63l-95 -676q53 10 102.5 25.5t90.5 35.5q27 -20 37 -55q-25 -29 -60.5 -57.5t-75.5 -51t-78 -36t-65 -13.5q-49 0 -71.5 37t-22.5 78q0 16 2 36.5t6 43.5 q10 72 20.5 141.5t21.5 147.5t23.5 172t26.5 215l-413 -2q-2 -10 -3 -18.5t-1 -16.5l-64 -506q-23 -186 -46.5 -390t-43.5 -394q-4 -23 -49 -35t-98 -6z" />
<glyph unicode="&#xfb02;" horiz-adv-x="1073" d="M51 -508q29 162 53.5 330t47.5 348l65 514q4 43 10 83t11 77h-183q0 18 1 37.5t4 37t10.5 28.5t21.5 11h160l39 269q12 78 46 139t83 103t111.5 64.5t134.5 22.5q33 0 57.5 -5t44.5 -15q57 20 100 20q94 0 95 -116q0 -10 -1 -25.5t-4 -28.5l-165 -1259q53 10 102 25.5 t90 35.5q27 -20 37 -55q-25 -31 -60.5 -58.5t-74.5 -50t-77 -36t-65 -13.5q-51 0 -73.5 37t-22.5 78q0 16 2 38t6 54l162 1184q-53 35 -121.5 51.5t-117.5 16.5q-25 0 -44.5 -4.5t-37.5 -12.5q-18 -16 -35 -63t-30 -111.5t-25.5 -139.5t-22.5 -145q59 -2 111.5 -5t105.5 -7 q0 -27 -4 -53.5t-16 -48.5h-211q-2 -10 -3 -18.5t-1 -16.5l-64 -504q-23 -188 -46.5 -392t-43.5 -394q-2 -12 -15.5 -20.5t-34 -14.5t-47 -8t-53.5 2z" />
<glyph unicode="&#xfb03;" horiz-adv-x="1658" d="M39 -604q29 162 53.5 330t46.5 348l66 514l33 256h-181q0 18 1 37.5t4.5 37t10.5 28.5t21 11h160q10 59 17.5 110.5t17.5 96.5q29 150 132 223.5t245 73.5q74 0 136 -10t120 -31q53 66 127.5 100.5t164.5 34.5q104 0 186.5 -35.5t133.5 -97.5q12 -16 5 -38.5t-25.5 -44 t-42 -38t-39.5 -18.5q-68 90 -143 120t-152 30q-51 0 -90 -17q-18 -16 -35 -62t-30 -109.5t-25.5 -137.5t-20.5 -143l291 4q41 0 83 1t79 1q86 0 86 -105q0 -43 -5 -63l-94 -676q53 10 102.5 25.5t90.5 35.5q27 -20 37 -55q-25 -29 -61 -57.5t-75.5 -51t-77.5 -36t-65 -13.5 q-49 0 -71.5 37t-22.5 78q0 16 2 36.5t6 43.5q10 72 20.5 141.5t21.5 147.5t23.5 172t26.5 215l-413 -2q-2 -10 -3.5 -18.5t-1.5 -16.5l-63 -506q-23 -186 -46.5 -390t-43.5 -394q-4 -23 -49 -35t-99 -6l-14 14q29 162 53.5 330t46.5 348l66 514q4 43 10 83t10 77h-415 l-17 -131l-63 -506q-23 -186 -46.5 -390t-43.5 -395q-4 -23 -49.5 -35t-98.5 -5zM389 961l414 4q10 76 18 139t19 123q4 16 7 32.5t7 32.5q-45 18 -99.5 31.5t-117.5 13.5q-47 0 -86 -6t-57 -14q-16 -12 -30.5 -47t-28 -83t-25 -106.5t-21.5 -119.5z" />
<glyph unicode="&#xfb04;" horiz-adv-x="1624" d="M39 -604q29 162 53.5 330t46.5 348l66 514l33 256h-181q0 18 1 37.5t4.5 37t10.5 28.5t21 11h160q10 57 17.5 109.5t17.5 97.5q29 150 132 223.5t245 73.5q74 0 137 -10t121 -31q53 66 127.5 100.5t165.5 34.5q33 0 57 -5t45 -15q57 20 100 20q94 0 94 -116 q0 -10 -1 -25.5t-3 -28.5l-166 -1259q53 10 102.5 25.5t90.5 35.5q27 -20 37 -55q-25 -31 -60.5 -58.5t-74.5 -50t-77 -36t-65 -13.5q-51 0 -73.5 37t-22.5 78q0 16 2 38t6 54l162 1184q-53 35 -121.5 51.5t-118.5 16.5q-25 0 -44 -4.5t-37 -12.5q-18 -16 -35 -63 t-30 -111.5t-25.5 -139.5t-22.5 -145q115 -2 217 -12q0 -27 -4 -53.5t-16 -48.5h-211q-2 -10 -3 -18.5t-1 -16.5l-64 -504q-23 -188 -46.5 -392t-43.5 -394q-2 -12 -15.5 -20.5t-34 -14.5t-47 -8t-53.5 2l-12 14q29 162 53.5 330t46.5 348l66 514q4 43 10 83t10 77h-417 l-17 -131l-63 -506q-23 -186 -46.5 -390t-43.5 -395q-4 -23 -49.5 -35t-98.5 -5zM389 958h414l39 269q4 16 7 32.5t7 32.5q-45 18 -100.5 31.5t-118.5 13.5q-47 0 -86 -6t-57 -14q-16 -12 -30.5 -47t-28 -84t-25 -107.5t-21.5 -120.5z" />
</font>
</defs>
</svg>
