<svg version="1" xmlns="http://www.w3.org/2000/svg" width="300" height="50" viewBox="0 0 300 50">
  <path fill="none" stroke="#999" stroke-width=".25" stroke-miterlimit="10" d="M-8.517 16.438h310.7M-7.195 35.44h310.7"/>
  <g fill="#272727">
    <path d="M39.096 34.99c-.92.44-2.96 1.12-5.56 1.12-5.838 0-9.638-3.96-9.638-9.878 0-5.96 4.08-10.318 10.398-10.318 2.08 0 3.92.52 4.88 1.04l-.8 2.68c-.84-.44-2.16-.92-4.08-.92-4.44 0-6.84 3.32-6.84 7.318 0 4.48 2.88 7.24 6.72 7.24 2 0 3.32-.48 4.32-.92l.6 2.64zM43.218 22.354c0-2.28-.04-4.24-.16-6.04h3.08l.16 3.84h.12c.88-2.6 3.04-4.24 5.398-4.24.36 0 .64.04.96.08v3.32c-.36-.08-.72-.08-1.2-.08-2.48 0-4.24 1.84-4.72 4.48-.08.478-.12 1.08-.12 1.64V35.67h-3.52V22.355zM57.858 26.633c.08 4.76 3.08 6.72 6.64 6.72 2.52 0 4.078-.44 5.358-1l.64 2.52c-1.24.56-3.4 1.238-6.48 1.238-5.958 0-9.518-3.958-9.518-9.797s3.44-10.398 9.08-10.398c6.358 0 7.998 5.52 7.998 9.08 0 .72-.04 1.238-.12 1.64H57.858zm10.318-2.52c.04-2.2-.92-5.68-4.88-5.68-3.6 0-5.118 3.24-5.398 5.68h10.278zM89.535 31.03c0 1.68.08 3.32.28 4.64h-3.16l-.28-2.438h-.12c-1.08 1.52-3.16 2.88-5.92 2.88-3.918 0-5.918-2.76-5.918-5.56 0-4.68 4.16-7.24 11.638-7.2v-.398c0-1.56-.44-4.48-4.4-4.44-1.84 0-3.72.522-5.078 1.44l-.8-2.36c1.6-1 3.96-1.68 6.4-1.68 5.918 0 7.357 4.04 7.357 7.88v7.237zm-3.4-5.237c-3.838-.08-8.198.6-8.198 4.358 0 2.32 1.52 3.36 3.28 3.36 2.56 0 4.2-1.6 4.76-3.24.12-.398.16-.8.16-1.118v-3.36zM99.297 11.675v4.64h5.04v2.68h-5.04v10.438c0 2.4.68 3.76 2.64 3.76.96 0 1.52-.08 2.04-.24l.16 2.68c-.68.24-1.76.48-3.12.48-1.64 0-2.96-.56-3.8-1.48-.96-1.08-1.36-2.8-1.36-5.08v-10.56h-3v-2.68h3v-3.6l3.44-1.038zM110.018 26.633c.08 4.76 3.08 6.72 6.638 6.72 2.52 0 4.08-.44 5.36-1l.64 2.52c-1.24.56-3.4 1.238-6.48 1.238-5.96 0-9.52-3.958-9.52-9.797s3.44-10.398 9.08-10.398c6.358 0 7.998 5.52 7.998 9.08 0 .72-.04 1.238-.12 1.64h-13.596zm10.317-2.52c.04-2.2-.92-5.68-4.88-5.68-3.6 0-5.118 3.24-5.398 5.68h10.278z"/>
  </g>
  <g fill="#272727">
    <path d="M182.28 15.305c1.478 1.146 2.366 3.118 2.665 5.918h-3.418c-.208-1.29-.684-2.36-1.426-3.213s-1.933-1.28-3.573-1.28c-2.24 0-3.84 1.094-4.805 3.278-.625 1.418-.938 3.167-.938 5.247 0 2.094.443 3.856 1.328 5.287.886 1.43 2.28 2.146 4.18 2.146 1.46 0 2.614-.444 3.467-1.333.853-.888 1.44-2.104 1.767-3.647h3.418c-.39 2.773-1.367 4.802-2.93 6.084s-3.56 1.924-5.996 1.924c-2.735 0-4.916-1-6.544-2.998-1.627-2-2.44-4.495-2.44-7.49 0-3.672.892-6.53 2.675-8.574 1.785-2.044 4.058-3.066 6.817-3.066 2.358-.002 4.275.57 5.752 1.717zM188.56 14.19h3.34v3.614c.272-.703.943-1.56 2.01-2.568 1.07-1.01 2.3-1.514 3.692-1.514.065 0 .176.007.332.02s.424.04.8.078v3.71c-.207-.038-.4-.064-.575-.077s-.368-.02-.577-.02c-1.77 0-3.13.57-4.082 1.71-.95 1.14-1.425 2.45-1.425 3.935v12.03h-3.516V14.192zM214.702 14.768c1.385.696 2.44 1.6 3.164 2.705.698 1.055 1.165 2.285 1.397 3.69.207.965.31 2.5.31 4.61H204.36c.063 2.128.56 3.836 1.49 5.122.932 1.286 2.372 1.93 4.323 1.93 1.82 0 3.275-.61 4.36-1.825.606-.707 1.037-1.524 1.29-2.453h3.457c-.09.77-.394 1.624-.908 2.568s-1.088 1.716-1.72 2.314c-1.062 1.04-2.372 1.744-3.937 2.108-.84.208-1.79.312-2.85.312-2.587 0-4.78-.947-6.58-2.842s-2.697-4.548-2.697-7.96c0-3.358.906-6.086 2.72-8.183 1.81-2.097 4.18-3.145 7.103-3.145 1.478.003 2.907.35 4.292 1.048zm1.26 8.212c-.143-1.523-.472-2.74-.988-3.652-.956-1.692-2.55-2.54-4.784-2.54-1.6 0-2.943.584-4.027 1.75-1.085 1.164-1.66 2.645-1.725 4.442h11.523zM235.24 22.45c.807-.104 1.347-.442 1.62-1.014.155-.313.233-.765.233-1.354 0-1.202-.426-2.074-1.276-2.617-.85-.542-2.07-.813-3.654-.813-1.833 0-3.132.497-3.9 1.492-.427.55-.706 1.367-.837 2.453h-3.28c.064-2.586.9-4.384 2.507-5.396 1.605-1.01 3.47-1.517 5.588-1.517 2.46 0 4.456.47 5.99 1.406 1.522.937 2.282 2.395 2.282 4.374v12.052c0 .364.075.657.225.88.15.22.466.33.947.33.156 0 .332-.01.527-.03s.405-.048.626-.087v2.597c-.547.156-.963.254-1.25.293-.286.04-.677.06-1.172.06-1.21 0-2.09-.43-2.637-1.29-.286-.455-.488-1.1-.605-1.933-.716.938-1.744 1.75-3.086 2.44-1.34.69-2.818 1.035-4.434 1.035-1.94 0-3.525-.59-4.756-1.766s-1.846-2.65-1.846-4.418c0-1.938.605-3.44 1.816-4.506s2.8-1.724 4.766-1.97l5.607-.702zm-7.404 9.497c.742.585 1.62.877 2.637.877 1.237 0 2.436-.286 3.594-.857 1.953-.95 2.93-2.503 2.93-4.66v-2.828c-.43.273-.98.502-1.656.685s-1.337.313-1.987.392l-2.125.272c-1.273.168-2.23.435-2.873.8-1.087.61-1.63 1.584-1.63 2.922-.002 1.01.37 1.81 1.11 2.395zM246.977 8.352h3.555v5.84h3.34v2.87h-3.34v13.653c0 .73.248 1.218.742 1.465.273.144.73.215 1.367.215.17 0 .353-.004.548-.013s.424-.03.684-.065v2.793c-.403.117-.823.202-1.26.254-.436.052-.908.078-1.416.078-1.64 0-2.754-.42-3.34-1.26s-.88-1.93-.88-3.27V17.06h-2.83v-2.87h2.83V8.35zM270.31 14.768c1.382.696 2.437 1.6 3.163 2.705.697 1.055 1.164 2.285 1.396 3.69.206.965.31 2.5.31 4.61h-15.215c.064 2.128.562 3.836 1.492 5.122.932 1.286 2.37 1.93 4.322 1.93 1.82 0 3.274-.61 4.358-1.825.607-.707 1.04-1.524 1.29-2.453h3.458c-.09.77-.393 1.624-.908 2.568-.514.944-1.088 1.716-1.72 2.314-1.062 1.04-2.372 1.744-3.937 2.108-.84.208-1.788.312-2.85.312-2.587 0-4.78-.947-6.58-2.842-1.797-1.895-2.696-4.548-2.696-7.96 0-3.358.906-6.086 2.72-8.183 1.81-2.097 4.18-3.145 7.103-3.145 1.475.003 2.905.35 4.292 1.048zm1.256 8.212c-.143-1.523-.47-2.74-.988-3.652-.955-1.692-2.55-2.54-4.783-2.54-1.6 0-2.943.584-4.027 1.75-1.086 1.164-1.66 2.645-1.725 4.442h11.523z"/>
  </g>
  <g fill="none" stroke="#DF3651" stroke-width=".5" stroke-miterlimit="10">
    <circle cx="123.334" cy="29.501" r="2.833"/>
    <circle cx="38.667" cy="25.834" r="6.166"/>
    <circle cx="76.334" cy="22.501" r="2.833"/>
    <path d="M186.917 24.544c0 1.953-1.585 3.542-3.54 3.542-1.957 0-3.543-1.59-3.543-3.542 0-1.957 1.586-3.543 3.543-3.543 1.955 0 3.54 1.587 3.54 3.544z"/>
    <circle cx="225.833" cy="22.335" r="1.708"/>
    <circle cx="275.042" cy="27.127" r="1.458"/>
  </g>
</svg>
