<svg version="1" xmlns="http://www.w3.org/2000/svg" width="300" height="50" viewBox="0 0 300 50">
  <path fill="none" stroke="#999" stroke-width=".25" stroke-miterlimit="10" d="M-8.517 16.438h310.7M-7.195 35.44h310.7"/>
  <g fill="#272727">
    <path d="M232.32 33.99v1.68h-12.364v-1.68h.527c.456 0 .882-.03 1.28-.098.396-.064.74-.197 1.034-.4.293-.2.527-.49.703-.87.176-.376.264-.878.264-1.503v-15h-3.652v-1.896h3.652v-1.992c0-1.198.163-2.253.488-3.164s.794-1.68 1.406-2.305 1.354-1.097 2.227-1.416 1.855-.48 2.95-.48c1.04 0 1.92.07 2.636.206s1.293.33 1.73.576.752.54.947.878.293.716.293 1.133c0 .365-.08.688-.244.968s-.39.515-.684.703-.638.333-1.035.43-.837.147-1.318.147c0-.403-.043-.798-.128-1.182s-.228-.726-.43-1.025-.472-.54-.81-.723-.763-.273-1.27-.273c-.574 0-1.053.11-1.437.332s-.693.55-.928.986-.4.974-.498 1.61-.147 1.38-.147 2.228v2.363h5.645v1.895h-5.645v15c0 .625.088 1.127.264 1.504.176.38.41.668.703.87.293.202.642.335 1.045.4.403.065.827.097 1.27.097h1.524zM244.114 15.827c-.77 0-1.39.107-1.865.322s-.848.517-1.114.907-.446.853-.537 1.387-.138 1.113-.138 1.738c-1.106 0-1.95-.188-2.53-.566s-.868-1.028-.868-1.953c0-.69.188-1.276.566-1.758s.896-.876 1.553-1.182 1.423-.53 2.295-.674 1.804-.216 2.793-.216c1.225 0 2.293.12 3.204.36s1.673.636 2.285 1.183 1.07 1.26 1.376 2.14.46 1.955.46 3.23V31.12c0 .56.045 1.022.136 1.386.09.365.234.658.43.88.195.222.452.378.77.468.32.092.7.137 1.144.137h.117v1.68h-5.41l-.625-3.437h-.332c-.417.56-.82 1.074-1.21 1.543s-.82.873-1.29 1.21c-.47.34-1 .605-1.592.792-.593.19-1.306.283-2.14.283-.885 0-1.708-.126-2.47-.38s-1.42-.645-1.973-1.172-.985-1.19-1.298-1.992-.47-1.748-.47-2.842c0-2.12.756-3.698 2.267-4.726s3.795-1.59 6.854-1.68l3.32-.117v-2.4c0-.717-.04-1.378-.117-1.983s-.247-1.126-.508-1.562-.636-.774-1.124-1.016-1.14-.363-1.962-.363zM239.27 29.87c0 1.25.265 2.185.792 2.802.527.62 1.345.928 2.45.928.81 0 1.54-.13 2.198-.39.657-.26 1.218-.632 1.68-1.114.462-.48.817-1.066 1.064-1.758.247-.69.37-1.457.37-2.305V24.79l-2.558.118c-1.133.052-2.08.192-2.842.42s-1.377.547-1.846.957c-.47.41-.804.916-1.006 1.514-.2.598-.3 1.288-.3 2.07zM278.707 45.28h-11.973V43.6h1.328c.455 0 .88-.03 1.28-.098.395-.064.74-.197 1.034-.4.293-.2.527-.494.703-.88.175-.382.263-.888.263-1.513v-3.44c0-.454.006-.978.02-1.57.012-.593.03-1.163.06-1.71.024-.625.05-1.262.077-1.914h-.156c-.3.613-.643 1.162-1.025 1.65-.386.488-.825.906-1.32 1.25-.495.346-1.054.613-1.68.8-.624.19-1.327.284-2.108.284-1.316 0-2.48-.217-3.496-.654-1.016-.436-1.87-1.105-2.56-2.012-.69-.904-1.21-2.053-1.56-3.447-.353-1.393-.528-3.047-.528-4.96 0-1.927.176-3.594.527-5s.87-2.565 1.562-3.477c.69-.91 1.543-1.585 2.56-2.02s2.18-.655 3.495-.655c.768 0 1.465.085 2.09.254s1.188.41 1.69.722c.5.312.946.684 1.337 1.113s.728.905 1.015 1.426h.234l.722-3.124h6.406v1.68h-.332c-.443 0-.867.032-1.27.098-.404.065-.752.198-1.045.4s-.526.495-.702.88-.264.888-.264 1.513v22.07c0 .586.088 1.06.264 1.416.176.36.412.635.713.83.3.195.647.326 1.046.39.396.067.816.1 1.26.1h.332v1.676zM265.895 33.5c1.04 0 1.91-.172 2.607-.518.695-.344 1.256-.87 1.68-1.572.422-.703.723-1.588.898-2.656.176-1.066.264-2.324.264-3.77 0-1.393-.088-2.623-.264-3.69s-.477-1.963-.898-2.686c-.424-.723-.986-1.272-1.69-1.65s-1.58-.566-2.636-.566c-.873 0-1.62.188-2.246.566s-1.137.93-1.533 1.66c-.398.73-.688 1.63-.87 2.705-.183 1.074-.272 2.308-.272 3.7 0 2.84.383 4.96 1.152 6.368.767 1.406 2.036 2.11 3.808 2.11z"/>
  </g>
  <g fill="#272727">
    <path d="M129.35 16.458h-5.41V35.17h-3.515V16.458h-3.75v-1.64l3.75-1.212v-1.23c0-2.604.57-4.558 1.71-5.86 1.138-1.3 2.893-1.952 5.263-1.952 1.367 0 2.754.24 4.16.723l-.938 2.754c-1.21-.39-2.272-.585-3.184-.585-1.185 0-2.064.39-2.637 1.172-.574.78-.86 2.02-.86 3.71v1.388h5.41v2.733zM145.944 35.17l-.684-3.047h-.156c-1.068 1.34-2.132 2.248-3.193 2.725-1.06.475-2.398.713-4.013.713-2.11 0-3.763-.554-4.96-1.66-1.2-1.106-1.798-2.67-1.798-4.687 0-4.35 3.43-6.628 10.292-6.836l3.633-.137v-1.27c0-1.628-.352-2.83-1.055-3.604s-1.83-1.162-3.38-1.162c-1.132 0-2.203.17-3.212.508-1.01.34-1.957.716-2.842 1.133l-1.074-2.637c1.08-.573 2.26-1.022 3.535-1.348 1.276-.325 2.54-.488 3.79-.488 2.59 0 4.517.573 5.78 1.72 1.263 1.145 1.895 2.968 1.895 5.468v14.61h-2.558zm-7.246-2.44c1.966 0 3.512-.532 4.64-1.593 1.125-1.062 1.688-2.568 1.688-4.52V24.68l-3.164.137c-2.46.09-4.255.48-5.38 1.17-1.127.69-1.69 1.78-1.69 3.263 0 1.12.342 1.98 1.025 2.578.683.598 1.643.9 2.88.9zM162.238 35.56c-2.76 0-4.902-.976-6.426-2.93s-2.285-4.667-2.285-8.144c0-3.49.778-6.22 2.334-8.193 1.558-1.973 3.722-2.96 6.495-2.96 2.93 0 5.156 1.107 6.68 3.32h.156l.528-2.93h2.793V44.78h-3.515v-9.16c0-1.435.065-2.54.195-3.32h-.234c-1.496 2.173-3.735 3.26-6.718 3.26zm.684-2.91c2.097 0 3.627-.574 4.59-1.72.964-1.145 1.472-3.04 1.523-5.683v-.723c0-2.956-.494-5.075-1.484-6.357-.988-1.282-2.558-1.924-4.706-1.924-1.836 0-3.242.723-4.22 2.168s-1.464 3.497-1.464 6.153c0 2.618.485 4.62 1.455 6.006.97 1.387 2.406 2.08 4.307 2.08z"/>
  </g>
  <g fill="#272727">
    <path d="M24.602 8.366c.82-1.198 2.402-1.797 4.746-1.797.22 0 .45.006.684.02s.5.03.8.058V9.85c-.368-.025-.634-.04-.8-.048-.164-.007-.318-.01-.463-.01-1.08 0-1.726.276-1.937.83s-.316 1.963-.316 4.23h3.516v2.772h-3.516V35.67H23.84V17.625h-2.91V14.85h2.91v-3.28c.052-1.46.306-2.527.762-3.204zM44.394 23.012c.807-.104 1.348-.442 1.62-1.014.157-.313.235-.765.235-1.354 0-1.202-.427-2.074-1.278-2.617-.85-.542-2.07-.813-3.654-.813-1.833 0-3.132.497-3.9 1.492-.428.55-.707 1.367-.837 2.453H33.3c.065-2.587.9-4.385 2.507-5.397 1.606-1.012 3.47-1.518 5.59-1.518 2.457 0 4.453.47 5.988 1.406 1.52.94 2.282 2.397 2.282 4.376v12.052c0 .364.075.657.225.88.15.22.465.33.947.33.155 0 .33-.01.526-.03s.403-.048.625-.087v2.6c-.546.155-.963.253-1.25.292-.286.04-.676.06-1.17.06-1.212 0-2.09-.43-2.638-1.29-.287-.455-.488-1.1-.605-1.933-.716.937-1.745 1.75-3.086 2.44-1.34.69-2.818 1.034-4.433 1.034-1.94 0-3.525-.59-4.756-1.766s-1.845-2.65-1.845-4.418c0-1.938.605-3.44 1.816-4.506s2.8-1.724 4.767-1.97l5.607-.702zM36.99 32.51c.743.584 1.622.876 2.638.876 1.237 0 2.435-.286 3.594-.857 1.953-.95 2.93-2.504 2.93-4.662V25.04c-.43.274-.98.503-1.657.686s-1.338.313-1.988.392l-2.125.272c-1.273.17-2.23.436-2.873.8-1.088.61-1.632 1.585-1.632 2.923 0 1.012.37 1.81 1.113 2.396zM66.607 15.593c.65.47 1.274 1.16 1.873 2.07v-2.91h3.32V44.01h-3.516V33.27c-.585.937-1.395 1.682-2.43 2.235-1.033.554-2.323.83-3.87.83-2.225 0-4.214-.872-5.97-2.617-1.755-1.745-2.633-4.4-2.633-7.97 0-3.346.823-6.093 2.468-8.24s3.774-3.224 6.388-3.224c1.73 0 3.188.437 4.37 1.31zm-8.792 14.453c.896 2.175 2.502 3.262 4.816 3.262 2.444 0 4.127-1.146 5.05-3.438.507-1.263.76-2.878.76-4.844 0-1.81-.278-3.32-.837-4.53-.95-2.07-2.62-3.106-5.01-3.106-1.522 0-2.825.66-3.91 1.982s-1.63 3.362-1.63 6.123c0 1.81.255 3.327.762 4.55z"/>
  </g>
  <g fill="none" stroke="#DF3651" stroke-miterlimit="10">
    <circle cx="27" cy="9.5" r="6"/>
    <circle cx="70.25" cy="40.25" r="5.25"/>
    <circle cx="125.5" cy="7.5" r="6.5"/>
    <circle cx="171" cy="41.5" r="6"/>
    <circle cx="229.25" cy="8.25" r="7.25"/>
    <circle cx="272.5" cy="41.5" r="7"/>
  </g>
</svg>
