<svg version="1" xmlns="http://www.w3.org/2000/svg" width="300" height="50" viewBox="0 0 300 50">
  <path fill="none" stroke="#999" stroke-width=".25" stroke-miterlimit="10" d="M-8.517 17.438h310.7M-7.195 35.441h310.699"/>
  <g fill="#272727">
    <path d="M38.375 13.675c-.28-2.6-1.959-5.079-4.719-5.079-3.16 0-4.919 1.88-4.919 5.039 0 6.639 11.998 4.639 11.998 14.237 0 5.52-4.559 8.398-9.678 8.398-2.24 0-4.399-.8-6.359-1.8-.2-2.039-.48-4.039-.68-6.078l1.12-.24c.479 3.399 2.399 6.358 6.199 6.358 2.72 0 4.919-1.72 4.919-4.559 0-7.079-11.758-4.88-11.758-14.518 0-5.199 3.679-8.279 8.838-8.279 1.12 0 4.52.44 5.759.601 0 1.88.16 3.799.4 5.719l-1.12.201zM54.104 23.073c0-2.32-1.359-3.239-3.159-3.239-2.32 0-2.919.6-3.08 2.839-.08 1.08-2.24 1.6-2.839 1.6-.44 0-.76-.319-.76-.92 0-1.56.959-2.719 2.199-3.359 1.32-.68 2.8-1.439 4.319-2.319.88-.52 1.6-.56 2.4-.56 3.519 0 5.399 1.84 5.399 5.319v8.158c0 1.72.12 2.959 1.24 2.959.36 0 .88-.279 1.12-.52l.52.72c-1.2 1.48-2.279 2.52-4.199 2.52-1.919 0-2.879-1.319-3.04-3.159-1.76 1.72-3.559 3.159-6.119 3.159-2.4 0-4.359-1.479-4.359-4.119 0-3.119 2.56-4.079 5.399-5.119l4.959-1.72v-2.24zm0 3.6c-2.199.72-5.879 1.479-5.879 4.279 0 1.72.88 2.599 2.44 2.599 1.839 0 3-1.52 3.439-2.119v-4.759zM64.23 9.556c-.92-.36-1.8-.681-2.68-.96v-.68c2.24-.761 4.559-1.641 6.679-2.8l.48.319v14.238c1.96-1.48 3.479-2.56 5.999-2.56 4.959 0 7.599 3.959 7.599 8.798 0 6.199-4.559 10.358-10.038 10.358-2.399 0-4.599-.64-5.759-1.52-.56.36-1.28.92-1.799 1.52l-.64-.399c.12-1.12.16-2.2.16-3.319V9.556zm4.479 22.395c.48.92 2.12 2.88 4.12 2.88 3.799 0 4.599-3.919 4.599-6.999 0-3.52-1.68-7.998-5.479-7.998-1.32 0-2.32.52-3.24 1.119v10.998zM94.577 17.114c5.799 0 9.638 3.719 9.638 9.318 0 5.438-4.239 9.838-9.638 9.838-5.639 0-9.559-4.079-9.559-9.598 0-5.399 3.96-9.558 9.559-9.558zm-4.68 9.678c0 3.359 1.04 8.039 4.919 8.039 3.72 0 4.52-3.84 4.52-7.438 0-2.88-.96-8.839-4.839-8.839-4.24 0-4.6 4.999-4.6 8.238zM105.99 34.471h.28c1.16 0 2.08 0 2.08-1.199V21.953c0-.64-.08-.88-.959-1.12-.48-.119-.92-.279-1.4-.399v-.96c1.24-.32 2.6-.8 3.639-1.16.92-.319 1.88-.84 2.76-1.199l.44.359v2.56c1.76-1.199 3.799-2.919 6.239-2.919 2.88 0 4.959 1.399 4.959 5.159v11.078c0 1.119 1 1.119 1.96 1.119h.479v1.2c-1.52-.08-2.999-.16-4.519-.16-1.6 0-3.16.08-4.76.16v-1.2h.4c.8 0 1.96 0 1.96-1.039v-9.999c0-2.439-1.24-3.359-3.04-3.359-1.32 0-2.799.8-3.679 1.36v12.078c0 .959.92.959 1.919.959h.6v1.2c-1.52-.08-3.04-.16-4.559-.16-1.64 0-3.24.08-4.799.16v-1.2z"/>
  </g>
  <g fill="#272727" stroke="#272727" stroke-width="2" stroke-miterlimit="10">
    <path d="M176.221 27.738h.92c.68 2.999 2.919 5.919 6.238 5.919 3.08 0 5.479-2.16 5.479-5.319 0-7.438-11.838-5.239-11.838-14.678 0-5.159 3.679-7.839 8.559-7.839 1.64 0 3.279.36 4.879.601l.64 5.119h-.92c-.439-2.8-2.279-4.439-5.159-4.439-3.039 0-4.799 2.199-4.799 5.119 0 7.438 12.317 5.399 12.317 14.598 0 5.199-4.679 8.118-9.398 8.118-2.079 0-4.239-.479-6.118-1.359l-.8-5.84zM212.865 32.777c-1.119 1.04-2.359 2.159-3.959 2.159-1.64 0-2.399-1.52-2.479-2.959-1.88 1.72-3.68 2.959-6.159 2.959-2.56 0-4.319-1.76-4.319-3.879.16-3.199 1.8-3.8 10.438-6.759v-2.64c0-2.24-1.319-3.439-3.879-3.439-1.76 0-2.96 1-3.04 2.8 0 1.119-1.279 1.68-2.239 1.68-.601 0-.72-.521-.72-.8 0-2.12 1.8-3.12 4.599-4.56 1.4-.72 2.08-1.28 3.6-1.28 1.8 0 4.879 1.16 4.879 3.359v11.078c0 1.641.561 2.28 1.44 2.28.52 0 1.119-.24 1.479-.68l.359.681zm-6.478-7.319c-2.04.8-7.238 1.72-7.238 4.72 0 1.56 1.279 2.88 2.839 2.88 1.88 0 3.08-1.16 4.399-2.32v-5.28zM220.279 18.939c1.6-1.359 3.76-2.88 5.959-2.88 4.64 0 7.439 4.04 7.439 8.399 0 5.238-3.84 10.478-9.559 10.478-2.96 0-4.52-.96-5.56-1.399l-1.199.92-.84-.44c.359-2.359.56-4.679.56-7.118V9.701c0-2.6-.6-2.68-2.119-3.119v-.641c1.6-.52 3.279-1.239 4.119-1.72.439-.239.76-.439.88-.439.239 0 .319.24.319.56v14.597zm0 10.878c0 1.521 1.44 4.08 4.12 4.08 4.279 0 6.078-4.2 6.078-7.759 0-4.319-3.279-7.919-6.398-7.919-1.479 0-2.72.96-3.8 1.88v9.718zM245.851 16.06c5.56 0 9.719 3.68 9.719 9.358 0 5.159-4.08 9.519-9.199 9.519-5.318 0-9.678-3.679-9.678-9.358-.001-5.16 3.798-9.519 9.158-9.519zm.479 17.837c4 0 5.56-4.64 5.56-8.079 0-3.279-1.76-8.719-5.999-8.719-3.959 0-5.52 4.64-5.52 8.079 0 3.28 1.76 8.719 5.959 8.719zM260.191 21.379c0-1.479-.439-1.88-2.319-2.64v-.76c1.72-.56 3.359-1.08 5.279-1.92.12 0 .24.08.24.4v2.6c2.279-1.64 4.239-3 6.919-3 3.399 0 4.599 2.48 4.599 5.6v10.318c0 1.319.88 1.319 2 1.319h.72v1.04c-1.399 0-2.8-.08-4.239-.08s-2.879.04-4.319.08v-1.04h.72c1.12 0 1.92 0 1.92-1.319V21.619c0-2.279-1.399-3.399-3.68-3.399-1.279 0-3.319 1.04-4.639 1.92v11.838c0 1.319.88 1.319 1.999 1.319h.72v1.04c-1.399 0-2.799-.08-4.239-.08-1.439 0-2.879.04-4.319.08v-1.04h.721c1.119 0 1.919 0 1.919-1.319V21.379z"/>
  </g>
</svg>
