<svg version="1" xmlns="http://www.w3.org/2000/svg" width="300" height="50" viewBox="0 0 300 50">
  <path fill="none" stroke="#999" stroke-width=".25" stroke-miterlimit="10" d="M-8.517 18.44h310.7M-7.195 35.44h310.7"/>
  <g fill="#272727">
    <path d="M19.575 35.11h4.44V7.75h-4.44v-.56h7.44c.373 0 .746-.006 1.12-.02.374-.013.747-.033 1.12-.06.373 0 .747-.007 1.12-.02.373-.014.746-.02 1.12-.02.8 0 1.513.013 2.14.04s1.213.072 1.76.14c.546.065 1.066.16 1.56.28.493.12 1.02.272 1.58.46 1.626.532 3.033 1.245 4.22 2.14s2.16 1.926 2.92 3.1c.76 1.173 1.32 2.453 1.68 3.84s.54 2.84.54 4.36c0 1.76-.214 3.34-.64 4.74-.427 1.4-1.014 2.64-1.76 3.72-.747 1.08-1.62 2.013-2.62 2.8-1 .786-2.074 1.42-3.22 1.9-.64.293-1.247.52-1.82.68-.574.16-1.16.28-1.76.36-.6.08-1.26.132-1.98.16-.72.025-1.547.04-2.48.04-.4 0-.827-.008-1.28-.022-.454-.014-.907-.033-1.36-.06-.454-.027-.9-.047-1.34-.06-.44-.015-.86-.02-1.26-.02h-6.8v-.557zm8.44 0c.453.055.98.095 1.58.12.6.027 1.26.04 1.98.04.906 0 1.806-.046 2.7-.14.893-.093 1.747-.293 2.56-.6s1.573-.747 2.28-1.32c.706-.573 1.34-1.326 1.9-2.26.853-1.44 1.446-2.913 1.78-4.42.333-1.507.5-3.153.5-4.94 0-2.106-.2-4.02-.6-5.74-.4-1.72-1.06-3.186-1.98-4.4s-2.14-2.152-3.66-2.82c-1.52-.665-3.4-1-5.64-1-.667 0-1.274.015-1.82.04l-1.58.08v27.36zM51.787 35.11h3.08V19.07h-3.08v-.56h6.52v16.6h3.08v.56h-9.6v-.56zm2.6-25.92c0-.586.206-1.086.62-1.5.413-.413.913-.62 1.5-.62.586 0 1.086.207 1.5.62.413.414.62.914.62 1.5 0 .587-.207 1.087-.62 1.5-.414.414-.914.62-1.5.62-.587 0-1.087-.206-1.5-.62-.414-.413-.62-.913-.62-1.5zM74.386 6.83h6.52v28.28h3.08v.56h-6.44v-3.48h-.08c-.107.32-.267.708-.48 1.16-.214.455-.527.896-.94 1.32-.414.428-.934.795-1.56 1.1-.627.308-1.394.46-2.3.46-1.173 0-2.287-.252-3.34-.76-1.054-.505-1.98-1.186-2.78-2.04-.8-.852-1.434-1.832-1.9-2.938-.467-1.106-.7-2.273-.7-3.5 0-1.2.226-2.347.68-3.44.453-1.093 1.066-2.046 1.84-2.86.773-.812 1.666-1.466 2.68-1.96 1.013-.493 2.093-.74 3.24-.74 1.466 0 2.653.36 3.56 1.08.906.72 1.546 1.6 1.92 2.64h.08V7.393h-3.08v-.56zm-6.92 19.68c0 1.388.04 2.648.12 3.78.08 1.135.28 2.1.6 2.9.32.8.8 1.414 1.44 1.84.64.428 1.506.64 2.6.64 1.12 0 2.02-.24 2.7-.72.68-.48 1.206-1.1 1.58-1.86.373-.76.626-1.605.76-2.54.133-.932.2-1.84.2-2.72 0-1.04-.02-1.94-.06-2.7s-.114-1.432-.22-2.02-.253-1.093-.44-1.52c-.187-.426-.414-.826-.68-1.2-.4-.533-.92-.973-1.56-1.32-.64-.346-1.454-.52-2.44-.52-.934 0-1.7.187-2.3.56-.6.374-1.067.907-1.4 1.6-.333.694-.567 1.527-.7 2.5s-.2 2.074-.2 3.3zM85.934 27.11c0-1.306.287-2.52.86-3.64s1.306-2.086 2.2-2.9c.893-.812 1.893-1.445 3-1.9 1.106-.452 2.193-.68 3.26-.68 1.066 0 2.153.228 3.26.68 1.106.455 2.106 1.088 3 1.9.893.814 1.626 1.78 2.2 2.9.573 1.12.86 2.334.86 3.64 0 1.254-.267 2.435-.8 3.54-.534 1.107-1.234 2.074-2.1 2.9-.867.827-1.86 1.48-2.98 1.96-1.12.48-2.267.72-3.44.72-1.174 0-2.32-.24-3.44-.72s-2.114-1.133-2.98-1.96c-.867-.826-1.567-1.793-2.1-2.9-.533-1.105-.8-2.286-.8-3.54zm4 0c0 1.895.146 3.4.44 4.52.293 1.12.68 1.98 1.16 2.58s1.04.995 1.68 1.18c.64.19 1.32.28 2.04.28s1.4-.092 2.04-.28c.64-.185 1.2-.58 1.68-1.18s.866-1.46 1.16-2.58c.293-1.12.44-2.625.44-4.52 0-1.6-.107-2.94-.32-4.02-.214-1.08-.54-1.96-.98-2.64-.44-.68-.994-1.167-1.66-1.46-.667-.293-1.454-.44-2.36-.44-.907 0-1.694.147-2.36.44s-1.22.78-1.66 1.46c-.44.68-.767 1.56-.98 2.64-.213 1.08-.32 2.42-.32 4.02zM106.2 18.51h3.08v-5.16c.212.08.413.148.6.2.186.055.505.08.96.08.4 0 .746-.045 1.04-.14.293-.093.573-.245.84-.46v5.48h5.68v.56h-5.68v13.08c0 .747.073 1.355.22 1.82.146.467.34.827.58 1.08.24.254.5.42.78.5.28.08.553.12.82.12.933 0 1.686-.34 2.26-1.02.573-.68.94-1.46 1.1-2.34l.56.2c-.08.346-.2.733-.36 1.16-.16.426-.406.833-.74 1.22-.333.386-.766.706-1.3.96-.533.253-1.2.38-2 .38-2 0-3.393-.388-4.18-1.16-.786-.773-1.18-1.866-1.18-3.28V19.07h-3.08v-.56z"/>
  </g>
  <path d="M198.274 35.334L209.27 6.7h4.082l11.72 28.634h-4.317l-3.34-8.672h-11.973l-3.145 8.672h-4.023zm8.262-11.758h9.707l-2.988-7.93c-.91-2.41-1.59-4.388-2.03-5.938-.365 1.836-.88 3.66-1.544 5.47l-3.144 8.398zM227.61 35.334V14.59h3.164v3.146c.808-1.47 1.553-2.44 2.236-2.91s1.436-.703 2.256-.703c1.185 0 2.39.378 3.613 1.133l-1.212 3.262c-.86-.508-1.72-.762-2.578-.762-.77 0-1.458.23-2.07.693-.612.46-1.048 1.103-1.31 1.923-.39 1.25-.585 2.617-.585 4.102v10.86h-3.515zM240.99 10.744V6.7h3.515v4.044h-3.516zm0 24.59V14.59h3.515v20.744h-3.516zM263.392 32.775c-1.302 1.105-2.556 1.887-3.76 2.344-1.204.454-2.497.683-3.877.683-2.278 0-4.03-.557-5.254-1.67s-1.835-2.536-1.835-4.268c0-1.016.23-1.943.693-2.783s1.067-1.514 1.816-2.022 1.592-.892 2.53-1.152c.69-.182 1.73-.358 3.124-.527 2.84-.337 4.93-.74 6.27-1.21.013-.48.02-.788.02-.918 0-1.432-.332-2.44-.996-3.027-.898-.794-2.233-1.19-4.004-1.19-1.653 0-2.874.29-3.662.868-.788.58-1.37 1.605-1.748 3.076l-3.438-.47c.312-1.47.827-2.66 1.543-3.564.716-.905 1.75-1.602 3.105-2.09s2.923-.732 4.707-.732c1.77 0 3.21.208 4.316.625 1.107.416 1.922.94 2.442 1.57.52.633.886 1.43 1.094 2.394.117.6.176 1.68.176 3.242v4.688c0 3.268.075 5.335.225 6.2.15.866.446 1.696.89 2.49h-3.673c-.364-.73-.598-1.582-.702-2.56zm-.293-7.852c-1.277.52-3.19.964-5.743 1.33-1.445.207-2.468.44-3.066.702-.598.26-1.06.64-1.386 1.143-.325.5-.488 1.058-.488 1.67 0 .938.354 1.72 1.064 2.344s1.748.938 3.115.938c1.354 0 2.56-.297 3.613-.89 1.055-.592 1.83-1.402 2.324-2.43.378-.796.566-1.968.566-3.517v-1.29zM272.024 35.334V6.7h3.516v28.634h-3.516z"/>
  <g fill="none" stroke="#DF3651" stroke-miterlimit="10">
    <circle cx="76.667" cy="21" r="5.531"/>
    <circle cx="112.334" cy="17.334" r="5.667"/>
    <circle cx="56.334" cy="34.335" r="5.833"/>
    <circle cx="24" cy="9" r="7"/>
    <circle cx="204.333" cy="24.333" r="5.667"/>
    <circle cx="231.167" cy="15.5" r="5.5"/>
    <circle cx="263" cy="24" r="5"/>
  </g>
</svg>
