<svg version="1" xmlns="http://www.w3.org/2000/svg" width="300" height="50" viewBox="0 0 300 50">
  <path fill="none" stroke="#999" stroke-width=".25" stroke-miterlimit="10" d="M-8.517 17.438h310.7M-7.195 35.44h310.7"/>
  <g fill="#272727">
    <path d="M25.178 27.553c.12 1.6.04 2.84.68 4.398.76 1.88 2.84 3.04 4.92 3.04 3 0 5.478-1.8 5.478-4.878 0-5.8-8.918-9-8.918-15.598 0-4.32 3.04-7.36 7.48-7.36 1.76 0 2.798.2 4.358.722.36.12.76.28 1.12.28.44 0 .52-.2.8-.36h.68l-1.24 7.038h-.88c0-.56.08-1.12.08-1.68 0-2.96-1.958-4.72-4.878-4.72-2.64 0-4.32 1.52-4.32 4.2 0 5.52 9.4 9.078 9.4 15.718 0 4.52-3.8 7.918-8.6 7.918-2.56 0-4.32-.8-5.8-1.44l-1.32 1.2h-.92l1.08-8.478h.8zM59.304 17.434c.16-.28.4-.8.88-.8h.84c.24 0 .36.08.36.2 0 .08-.04.16-.08.32l-3.96 14.197c-.12.36-.16.6-.16 1 0 .28.12.56.48.56 1.16 0 2.2-1.68 2.96-2.358l.64.52c-1.56 1.64-3.88 5.2-6.4 5.2-.6 0-1.36-.32-1.36-1.12 0-.68.32-1.8.68-2.92l1.12-3.52-.04-.12c-2.04 3.08-5.758 7.68-8.957 7.68-2.44 0-3.04-1.88-3.04-3.32 0-6.358 7.798-15.558 12.958-15.558 1 0 1.92.56 2.52 1.32l.56-1.28zM48.266 33.312c3.88 0 8.838-8.438 8.838-11.998 0-1-.96-2.04-2-2.04-4.32 0-8.878 7.32-8.878 11.278 0 1.36.48 2.76 2.04 2.76zM69.36 23.073l.08.08c2.16-2.48 5.44-5.76 9.04-5.76 3.2 0 4.52 2.04 4.52 5.08 0 6.398-7.32 13.797-13.64 13.797-2.64 0-4.758-1.36-4.758-4.28 0-1 .24-1.998.48-2.958l5.28-21.037-1.88-1.16.12-.72c.84-.08 1.918-.28 3.08-.52.72-.16 1.838-.4 2.56-.64l.32.24-5.2 17.878zm8.04-4.04c-4.96 0-9.838 8.32-9.838 12.798 0 1.642.6 3.4 2.44 3.4 4.918 0 9.797-8.838 9.797-13.397 0-1.52-.56-2.8-2.4-2.8zM96.78 17.394c4.64 0 7.68 3.52 7.68 8.12 0 5.638-4.8 10.757-10.52 10.757-4.798 0-7.878-3.198-7.878-8.037 0-5.76 4.92-10.84 10.718-10.84zM93.9 35.23c5.16 0 7.36-7.038 7.36-11.157 0-2.84-1.08-5.64-4.52-5.64-5.36 0-7.48 6.76-7.48 11.158.002 3.002 1.12 5.64 4.64 5.64zM107.422 22.434c1.52-1.88 4.32-5.04 6.96-5.04.96 0 1.358.6 1.358 1.36 0 .68-.28 1.44-.44 1.92l-2.08 6.038h.08c1.92-2.76 7.84-9.358 11.76-9.318 1.24 0 1.6.76 1.6 1.64 0 .64-.2 1.4-.4 1.96l-3.2 8.8c-.36.96-.6 1.6-.6 2.078 0 .48.16.84.72.84 1.08 0 2.84-1.88 3.44-2.8l.68.52-1.44 1.76c-1.4 1.72-3.36 3.48-5.56 3.48-1.04 0-1.52-.6-1.52-1.32 0-.64.12-1.32.56-2.48l3.12-8.518c.12-.36.52-1.44.52-2 0-.52-.48-.76-.92-.76-2.238 0-4.52 2.68-5.838 4.16-2.2 2.36-3.92 5.12-5 8.158l-.8 2.28c-.12.32-1 .44-1.48.44-.4 0-1.08-.24-1.28-.52l3.92-11.8c.24-.76.48-1.52.48-2 0-.4-.16-.72-.64-.72-.84 0-1.6.64-2.32 1.36l-1.08 1.2-.6-.718z"/>
  </g>
  <g fill="#272727">
    <path d="M176.384 28.737h.92c.15 3 1.875 5.92 5.194 5.92 3.08 0 5.86-2.16 6.417-5.32 1.312-7.44-10.914-5.24-9.25-14.68.91-5.162 5.063-7.84 9.942-7.84 1.64 0 3.216.36 4.772.6l-.264 5.12h-.92c.054-2.8-1.497-4.44-4.376-4.44-3.04 0-5.188 2.198-5.702 5.12-1.312 7.44 11.366 5.4 9.744 14.6-.917 5.2-6.11 8.12-10.83 8.12-2.08 0-4.155-.48-5.88-1.36l.232-5.84zM212.14 33.777c-1.303 1.04-2.74 2.16-4.34 2.16-1.64 0-2.132-1.52-1.958-2.96-2.184 1.72-4.2 2.96-6.68 2.96-2.56 0-4.01-1.76-3.637-3.88.725-3.2 2.47-3.8 11.63-6.76l.467-2.64c.395-2.24-.714-3.44-3.273-3.44-1.76 0-3.137 1-3.534 2.8-.197 1.12-1.576 1.68-2.535 1.68-.6 0-.628-.522-.58-.8.375-2.12 2.352-3.12 5.405-4.56 1.526-.72 2.306-1.28 3.825-1.28 1.8 0 4.674 1.16 4.286 3.36l-1.954 11.08c-.29 1.64.158 2.28 1.038 2.28.52 0 1.162-.24 1.6-.68l.24.68zm-5.19-7.32c-2.18.8-7.54 1.72-8.07 4.72-.275 1.56.772 2.88 2.332 2.88 1.88 0 3.283-1.16 4.81-2.32l.93-5.28zM221.995 19.937c1.84-1.36 4.267-2.88 6.467-2.88 4.64 0 6.726 4.04 5.957 8.4-.925 5.24-5.69 10.48-11.407 10.48-2.96 0-4.35-.96-5.312-1.4l-1.36.922-.763-.44c.776-2.36 1.385-4.682 1.814-7.12l3.034-17.202c.458-2.6-.127-2.68-1.57-3.12l.114-.64c1.69-.52 3.498-1.24 4.423-1.72.482-.24.838-.44.958-.44.24 0 .278.24.222.56l-2.575 14.6zm-1.92 10.88c-.267 1.52.72 4.08 3.4 4.08 4.28 0 6.82-4.2 7.448-7.76.762-4.32-1.883-7.92-5.003-7.92-1.48 0-2.89.96-4.13 1.88l-1.714 9.72zM248.073 17.057c5.56 0 9.07 3.68 8.068 9.36-.91 5.16-5.757 9.52-10.876 9.52-5.32 0-9.03-3.68-8.028-9.36.91-5.16 5.48-9.52 10.837-9.52zm-2.666 17.84c4 0 6.377-4.64 6.983-8.08.58-3.28-.222-8.72-4.46-8.72-3.96 0-6.338 4.64-6.944 8.08-.578 3.28.222 8.72 4.42 8.72zM261.477 22.377c.26-1.48-.108-1.88-1.854-2.64l.134-.76c1.818-.56 3.55-1.08 5.618-1.92.12 0 .226.08.17.4l-.46 2.6c2.57-1.64 4.77-3 7.45-3 3.398 0 4.16 2.48 3.61 5.6l-1.82 10.32c-.232 1.32.647 1.32 1.768 1.32h.72l-.184 1.04c-1.4 0-2.787-.08-4.227-.08s-2.886.04-4.333.08l.184-1.04h.72c1.12 0 1.92 0 2.152-1.32l1.827-10.36c.402-2.28-.8-3.4-3.08-3.4-1.28 0-3.503 1.04-4.978 1.92l-2.088 11.84c-.232 1.32.647 1.32 1.768 1.32h.72l-.184 1.04c-1.4 0-2.785-.08-4.225-.08-1.44 0-2.887.04-4.333.08l.184-1.04h.72c1.12 0 1.92 0 2.152-1.32l1.87-10.6z"/>
  </g>
</svg>
