<svg version="1" xmlns="http://www.w3.org/2000/svg" width="300" height="50" viewBox="0 0 300 50">
  <path fill="none" stroke="#999" stroke-width=".25" stroke-miterlimit="10" d="M-8.517 17.438h310.7M-7.195 34.44h310.7"/>
  <g fill="#272727">
    <path d="M36.903 7.062c0 .547-.207.978-.62 1.29-.414.313-.98.47-1.7.47-.64 0-1.287-.246-1.94-.74-.547-.412-1.033-.62-1.46-.62-.907 0-1.68.505-2.32 1.51-.64 1.008-.96 2.37-.96 4.09v4.66h4.48c.32 0 .48.36.48 1.08s-.16 1.08-.48 1.08l-4.52-.16v10.04c0 1.308.16 2.16.48 2.562.32.4 1.053.673 2.2.82.213.026.32.206.32.54 0 .372-.107.56-.32.56-.547 0-1.24-.04-2.08-.12-.943-.08-1.74-.12-2.39-.12-.663 0-1.46.04-2.39.12-.84.08-1.534.12-2.08.12-.213 0-.32-.188-.32-.56 0-.334.106-.514.32-.54 1.133-.147 1.863-.42 2.19-.82.327-.4.49-1.254.49-2.56v-9.56c0-.374-.16-.562-.48-.562h-2.04c-.267 0-.4-.17-.4-.51 0-.34.12-.537.36-.59 1.707-.388 2.56-.76 2.56-1.122 0-3.23.98-6.078 2.945-8.542 1.963-2.464 4.23-3.696 6.8-3.696.89 0 1.593.167 2.105.5.514.335.77.795.77 1.38zM48.207 18.363c0 .533-.163.986-.49 1.36-.327.373-.724.56-1.19.56-.587 0-1.167-.193-1.74-.58-.454-.307-.847-.46-1.18-.46-.867 0-1.76.507-2.68 1.52v9c0 1.16.2 1.97.6 2.43.4.46 1.253.777 2.56.95.213.027.32.207.32.54 0 .373-.107.56-.32.56-.547 0-1.32-.04-2.32-.12-1.104-.08-1.98-.12-2.63-.12-.663 0-1.466.04-2.41.12-.854.08-1.553.12-2.1.12-.213 0-.32-.187-.32-.56 0-.333.106-.513.32-.54 1.16-.146 1.903-.42 2.23-.818s.49-1.25.49-2.557v-7.39c0-1.064-.137-1.763-.41-2.096s-.883-.553-1.83-.66c-.213 0-.32-.176-.32-.53 0-.325.106-.49.32-.49 1.32-.332 2.408-.702 3.264-1.108.857-.407 1.418-.757 1.683-1.05.16-.16.318-.24.478-.24.372 0 .558.106.558.32l-.16 2.52c1.066-.986 1.983-1.68 2.75-2.08.767-.4 1.53-.6 2.29-.6.613 0 1.14.2 1.58.6.44.4.66.866.66 1.4zM62.205 34.683c-.743 0-1.39-.184-1.94-.55s-.923-.863-1.122-1.49c-1.427 1.467-3.293 2.2-5.6 2.2-1.2 0-2.18-.37-2.94-1.11-.76-.74-1.14-1.663-1.14-2.77 0-2.733 3.24-4.946 9.72-6.64l.12-3.12v-.1c0-.96-.237-1.724-.71-2.29-.473-.567-1.104-.85-1.89-.85s-1.453.19-2 .57-.827.855-.84 1.43c-.013.853-.237 1.52-.67 2-.434.48-1.01.72-1.73.72-.427 0-.773-.127-1.04-.38-.267-.254-.4-.594-.4-1.02 0-1.027.933-2.105 2.8-3.23 1.867-1.127 3.6-1.69 5.2-1.69 1.44 0 2.606.427 3.5 1.28.893.853 1.34 2 1.34 3.44v.24l-.3 9.04v.14c0 1.4.453 2.1 1.36 2.1.44 0 .953-.268 1.54-.8l.14-.04c.106 0 .207.07.3.21.093.14.14.29.14.45 0 .386-.403.86-1.21 1.42-.808.56-1.684.84-2.628.84zm-3.062-9.02c-3.88.883-5.82 2.34-5.82 4.372 0 1.898.73 2.848 2.192 2.848.704 0 1.398-.177 2.083-.53.684-.355 1.146-.793 1.385-1.314l.16-5.377z"/>
    <path d="M84.998 17.553c0 .34-.107.524-.32.55-.907.095-1.604.36-2.09.795-.487.437-1.023 1.298-1.61 2.586l-9.44 20.4c-1.054 2.186-2.28 3.28-3.68 3.28-.68 0-1.223-.185-1.63-.55-.407-.368-.61-.838-.61-1.41 0-.602.182-1.09.548-1.47.365-.382.853-.57 1.464-.57.287 0 .616.1.988.3.24.12.413.18.52.18.444 0 .965-.747 1.564-2.24l2.5-5.4-4.664-12.52c-.494-1.22-.99-2.062-1.49-2.525s-1.177-.75-2.03-.856c-.213-.025-.32-.21-.32-.55 0-.366.1-.55.303-.55.52 0 1.15.04 1.895.12.833.08 1.566.12 2.197.12.62 0 1.39-.04 2.31-.12.848-.08 1.543-.12 2.09-.12.213 0 .32.184.32.55 0 .34-.107.524-.32.55-1.393.175-2.09.577-2.09 1.208 0 .442.184 1.166.55 2.173l3.224 8.253 3.82-8.253c.33-.76.494-1.387.494-1.88 0-.84-.645-1.34-1.935-1.5-.213-.027-.32-.207-.32-.54 0-.374.107-.56.32-.56.56 0 1.184.04 1.873.12.674.08 1.286.12 1.836.12.275 0 .722-.034 1.34-.102.854-.093 1.54-.14 2.064-.14.22 0 .33.184.33.55z"/>
  </g>
  <g fill="#272727">
    <path d="M215.717 7.365c.82-1.198 2.402-1.797 4.746-1.797.222 0 .45.007.684.02s.502.032.8.06V8.85c-.367-.026-.634-.042-.798-.05-.167-.006-.32-.01-.466-.01-1.08 0-1.725.277-1.936.83s-.316 1.964-.316 4.23h3.516v2.773h-3.516V34.67h-3.477V16.623h-2.91V13.85h2.91v-3.28c.053-1.46.307-2.528.762-3.205zM224.73 13.752h3.34v3.613c.274-.703.945-1.56 2.013-2.568s2.298-1.514 3.69-1.514c.066 0 .177.007.333.02s.423.04.8.078v3.712c-.207-.04-.4-.065-.575-.078s-.367-.02-.575-.02c-1.77 0-3.132.57-4.082 1.71s-1.426 2.45-1.426 3.935v12.03h-3.516V13.752zM248.52 22.01c.808-.103 1.35-.44 1.622-1.013.156-.313.234-.765.234-1.354 0-1.202-.426-2.074-1.277-2.617-.853-.542-2.07-.813-3.655-.813-1.832 0-3.133.497-3.898 1.492-.43.55-.71 1.367-.838 2.453h-3.282c.064-2.586.9-4.384 2.506-5.396 1.606-1.012 3.47-1.518 5.59-1.518 2.457 0 4.453.47 5.988 1.406 1.52.938 2.283 2.396 2.283 4.375v12.052c0 .364.074.657.225.88.148.22.465.33.947.33.156 0 .332-.01.527-.03s.402-.048.625-.087v2.598c-.548.156-.966.254-1.25.293-.288.04-.68.06-1.173.06-1.21 0-2.09-.43-2.637-1.29-.287-.454-.488-1.1-.605-1.932-.717.938-1.746 1.75-3.086 2.44-1.343.69-2.82 1.035-4.435 1.035-1.94 0-3.525-.59-4.756-1.766s-1.847-2.65-1.847-4.418c0-1.94.605-3.44 1.816-4.507s2.798-1.724 4.765-1.97l5.606-.702zm-7.4 9.498c.74.585 1.62.877 2.636.877 1.236 0 2.434-.286 3.594-.857 1.953-.95 2.93-2.503 2.93-4.66V24.04c-.43.274-.98.503-1.657.686s-1.34.313-1.988.392l-2.124.272c-1.272.17-2.23.436-2.872.8-1.088.61-1.63 1.585-1.63 2.923-.002 1.01.37 1.81 1.11 2.395zM271.272 13.752h3.887c-.496 1.342-1.596 4.403-3.302 9.184-1.276 3.596-2.344 6.527-3.203 8.793-2.03 5.334-3.46 8.587-4.293 9.758s-2.264 1.757-4.293 1.757c-.495 0-.876-.02-1.143-.06s-.596-.11-.985-.214V39.77c.61.17 1.053.273 1.325.312.273.04.514.06.723.06.65 0 1.127-.108 1.433-.322.306-.215.562-.478.77-.79.065-.104.3-.637.702-1.598.403-.962.695-1.677.878-2.145l-7.734-21.533h3.983l5.605 17.04 5.644-17.04z"/>
  </g>
  <g fill="#272727">
    <path d="M110.804 16.553h3.4c0-1.36-.12-2.72-.12-4.56 0-4.12 2.48-5.238 5.36-5.238.84 0 1.64.12 2.44.28l-.16 4.398h-.56l-.96-2.6c-.36-1-.8-1.24-1.24-1.24-1.12 0-1.72 1.16-1.72 2.92v6.04h3.798v1.08h-3.8V30.47c0 1.68.12 2.64.96 2.92l3.08 1.04v.56c-1.84-.16-3.6-.32-5.398-.32-1.72 0-3.4.16-5.08.32v-.56l2.44-.96c.6-.24.96-.84.96-3.36V17.634h-3.4v-1.08zM123.855 34.43l2.56-.96c.56-.2.84-.44.84-2.84v-6.318c0-6.08-.04-6.24-.88-6.48l-2.52-.68v-.56c2.24 0 4.44-.16 6.6-.32-.04 1.24-.12 2.52-.12 3.68h.08c.92-1.76 3.238-4.08 5.638-4.08.52 0 1 .12 1.48.24v3.76h-.32c-.76-.76-1.8-1.2-2.96-1.2-2.28 0-3.96 1.64-3.96 5.04v6.52c0 2.6.28 2.92.96 3.16l3.08 1.038v.56c-1.84-.16-3.6-.32-5.398-.32-1.72 0-3.4.16-5.08.32v-.56zM151.09 31.59h-.08c-1.56 2.08-3.28 3.8-6.2 3.8s-5.28-1.48-5.28-4.92c0-4.56 4.64-6.598 11.24-6.598h.28v-2.12c0-2.96-1.76-3.8-4.04-3.8-2.2 0-4.12 1.28-5.32 3.08l-1-.56c1.88-3 4.2-4.6 7.32-4.6 3.2 0 6 1.08 6 4.8V31.83c0 1.92.44 2.12 2.96 2.6v.56c-1.042-.16-2.08-.32-3.08-.32-.96 0-1.96.16-2.92.32l.12-3.4zm-4.8 1.72c2.56 0 4.68-1.84 4.68-5.038v-3.32c-3.24 0-8.08.56-8.08 4.88 0 2.118 1.12 3.48 3.4 3.48zM159.835 42.828l2.32-.72c.96-.28 1.4-.84 1.88-1.88l2.478-5.12-3.84-9.757c-.68-1.72-2.64-6.878-3.48-7.518-.24-.16-.48-.36-.92-.56l-1-.44v-.56c1.36.16 2.76.32 4.16.32 1.64 0 3.12-.16 5.08-.32v.56l-2.4.92c-.36.16-.72.36-.72.64 0 .36.68 2.12 1.64 4.44l3.438 8.277 2.882-6.6c1.68-3.84 2.2-5.88 2.2-6.44 0-.198-.36-.318-.642-.438l-2.04-.8v-.56c1.28.16 2.56.32 3.84.32.96 0 1.92-.16 2.84-.32v.56c-1.28.64-1.92 1.8-2.48 3-1.76 3.8-9.277 19.676-9.277 21.235 0 .68.4.84 1.2 1.12l1.92.64v.56c-1.44-.16-2.88-.32-4.32-.32-1.6 0-3.16.16-4.76.32v-.56z"/>
  </g>
  <g fill="none" stroke="#DF3651" stroke-miterlimit="10">
    <circle cx="35.001" cy="6.667" r="3.334"/>
    <circle cx="46" cy="19" r="3"/>
    <ellipse cx="51.667" cy="21.471" rx="2.333" ry="2.47"/>
    <circle cx="67.334" cy="43.001" r="3.667"/>
    <circle cx="120.001" cy="9" r="3.667"/>
    <circle cx="135.668" cy="17.667" r="3"/>
    <circle cx="141.667" cy="19.667" r="2.667"/>
    <ellipse cx="161.98" cy="42.5" rx="3.354" ry="3.5"/>
    <circle cx="221.334" cy="7" r="3"/>
    <circle cx="234.333" cy="14.667" r="2.986"/>
    <circle cx="239.167" cy="18.167" r="2.833"/>
    <circle cx="258.167" cy="41.833" r="2.82"/>
  </g>
</svg>
