<svg version="1" xmlns="http://www.w3.org/2000/svg" width="300" height="50" viewBox="0 0 300 50">
  <path fill="none" stroke="#999" stroke-width=".25" stroke-miterlimit="10" d="M-7.892 17.44h310.7M-8.32 33.192h310.7"/>
  <g fill="#272727">
    <path d="M123.567 15.526v-.84c0-1.28.16-2.44.44-3.32.28-.88.92-2.878 3.08-4.718 1.44-1.2 2.84-1.92 4.398-2.12 1.36.08 2.52.6 3.16 1.36.36.44.4.92.2 1.4-.12.32-.36.64-.76.96-.36.28-.72.28-1.08-.12-.76-.76-1.92-1.48-3.24-1.48-1.04 0-1.68.48-2.12 1.16-.52.8-.96 2.72-.92 6.118v1.6h4.72c.24.36.04 1.32-.4 1.6h-4.32v11.48c0 2.96.28 3.08 3.44 3.398v1h-9.438v-1.04c2.56-.24 2.84-.44 2.84-3.08V17.128h-2.8l-.16-.44 1.08-1.16h1.88z"/>
    <path d="M149.256 23.966c0 6.438-4.72 9.518-8.68 9.518-5.478 0-8.757-4.398-8.757-8.838 0-6.6 5.118-9.6 8.797-9.6 4.96 0 8.64 4 8.64 8.92zm-13.718-.6c0 5.038 2.16 8.798 5.48 8.798 2.478 0 4.518-1.84 4.518-7.318 0-4.64-1.88-8.48-5.44-8.48-2.398 0-4.558 2.48-4.558 7zM159.9 33.004v-1.04c1.68-.2 2.04-.52 1.36-1.6l-2.96-4.68c-.88 1.32-1.8 2.8-2.56 4.24-.8 1.36-.68 1.72 1.36 2.04v1.04h-7.438v-1.04c2.48-.32 2.92-.64 4.48-2.64 1.118-1.4 2.198-3 3.398-4.8l-3.48-5.44c-1.24-1.918-1.72-2.238-3.92-2.52v-1.04h7.96v1.04c-1.68.24-1.84.562-1.08 1.68l2.36 3.72c.8-1.2 1.6-2.438 2.32-3.76.72-1.238.438-1.438-1.32-1.64v-1.04h7.318v1.04c-2.44.24-2.96.44-4.4 2.12-.84 1.04-1.8 2.44-3.118 4.4l3.88 5.92c1.478 2.278 2 2.64 4.398 2.958v1.04H159.9z"/>
  </g>
  <path fill="#272727" d="M26.203 17.788c3.242.08 4.967.118 5.176.118.025.286.038.5.038.645 0 .17-.02.424-.06.763-.325.052-.657.078-.995.078h-.742c-1.614 0-2.733.06-3.358.177-.026.3-.04.527-.04.684 0 .066.007.164.02.294.066 2.044.1 3.28.1 3.71l-.04 5.02c0 .743.124 1.36.37 1.856.144.286.41.515.802.684.247.117.846.234 1.797.352.717.104 1.2.176 1.446.215 0 .274-.02.482-.06.626l-.272.02c-.625-.04-1.44-.07-2.44-.098l-1.446-.06-4.922.157h-.645l-.02-.605c.196-.04.34-.07.43-.098 1.12-.208 1.843-.442 2.17-.703.13-.105.22-.294.272-.567.026-.156.04-.886.04-2.188 0-3.71-.034-6.673-.1-8.887-.338-.104-.858-.17-1.56-.195-.262 0-.672-.026-1.23-.078l-.04-.218c0-.16.065-.292.195-.397.052-.052.6-.323 1.64-.815.404-.18.69-.407.86-.68.09-.143.143-.442.156-.9.013-.207.052-.565.117-1.075.156-1.343.28-2.172.37-2.484.235-.874.63-1.745 1.183-2.612s1.22-1.627 2.002-2.28c.573-.47 1.22-.82 1.943-1.056.723-.235 1.546-.353 2.47-.353 1.238 0 2.143.2 2.716.602.39.27.586.62.586 1.048 0 .362-.137.673-.41.932s-.612.388-1.016.388c-.495 0-1.03-.124-1.602-.37-1.082-.435-1.694-.67-1.837-.708-.248-.065-.5-.098-.762-.098-.716 0-1.37.228-1.963.686-.593.458-.967 1.02-1.123 1.687-.156.667-.234 2.165-.234 4.492 0 .836.006 1.6.02 2.293zM32.42 25.152c0-.886.185-1.833.556-2.842s.934-1.914 1.69-2.715c.754-.8 1.555-1.396 2.4-1.787 1.186-.547 2.63-.82 4.337-.82 2.435 0 4.47.833 6.104 2.5 1.634 1.667 2.45 3.672 2.45 6.016 0 2.083-.855 3.942-2.567 5.576-1.712 1.634-3.877 2.45-6.494 2.45-1.615 0-3.138-.422-4.57-1.27-1.068-.637-1.986-1.58-2.754-2.83-.77-1.25-1.153-2.676-1.153-4.278zm8.64 7.618c.992 0 1.948-.267 2.867-.8s1.653-1.39 2.2-2.57.823-2.54.823-4.09c0-1.017-.212-2.195-.636-3.536-.424-1.34-1.076-2.347-1.957-3.018s-1.914-1.006-3.1-1.006c-.862 0-1.74.202-2.632.605s-1.65 1.18-2.27 2.324-.93 2.772-.93 4.882c0 2.37.54 4.163 1.615 5.38 1.077 1.22 2.417 1.828 4.02 1.828z"/>
  <path fill="#DF3651" d="M50.61 18.395c-.027-.174-.04-.32-.04-.44v-.26c.208-.054.436-.08.684-.08h.723c1.12.038 1.823.058 2.11.058.897 0 1.81-.013 2.733-.04.573-.012.924-.02 1.055-.02h.47c.09.184.136.32.136.41 0 .066-.025.157-.077.274l-.29.04c-.945.09-1.54.21-1.788.354-.104.067-.156.152-.156.258 0 .21.155.52.468.93 1.516 1.976 2.545 3.25 3.09 3.823 1.233-1.64 1.97-2.69 2.206-3.155.237-.464.355-.827.355-1.09 0-.3-.118-.553-.353-.756-.234-.203-.808-.37-1.72-.5-.103-.157-.155-.287-.155-.392l.06-.195.507-.02c.13 0 .357.007.683.02.56.04 1.12.06 1.68.06.286 0 .78-.01 1.484-.03s1.237-.03 1.602-.03h.897c.17.08.254.184.254.313 0 .065-.012.15-.038.254-.208.052-.462.104-.762.156-.703.105-1.387.36-2.05.768-.496.302-.984.78-1.466 1.437l-2.76 3.742 2.82 3.552c1.296 1.756 2.09 2.79 2.385 3.103s.61.565.95.76.834.378 1.487.547c.013.156.02.293.02.41 0 .09-.026.215-.078.37-.236 0-1.424-.03-3.565-.097-.13 0-.757.013-1.88.04-.353.012-.692.02-1.018.02-.3 0-.672-.014-1.116-.04l.06-.586c.196-.038.412-.084.647-.136.667-.13 1.145-.306 1.433-.526.17-.143.255-.3.255-.468 0-.286-.88-1.488-2.637-3.605l-1.14-1.374c-.552.548-1.163 1.323-1.832 2.325-.38.586-.69 1.022-.926 1.31-.443.516-.664.947-.664 1.295 0 .116.078.236.234.358s.612.268 1.367.435c.508.104.866.188 1.074.252.04.174.06.308.06.4 0 .08-.013.207-.04.38-1.002-.05-1.978-.077-2.93-.077-1.197 0-2.066.017-2.606.05-.54.03-.876.048-1.006.048-.156 0-.404-.013-.742-.04-.052-.182-.078-.318-.078-.41l.04-.253c.18-.09.41-.15.683-.176.873-.09 1.648-.416 2.325-.975.677-.56 2.176-2.42 4.496-5.58l-2.6-3.136-2.754-3.318c-.078-.078-.176-.156-.293-.234-.208-.116-.488-.207-.84-.272-.535-.108-.912-.186-1.134-.237z"/>
  <g fill="#272727">
    <path d="M234.46 4.742c-.195-.26-.46-.442-.79-.547s-.643-.156-.93-.156c-.624 0-1.14.14-1.542.42s-.723.646-.957 1.103-.4.967-.497 1.533-.146 1.136-.146 1.71v4.198h5.39v1.562l-5.39.098.04 14.102c0 .534-.008 1.006-.02 1.416s-.066.843-.157 1.3l2.52-.118v1.64h-8.145v-1.19c.612 0 1.077-.12 1.396-.36s.55-.577.694-1.007.222-.944.234-1.543.02-1.257.02-1.973l-.04-12.187-3.28.06v-1.798h3.28v-.84c0-1.484.128-2.815.382-3.994s.667-2.177 1.24-2.997 1.318-1.452 2.236-1.895 2.034-.664 3.35-.664c.43 0 .896.056 1.396.166s.964.286 1.387.527.777.547 1.063.918.43.817.43 1.338c0 .534-.156.97-.47 1.31s-.71.507-1.19.507c-.34 0-.612-.056-.82-.166s-.38-.25-.518-.42-.234-.352-.293-.547-.088-.37-.088-.527.017-.315.05-.48.088-.33.166-.498zM245.622 12.36c1.406 0 2.72.256 3.945.77 1.224.515 2.288 1.224 3.193 2.13.904.904 1.62 1.978 2.148 3.222s.79 2.588.79 4.033c0 1.55-.257 3-.77 4.355-.515 1.354-1.225 2.532-2.13 3.535-.904 1.003-1.972 1.794-3.202 2.373s-2.556.87-3.975.87c-1.405 0-2.718-.252-3.935-.753-1.218-.5-2.28-1.2-3.184-2.1-.904-.898-1.617-1.97-2.138-3.213-.52-1.243-.78-2.607-.78-4.092 0-1.575.256-3.044.77-4.404.514-1.36 1.22-2.54 2.12-3.535s1.958-1.776 3.183-2.343c1.226-.564 2.547-.848 3.967-.848zm0 1.523c-1.055 0-1.957.234-2.705.704-.75.47-1.364 1.095-1.846 1.877-.48.782-.836 1.682-1.063 2.698-.23 1.017-.342 2.072-.342 3.167 0 1.238.127 2.443.38 3.616.255 1.174.642 2.213 1.163 3.12.52.904 1.175 1.63 1.963 2.18.788.547 1.71.82 2.765.82s1.943-.237 2.666-.714c.724-.476 1.31-1.104 1.76-1.887.448-.78.77-1.675.966-2.68.195-1.002.293-2.032.293-3.088 0-1.2-.112-2.386-.333-3.56-.222-1.172-.573-2.222-1.055-3.147-.482-.925-1.104-1.675-1.865-2.248s-1.678-.86-2.745-.86zM256.844 13.004h8.242v1.19c-.6.027-1.07.105-1.416.235-.346.13-.55.334-.615.614-.065.28.006.647.215 1.104.208.456.56 1.022 1.055 1.7l2.324 3.163c3.332-4.074 5.142-6.25 5.43-6.522l-2.755.156v-1.64h6.562v1.19c-.547.156-1.025.35-1.436.576s-.8.508-1.17.84-2.25 2.517-5.636 6.553l5.508 6.855c.312.39.608.774.89 1.152.278.378.568.813.868 1.31l1.816-.118v1.64h-7.734v-1.19c.325 0 .61-.036.86-.107.246-.07.425-.188.536-.352.11-.163.137-.368.078-.615s-.225-.547-.498-.898l-4.22-5.195c-2.72 3.724-4.144 5.664-4.267 5.82-.123.156-.257.312-.4.47-.143.155-.31.338-.507.546l3.066-.116v1.64h-6.72v-1.19c.403-.104.762-.24 1.074-.41s.608-.384.89-.645c.278-.262 2.222-2.73 5.83-7.403-3.282-4.375-5.066-6.843-5.353-7.402-.286-.56-.5-1.028-.644-1.406l-1.875.097v-1.643z"/>
  </g>
</svg>
